<?xml version="1.0" standalone="no"?>
<!DOCTYPE svg PUBLIC "-//W3C//DTD SVG 1.1//EN" "http://www.w3.org/Graphics/SVG/1.1/DTD/svg11.dtd" >
<svg xmlns="http://www.w3.org/2000/svg">
<metadata>Generated by IcoMoon</metadata>
<defs>
<font id="icomoon" horiz-adv-x="1024">
<font-face units-per-em="1024" ascent="960" descent="-64" />
<missing-glyph horiz-adv-x="1024" />
<glyph unicode="&#x20;" horiz-adv-x="512" d="" />
<glyph unicode="&#xe900;" glyph-name="Activity-16" d="M509.551 906.687h66.448c17.673 0 32-14.327 32-32s-14.327-32-32-32h-64c-101.471 0-174.355-0.068-229.821-7.525-54.545-7.333-87.429-21.281-111.734-45.586s-38.253-57.19-45.587-111.735c-7.457-55.466-7.525-128.349-7.525-229.82s0.068-174.357 7.525-229.82c7.334-54.547 21.281-87.43 45.587-111.738 24.305-24.301 57.189-38.253 111.734-45.587 55.466-7.456 128.35-7.52 229.821-7.52s174.356 0.064 229.819 7.52c54.547 7.334 87.43 21.286 111.738 45.587 24.307 24.307 38.253 57.19 45.587 111.738 7.456 55.462 7.52 128.348 7.52 229.82v64c0 17.673 14.33 32 32 32 17.677 0 32-14.327 32-32v-66.448c0.006-98.492 0.006-175.679-8.096-235.903-8.282-61.638-25.581-110.278-63.757-148.461-38.182-38.176-86.822-55.469-148.461-63.757-60.224-8.102-137.411-8.096-235.902-8.096h-4.896c-98.492 0-175.677-0.006-235.901 8.096-61.642 8.288-110.283 25.581-148.461 63.757-38.179 38.182-55.473 86.822-63.761 148.461-8.097 60.224-8.096 137.411-8.096 235.902v4.897c-0.001 98.492-0.001 175.677 8.096 235.9 8.287 61.642 25.582 110.283 63.761 148.461s86.82 55.473 148.461 63.761c60.223 8.097 137.409 8.096 235.901 8.096zM745.818 557.937c13.574-11.314 15.411-31.492 4.096-45.069l-78.029-93.637c-14.016-16.821-26.65-31.985-38.45-42.642-12.84-11.594-29.014-21.921-50.325-21.921s-37.485 10.327-50.325 21.921c-11.801 10.657-24.435 25.821-38.449 42.642l-12.476 14.971c-15.82 18.985-25.535 30.523-33.539 37.75-3.711 3.352-5.914 4.688-6.969 5.199-0.12 0.058-0.221 0.103-0.303 0.138l-0.16 0.063c-0.097-0.036-0.25-0.098-0.464-0.202-1.055-0.511-3.257-1.847-6.968-5.199-8.004-7.227-17.719-18.765-33.54-37.75l-76.667-92.001c-11.315-13.577-31.492-15.411-45.069-4.097s-15.411 31.492-4.097 45.069l78.030 93.636c14.015 16.821 26.648 31.985 38.45 42.642 12.84 11.595 29.014 21.921 50.325 21.921s37.485-10.326 50.325-21.921c11.801-10.657 24.435-25.821 38.45-42.642l12.476-14.971c15.82-18.985 25.535-30.523 33.539-37.75 3.711-3.352 5.914-4.687 6.969-5.198 0.214-0.104 0.367-0.166 0.463-0.202 0 0 0.117 0.045 0.2 0.081 0 0 0.162 0.072 0.264 0.122 1.055 0.511 3.258 1.846 6.969 5.198 8.004 7.227 17.719 18.765 33.54 37.75l76.667 92.001c11.315 13.577 31.494 15.411 45.069 4.097zM810.662 906.687c-88.365 0-160-71.635-160-160s71.635-160 160-160c88.371 0 160 71.635 160 160s-71.629 160-160 160zM714.662 746.687c0 53.020 42.982 96 96 96 53.024 0 96-42.98 96-96s-42.976-96-96-96c-53.018 0-96 42.981-96 96z" />
<glyph unicode="&#xe901;" glyph-name="Activity-20" d="M509.55 906.65h66.45c17.669 0 32-14.327 32-32s-14.331-32-32-32h-64.002c-101.471 0-174.355-0.068-229.821-7.525-54.545-7.333-87.429-21.281-111.734-45.586s-38.253-57.189-45.586-111.735c-7.457-55.465-7.525-128.35-7.525-229.819 0-101.473 0.068-174.356 7.525-229.821 7.333-54.543 21.281-87.429 45.586-111.734s57.189-38.257 111.734-45.588c55.466-7.455 128.35-7.526 229.821-7.526s174.353 0.072 229.818 7.526c54.548 7.332 87.429 21.284 111.739 45.588 24.305 24.305 38.252 57.19 45.583 111.734 7.46 55.465 7.526 128.348 7.526 229.821v63.998c0 17.673 14.326 32 32 32s32-14.327 32-32v-66.446c0-98.493 0-175.677-8.095-235.904-8.289-61.64-25.585-110.28-63.764-148.46-38.175-38.18-86.815-55.475-148.46-63.759-60.221-8.1-137.411-8.1-235.899-8.1h-4.897c-98.491 0-175.677 0-235.901 8.1-61.642 8.284-110.283 25.58-148.462 63.759s-55.473 86.82-63.76 148.46c-8.097 60.227-8.096 137.411-8.096 235.904v4.894c-0.001 98.491-0.001 175.677 8.096 235.9 8.287 61.642 25.582 110.283 63.76 148.462s86.82 55.473 148.462 63.761c60.223 8.097 137.409 8.096 235.9 8.096zM745.815 557.9c13.578-11.314 15.411-31.492 4.101-45.069l-78.034-93.636c-14.013-16.824-26.644-31.985-38.446-42.644-12.841-11.592-29.015-21.919-50.33-21.919-21.309 0-37.484 10.327-50.324 21.919-11.802 10.66-24.433 25.82-38.448 42.644l-12.476 14.971c-15.82 18.984-25.535 30.522-33.539 37.749-3.712 3.352-5.914 4.688-6.969 5.198-0.121 0.058-0.222 0.103-0.304 0.138l-0.16 0.064c-0.097-0.036-0.249-0.098-0.463-0.202-1.056-0.51-3.257-1.846-6.969-5.198-8.004-7.227-17.719-18.765-33.54-37.749l-76.667-92.001c-11.314-13.578-31.492-15.411-45.069-4.096-13.577 11.31-15.411 31.488-4.098 45.066l78.030 93.638c14.014 16.821 26.649 31.986 38.45 42.642 12.84 11.595 29.014 21.922 50.325 21.922s37.485-10.327 50.325-21.922c11.802-10.656 24.434-25.821 38.452-42.641l12.472-14.971c15.821-18.983 25.539-30.524 33.541-37.748 3.712-3.354 5.914-4.69 6.968-5.202 0.215-0.102 0.369-0.164 0.461-0.2 0 0 0.118 0.046 0.2 0.082 0 0 0.164 0.072 0.266 0.118 1.055 0.512 3.256 1.848 6.968 5.202 8.003 7.224 17.72 18.765 33.541 37.748l76.667 92.001c11.315 13.577 31.493 15.411 45.066 4.097zM810.665 906.65c-88.366 0-160-71.634-160-160s71.634-160 160-160c88.366 0 160 71.634 160 160s-71.634 160-160 160zM714.665 746.65c0 53.019 42.982 96 96 96s96-42.981 96-96c0-53.020-42.982-96-96-96s-96 42.98-96 96z" />
<glyph unicode="&#xe902;" glyph-name="Activity-24" d="M509.551 906.667h66.449c17.673 0 32-14.327 32-32s-14.327-32-32-32h-64c-101.471 0-174.355-0.068-229.821-7.525-54.545-7.334-87.43-21.281-111.735-45.586s-38.253-57.189-45.586-111.735c-7.457-55.466-7.525-128.35-7.525-229.821s0.068-174.353 7.525-229.82c7.334-54.545 21.281-87.428 45.586-111.735s57.189-38.255 111.735-45.585c55.466-7.458 128.35-7.526 229.821-7.526s174.353 0.068 229.82 7.526c54.545 7.33 87.428 21.278 111.735 45.585s38.255 57.19 45.585 111.735c7.458 55.467 7.526 128.35 7.526 229.82v64c0 17.673 14.327 32 32 32s32-14.327 32-32v-66.449c0-98.492 0-175.676-8.094-235.9-8.29-61.641-25.583-110.285-63.761-148.463s-86.822-55.471-148.463-63.761c-60.224-8.094-137.408-8.094-235.9-8.094h-4.898c-98.49 0-175.676 0-235.899 8.094-61.642 8.29-110.283 25.583-148.462 63.761s-55.473 86.822-63.761 148.463c-8.097 60.224-8.096 137.408-8.096 235.9v4.898c0 98.49-0.001 175.676 8.096 235.899 8.288 61.642 25.582 110.283 63.761 148.462s86.819 55.473 148.462 63.761c60.223 8.097 137.409 8.096 235.899 8.096zM745.818 557.917c13.577-11.314 15.411-31.491 4.1-45.068l-78.033-93.641c-14.012-16.819-26.645-31.983-38.447-42.641-12.843-11.593-29.013-21.922-50.325-21.922s-37.487 10.33-50.325 21.922c-11.802 10.658-24.435 25.822-38.451 42.641l-12.476 14.972c-15.821 18.987-25.536 30.524-33.54 37.751-3.712 3.349-5.914 4.689-6.967 5.197-0.119 0.060-0.222 0.102-0.303 0.141l-0.162 0.064c-0.094-0.038-0.247-0.098-0.461-0.205-1.058-0.508-3.26-1.847-6.972-5.197-8.002-7.228-17.717-18.765-33.538-37.751l-76.667-91.998c-11.314-13.577-31.492-15.411-45.069-4.1-13.577 11.315-15.411 31.492-4.097 45.069l78.031 93.636c14.014 16.823 26.649 31.987 38.45 42.645 12.84 11.593 29.014 21.92 50.324 21.92 21.312 0 37.487-10.327 50.325-21.92 11.802-10.658 24.435-25.822 38.451-42.641l12.476-14.972c15.821-18.987 25.536-30.524 33.54-37.751 3.712-3.349 5.914-4.689 6.967-5.197 0.213-0.107 0.367-0.166 0.465-0.205 0 0 0.115 0.047 0.196 0.081 0 0 0.162 0.073 0.265 0.124 1.058 0.508 3.26 1.847 6.972 5.197 8 7.228 17.719 18.765 33.536 37.751l76.668 92c11.315 13.577 31.492 15.411 45.069 4.097zM810.667 906.667c-88.367 0-160-71.634-160-160s71.633-160 160-160c88.367 0 160 71.634 160 160s-71.633 160-160 160zM714.667 746.667c0 53.019 42.982 96 96 96s96-42.981 96-96c0-53.019-42.982-96-96-96s-96 42.981-96 96z" />
<glyph unicode="&#xe903;" glyph-name="Add-16" d="M512.003 906.687c17.673 0 32-14.327 32-32v-394.67h394.666c17.67 0 32-14.327 32-32s-14.33-32-32-32h-394.666v-394.66c0-17.677-14.327-32-32-32s-32 14.323-32 32v394.66h-394.667c-17.673 0-32 14.327-32 32s14.327 32 32 32h394.667v394.67c0 17.673 14.327 32 32 32z" />
<glyph unicode="&#xe904;" glyph-name="Add-20" d="M511.998 906.65c17.671 0 32.002-14.327 32.002-32v-394.67h394.665c17.674 0 32-14.327 32-32.001s-14.326-32-32-32h-394.665v-394.665c0-17.669-14.331-32-32.002-32-17.673 0-32 14.331-32 32v394.665h-394.666c-17.673 0-32 14.326-32 32s14.327 32.001 32 32.001h394.666v394.67c0 17.673 14.327 32 32 32z" />
<glyph unicode="&#xe905;" glyph-name="Add-24" d="M512 906.667c17.673 0 32-14.327 32-32v-394.671h394.667c17.673 0 32-14.327 32-32s-14.327-32-32-32h-394.667v-394.662c0-17.673-14.327-32-32-32s-32 14.327-32 32v394.662h-394.667c-17.673 0-32 14.327-32 32s14.327 32 32 32h394.667v394.671c0 17.673 14.327 32 32 32z" />
<glyph unicode="&#xe906;" glyph-name="Arrow-Down-16-1" d="M512 821.313c17.673 0 32-14.327 32-32v-605.415l201.37 201.375c12.499 12.497 32.762 12.497 45.261 0 12.493-12.497 12.493-32.758 0-45.254l-256.003-255.999c-6.001-6.003-14.14-9.376-22.627-9.376s-16.626 3.373-22.627 9.376l-256 255.999c-12.497 12.497-12.497 32.758 0 45.254s32.758 12.497 45.254 0l201.373-201.375v605.415c0 17.673 14.327 32 32 32z" />
<glyph unicode="&#xe907;" glyph-name="Arrow-Down-16" d="M189.036 596.825c11.501 13.418 31.703 14.972 45.122 3.471l277.841-238.15 277.844 238.15c13.414 11.501 33.619 9.948 45.12-3.471s9.946-33.62-3.469-45.122l-298.67-255.997c-11.983-10.272-29.667-10.272-41.651 0l-298.666 255.997c-13.419 11.501-14.973 31.703-3.471 45.122z" />
<glyph unicode="&#xe908;" glyph-name="Arrow-Down-20-1" d="M512 821.35c17.674 0 32-14.327 32-32v-605.414l201.375 201.375c12.493 12.498 32.758 12.498 45.251 0 12.498-12.498 12.498-32.758 0-45.256l-256-256c-6.001-6.001-14.136-9.37-22.625-9.37-8.487 0-16.626 3.369-22.627 9.37l-256 256c-12.497 12.498-12.497 32.758 0 45.256s32.758 12.498 45.255 0l201.373-201.375v605.414c0 17.673 14.327 32 32 32z" />
<glyph unicode="&#xe909;" glyph-name="Arrow-Down-20" d="M189.036 596.825c11.502 13.418 31.703 14.972 45.122 3.471l277.841-238.148 277.843 238.148c13.414 11.502 33.618 9.948 45.117-3.471 11.505-13.418 9.948-33.62-3.471-45.122l-298.665-255.997c-11.981-10.276-29.666-10.276-41.65 0l-298.667 255.997c-13.418 11.502-14.972 31.703-3.471 45.122z" />
<glyph unicode="&#xe90a;" glyph-name="Arrow-Down-24-1" d="M512 821.333c17.673 0 32-14.327 32-32v-605.41l201.374 201.37c12.497 12.497 32.755 12.497 45.252 0s12.497-32.755 0-45.252l-256-256c-5.999-6.003-14.14-9.374-22.626-9.374s-16.627 3.371-22.626 9.374l-256.001 256c-12.497 12.497-12.497 32.755 0 45.252s32.758 12.497 45.255 0l201.373-201.37v605.41c0 17.673 14.327 32 32 32z" />
<glyph unicode="&#xe90b;" glyph-name="Arrow-Down-24" d="M189.038 596.825c11.502 13.418 31.703 14.973 45.122 3.471l277.841-238.15 277.841 238.15c13.419 11.501 33.621 9.947 45.124-3.471 11.499-13.419 9.946-33.62-3.473-45.122l-298.667-256.002c-11.985-10.27-29.666-10.27-41.651 0l-298.666 256.002c-13.418 11.502-14.973 31.703-3.471 45.122z" />
<glyph unicode="&#xe90c;" glyph-name="Arrow-Left-16-1" d="M449.295 726.627c12.497-12.497 12.497-32.758 0-45.254l-201.373-201.373h605.415c17.67 0 32-14.327 32-32s-14.33-32-32-32h-605.415l201.373-201.37c12.497-12.499 12.497-32.762 0-45.261-12.497-12.493-32.758-12.493-45.255 0l-256 256.003c-12.497 12.497-12.497 32.758 0 45.254l256 256c12.497 12.497 32.758 12.497 45.255 0z" />
<glyph unicode="&#xe90d;" glyph-name="Arrow-Left-16" d="M660.826 770.983c13.421-11.501 14.97-31.703 3.469-45.121l-238.148-277.841 238.148-277.844c11.501-13.414 9.952-33.619-3.469-45.12s-33.62-9.946-45.122 3.475l-256 298.664c-10.271 11.984-10.271 29.667 0 41.651l256 298.667c11.501 13.418 31.701 14.972 45.122 3.471z" />
<glyph unicode="&#xe90e;" glyph-name="Arrow-Left-20-1" d="M449.293 726.627c12.497-12.497 12.497-32.758 0-45.255l-201.372-201.373h605.409c17.674 0 32-14.327 32-32s-14.326-32-32-32h-605.409l201.372-201.375c12.497-12.493 12.497-32.758 0-45.251-12.496-12.498-32.758-12.498-45.255 0l-256 256c-12.497 12.493-12.497 32.756 0 45.253l256 256c12.497 12.497 32.758 12.497 45.255 0z" />
<glyph unicode="&#xe90f;" glyph-name="Arrow-Left-20" d="M660.823 770.946c13.42-11.502 14.976-31.703 3.471-45.122l-238.148-277.839 238.148-277.842c11.505-13.42 9.948-33.623-3.471-45.123-13.414-11.5-33.618-9.948-45.117 3.471l-256.002 298.665c-10.271 11.986-10.271 29.668 0 41.652l256.002 298.666c11.5 13.418 31.703 14.972 45.117 3.471z" />
<glyph unicode="&#xe910;" glyph-name="Arrow-Left-24-1" d="M449.293 726.627c12.497-12.497 12.497-32.758 0-45.255l-201.371-201.373h605.412c17.673 0 32-14.327 32-32s-14.327-32-32-32h-605.412l201.371-201.374c12.497-12.497 12.497-32.755 0-45.252s-32.757-12.497-45.254 0l-256 256c-12.497 12.497-12.497 32.755 0 45.252l256 256.001c12.497 12.497 32.756 12.497 45.254 0z" />
<glyph unicode="&#xe911;" glyph-name="Arrow-Left-24" d="M660.826 770.962c13.419-11.502 14.972-31.703 3.469-45.122l-238.148-277.841 238.148-277.841c11.503-13.419 9.95-33.621-3.469-45.124-13.419-11.499-33.621-9.946-45.12 3.473l-256.002 298.667c-10.272 11.985-10.272 29.666 0 41.651l256.002 298.666c11.499 13.418 31.701 14.973 45.12 3.471z" />
<glyph unicode="&#xe912;" glyph-name="Arrow-Right-16-1" d="M574.703 726.627c12.497 12.497 32.758 12.497 45.255 0l255.997-256c12.499-12.497 12.499-32.758 0-45.254l-255.997-256.003c-12.497-12.493-32.758-12.493-45.255 0-12.497 12.499-12.497 32.762 0 45.261l201.373 201.37h-605.412c-17.674 0-32 14.327-32 32s14.326 32 32 32h605.412l-201.373 201.373c-12.497 12.497-12.497 32.758 0 45.254z" />
<glyph unicode="&#xe913;" glyph-name="Arrow-Right-16" d="M363.175 770.983c13.419 11.501 33.62 9.948 45.122-3.471l255.997-298.667c10.272-11.983 10.272-29.667 0-41.651l-255.997-298.664c-11.501-13.421-31.703-14.976-45.122-3.475s-14.972 31.706-3.471 45.12l238.15 277.844-238.15 277.841c-11.501 13.418-9.948 33.62 3.471 45.121z" />
<glyph unicode="&#xe914;" glyph-name="Arrow-Right-20-1" d="M574.71 726.627c12.493 12.497 32.758 12.497 45.251 0l256-256c12.498-12.497 12.498-32.76 0-45.253l-256-256c-12.493-12.498-32.758-12.498-45.251 0-12.498 12.493-12.498 32.758 0 45.251l201.37 201.375h-605.411c-17.673 0-32 14.326-32 32s14.327 32 32 32h605.411l-201.37 201.373c-12.498 12.497-12.498 32.758 0 45.255z" />
<glyph unicode="&#xe915;" glyph-name="Arrow-Right-20" d="M363.175 770.946c13.418 11.502 33.62 9.948 45.122-3.471l255.997-298.666c10.276-11.984 10.276-29.666 0-41.652l-255.997-298.665c-11.502-13.42-31.703-14.971-45.122-3.471s-14.972 31.703-3.471 45.123l238.148 277.842-238.148 277.839c-11.502 13.418-9.948 33.62 3.471 45.122z" />
<glyph unicode="&#xe916;" glyph-name="Arrow-Right-24-1" d="M574.707 726.627c12.497 12.497 32.755 12.497 45.252 0l256-256.001c12.497-12.497 12.497-32.755 0-45.252l-256-256c-12.497-12.497-32.755-12.497-45.252 0s-12.497 32.755 0 45.252l201.37 201.374h-605.41c-17.673 0-32 14.327-32 32s14.327 32 32 32h605.41l-201.37 201.373c-12.497 12.497-12.497 32.758 0 45.255z" />
<glyph unicode="&#xe917;" glyph-name="Arrow-Right-24" d="M363.175 770.962c13.418 11.502 33.62 9.947 45.122-3.471l256.002-298.666c10.27-11.985 10.27-29.666 0-41.651l-256.002-298.667c-11.502-13.419-31.703-14.972-45.122-3.473-13.418 11.503-14.973 31.706-3.471 45.124l238.15 277.841-238.15 277.841c-11.502 13.419-9.947 33.62 3.471 45.122z" />
<glyph unicode="&#xe918;" glyph-name="Arrow-Up-16-1" d="M489.373 811.94c12.497 12.497 32.758 12.497 45.254 0l256.003-256c12.493-12.497 12.493-32.758 0-45.255-12.499-12.497-32.762-12.497-45.261 0l-201.37 201.373v-605.414c0-17.67-14.327-32-32-32s-32 14.33-32 32v605.414l-201.373-201.373c-12.497-12.497-32.758-12.497-45.254 0s-12.497 32.758 0 45.255l256 256z" />
<glyph unicode="&#xe919;" glyph-name="Arrow-Up-16" d="M491.174 600.296c11.984 10.271 29.667 10.271 41.651 0l298.67-256c13.414-11.501 14.97-31.701 3.469-45.122s-31.706-14.97-45.12-3.469l-277.844 238.148-277.841-238.148c-13.419-11.501-33.62-9.952-45.122 3.469s-9.948 33.62 3.471 45.122l298.666 256z" />
<glyph unicode="&#xe91a;" glyph-name="Arrow-Up-20-1" d="M489.373 811.977c12.497 12.497 32.76 12.497 45.253 0l256-256c12.498-12.496 12.498-32.758 0-45.255-12.493-12.497-32.758-12.497-45.251 0l-201.375 201.373v-605.41c0-17.674-14.326-32-32-32s-32 14.326-32 32v605.41l-201.373-201.373c-12.497-12.497-32.758-12.497-45.255 0s-12.497 32.758 0 45.255l256 256z" />
<glyph unicode="&#xe91b;" glyph-name="Arrow-Up-20" d="M491.173 600.296c11.983 10.271 29.669 10.271 41.65 0l298.665-256.002c13.42-11.5 14.976-31.703 3.471-45.117-11.5-13.42-31.703-14.976-45.117-3.471l-277.843 238.148-277.841-238.148c-13.418-11.505-33.62-9.948-45.122 3.471-11.502 13.414-9.948 33.618 3.471 45.117l298.667 256.002z" />
<glyph unicode="&#xe91c;" glyph-name="Arrow-Up-24-1" d="M489.374 811.961c12.497 12.497 32.755 12.497 45.252 0l256-256c12.497-12.497 12.497-32.756 0-45.254s-32.755-12.497-45.252 0l-201.374 201.371v-605.412c0-17.673-14.327-32-32-32s-32 14.327-32 32v605.412l-201.373-201.371c-12.497-12.497-32.758-12.497-45.255 0s-12.497 32.757 0 45.254l256.001 256z" />
<glyph unicode="&#xe91d;" glyph-name="Arrow-Up-24" d="M491.174 600.296c11.985 10.272 29.666 10.272 41.651 0l298.667-256.002c13.419-11.499 14.972-31.701 3.473-45.12-11.503-13.419-31.706-14.972-45.124-3.469l-277.841 238.148-277.841-238.148c-13.419-11.503-33.62-9.95-45.122 3.469s-9.947 33.621 3.471 45.12l298.666 256.002z" />
<glyph unicode="&#xe91e;" glyph-name="Bill-List-16" d="M302.881 906.686c2.051-0.001 4.131-0.002 6.243-0.002h405.756c2.112 0 4.192 0.001 6.246 0.002 43.379 0.019 73.235 0.032 98.381-8.717 47.482-16.523 84.352-54.738 100.16-102.879v0c8.365-25.477 8.352-55.764 8.339-100.735 0-2.012-0.006-4.054-0.006-6.127v-597.508c0-62.522-73.683-99.738-122.214-55.328-3.386 3.104-8.179 3.104-11.565 0l-20.614-18.861c-39.603-36.243-99.603-36.243-139.206 0-15.146 13.856-37.649 13.856-52.794 0-39.603-36.243-99.603-36.243-139.206 0-15.146 13.856-37.649 13.856-52.794 0-39.603-36.243-99.603-36.243-139.206 0l-20.612 18.861c-3.391 3.104-8.179 3.104-11.571 0-48.53-44.41-122.215-7.194-122.215 55.328v597.508c0 2.072-0.001 4.115-0.001 6.127-0.016 44.971-0.027 75.258 8.338 100.735 15.806 48.141 52.675 86.356 100.161 102.879 25.144 8.749 55 8.736 98.381 8.717zM309.124 842.684c-52.1 0-70.045-0.447-83.591-5.161-28.133-9.789-50.634-32.693-60.387-62.399-4.74-14.435-5.143-33.47-5.143-86.897v-597.508c0-5.082 2.557-8.186 5.764-9.67 1.671-0.774 3.306-0.973 4.668-0.787 1.201 0.16 2.754 0.678 4.578 2.342 27.848 25.485 70.133 25.485 97.981 0l20.612-18.861c15.146-13.856 37.648-13.856 52.794 0 39.603 36.243 99.603 36.243 139.206 0 15.146-13.856 37.649-13.856 52.794 0 39.603 36.243 99.603 36.243 139.206 0 15.142-13.856 37.645-13.856 52.794 0l20.614 18.861c27.846 25.485 70.131 25.485 97.978 0 1.824-1.664 3.379-2.182 4.582-2.342 1.357-0.186 2.995 0.013 4.666 0.787 3.206 1.485 5.76 4.589 5.76 9.67v597.508c0 53.427-0.403 72.461-5.139 86.897-9.754 29.706-32.256 52.61-60.39 62.399-13.542 4.714-31.488 5.161-83.59 5.161h-405.756zM266.669 640.017c0 17.673 14.327 32 32 32h21.333c17.674 0 32-14.327 32-32s-14.326-32-32-32h-21.333c-17.673 0-32 14.327-32 32zM416.003 640.017c0 17.673 14.327 32 32.001 32h277.334c17.67 0 32-14.327 32-32s-14.33-32-32-32h-277.334c-17.674 0-32.001 14.327-32.001 32zM266.669 490.684c0 17.673 14.327 32 32 32h21.333c17.674 0 32-14.327 32-32s-14.326-32-32-32h-21.333c-17.673 0-32 14.327-32 32zM416.003 490.684c0 17.673 14.327 32 32.001 32h277.334c17.67 0 32-14.327 32-32s-14.33-32-32-32h-277.334c-17.674 0-32.001 14.327-32.001 32zM266.669 341.35c0 17.674 14.327 32 32 32h21.333c17.674 0 32-14.326 32-32s-14.326-32-32-32h-21.333c-17.673 0-32 14.327-32 32zM416.003 341.35c0 17.674 14.327 32 32.001 32h277.334c17.67 0 32-14.326 32-32s-14.33-32-32-32h-277.334c-17.674 0-32.001 14.327-32.001 32z" />
<glyph unicode="&#xe91f;" glyph-name="Bill-List-20" d="M302.881 906.648c2.051-0.001 4.131-0.002 6.242-0.002h405.756c2.115 0 4.193 0.001 6.246 0.002 43.382 0.019 73.236 0.032 98.381-8.717 47.483-16.523 84.352-54.738 100.157-102.88v0c8.366-25.477 8.356-55.763 8.34-100.734 0-2.013 0-4.055 0-6.127v-597.51c0-62.515-73.687-99.732-122.22-55.327-3.389 3.103-8.177 3.103-11.566 0l-20.613-18.862c-39.603-36.239-99.604-36.239-139.208 0-15.145 13.86-37.647 13.86-52.792 0-39.603-36.239-99.603-36.239-139.206 0-15.146 13.86-37.648 13.86-52.795 0-39.602-36.239-99.602-36.239-139.205 0l-20.612 18.862c-3.391 3.103-8.18 3.103-11.571 0-48.53-44.406-122.214-7.188-122.214 55.327v597.51c0 2.072-0.001 4.114-0.002 6.127-0.016 44.971-0.027 75.257 8.337 100.734 15.806 48.142 52.675 86.356 100.162 102.88 25.144 8.749 55 8.736 98.381 8.717zM309.124 842.647c-52.1 0-70.045-0.447-83.591-5.16-28.133-9.789-50.634-32.693-60.387-62.399-4.74-14.435-5.143-33.47-5.143-86.897v-597.51c0-5.079 2.556-8.187 5.764-9.667 1.671-0.773 3.305-0.973 4.667-0.794 1.201 0.164 2.754 0.681 4.578 2.35 27.848 25.482 70.134 25.482 97.981 0l20.612-18.862c15.146-13.86 37.649-13.86 52.795 0 39.603 36.239 99.603 36.239 139.206 0 15.146-13.86 37.648-13.86 52.793 0 39.603 36.239 99.604 36.239 139.208 0 15.145-13.86 37.647-13.86 52.792 0l20.613 18.862c27.848 25.482 70.134 25.482 97.981 0 1.823-1.669 3.379-2.186 4.577-2.35 1.362-0.179 2.995 0.020 4.669 0.794 3.205 1.48 5.765 4.588 5.765 9.667v597.51c0 53.426-0.404 72.461-5.146 86.897-9.754 29.706-32.251 52.61-60.385 62.399-13.548 4.713-31.493 5.16-83.594 5.16h-405.756zM266.67 639.98c0 17.673 14.327 32 32 32h21.334c17.673 0 32-14.327 32-32s-14.327-32-32-32h-21.334c-17.673 0-32 14.327-32 32zM416.003 639.98c0 17.673 14.327 32 32 32h277.332c17.674 0 32-14.327 32-32s-14.326-32-32-32h-277.332c-17.673 0-32 14.327-32 32zM266.67 490.647c0 17.673 14.327 32 32 32h21.334c17.673 0 32-14.327 32-32s-14.327-32-32-32h-21.334c-17.673 0-32 14.327-32 32zM416.003 490.647c0 17.673 14.327 32 32 32h277.332c17.674 0 32-14.327 32-32s-14.326-32-32-32h-277.332c-17.673 0-32 14.327-32 32zM266.67 341.315c0 17.674 14.327 32 32 32h21.334c17.673 0 32-14.326 32-32s-14.327-32-32-32h-21.334c-17.673 0-32 14.326-32 32zM416.003 341.315c0 17.674 14.327 32 32 32h277.332c17.674 0 32-14.326 32-32s-14.326-32-32-32h-277.332c-17.673 0-32 14.326-32 32z" />
<glyph unicode="&#xe920;" glyph-name="Bill-List-24" d="M302.876 906.665c2.050-0.001 4.131-0.002 6.242-0.002h405.757c2.112 0 4.194 0.001 6.242 0.002 43.383 0.019 73.237 0.032 98.381-8.717 47.488-16.523 84.356-54.737 100.164-102.88v0c8.363-25.477 8.354-55.763 8.337-100.734 0-2.013-0.004-4.054-0.004-6.127v-597.511c0-62.515-73.681-99.733-122.214-55.326-3.388 3.102-8.179 3.102-11.567 0l-20.612-18.863c-39.603-36.237-99.605-36.237-139.209 0-15.147 13.862-37.649 13.862-52.791 0-39.603-36.237-99.605-36.237-139.209 0-15.147 13.862-37.647 13.862-52.793 0-39.603-36.237-99.603-36.237-139.206 0l-20.612 18.863c-3.391 3.102-8.18 3.102-11.57 0-48.53-44.407-122.215-7.189-122.215 55.326v597.511c0 2.072-0.001 4.114-0.002 6.127-0.016 44.971-0.027 75.257 8.337 100.734 15.807 48.142 52.675 86.356 100.162 102.88 25.144 8.749 54.999 8.736 98.381 8.717zM309.118 842.663c-52.099 0-70.045-0.448-83.59-5.161-28.134-9.789-50.635-32.693-60.388-62.399-4.739-14.435-5.142-33.47-5.142-86.897v-597.511c0-5.077 2.557-8.183 5.764-9.668 1.671-0.772 3.305-0.973 4.667-0.789 1.201 0.162 2.754 0.678 4.578 2.347 27.848 25.485 70.134 25.485 97.981 0l20.612-18.863c15.146-13.858 37.649-13.858 52.794 0 39.603 36.241 99.604 36.241 139.207 0 15.142-13.858 37.645-13.858 52.791 0 39.603 36.241 99.605 36.241 139.209 0 15.142-13.858 37.645-13.858 52.791 0l20.612 18.863c27.849 25.485 70.135 25.485 97.984 0 1.822-1.668 3.375-2.185 4.578-2.347 1.361-0.183 2.995 0.017 4.663 0.789 3.209 1.485 5.764 4.591 5.764 9.668v597.511c0 53.426-0.401 72.461-5.141 86.897-9.754 29.705-32.252 52.609-60.386 62.399-13.547 4.713-31.492 5.161-83.593 5.161h-405.757zM266.665 639.997c0 17.673 14.327 32 32 32h21.333c17.673 0 32-14.327 32-32s-14.327-32-32-32h-21.333c-17.673 0-32 14.327-32 32zM415.998 639.997c0 17.673 14.325 32 31.998 32h277.333c17.677 0 32-14.327 32-32s-14.323-32-32-32h-277.333c-17.673 0-31.998 14.327-31.998 32zM266.665 490.662c0 17.673 14.327 32 32 32h21.333c17.673 0 32-14.327 32-32s-14.327-32-32-32h-21.333c-17.673 0-32 14.327-32 32zM415.998 490.662c0 17.673 14.325 32 31.998 32h277.333c17.677 0 32-14.327 32-32s-14.323-32-32-32h-277.333c-17.673 0-31.998 14.327-31.998 32zM266.665 341.329c0 17.673 14.327 32 32 32h21.333c17.673 0 32-14.327 32-32s-14.327-32-32-32h-21.333c-17.673 0-32 14.327-32 32zM415.998 341.329c0 17.673 14.325 32 31.998 32h277.333c17.677 0 32-14.327 32-32s-14.323-32-32-32h-277.333c-17.673 0-31.998 14.327-31.998 32z" />
<glyph unicode="&#xe921;" glyph-name="Bold-Activity-16" d="M938.662 746.687c0-70.692-57.306-128-128-128-70.688 0-128 57.308-128 128s57.312 128 128 128c70.694 0 128-57.308 128-128zM666.112 873.055c-43.603 1.632-94.429 1.632-154.109 1.632-201.133 0-301.699 0-364.183-62.484s-62.484-163.050-62.484-364.182c0-201.135 0-301.698 62.484-364.181s163.050-62.483 364.183-62.483c201.13 0 301.7 0 364.183 62.483s62.483 163.046 62.483 364.181c0 59.681 0 110.507-1.632 154.111-33.766-29.543-77.978-47.445-126.368-47.445-106.035 0-191.999 85.962-191.999 192 0 48.391 17.902 92.601 47.443 126.368zM745.824 557.937c13.574-11.314 15.411-31.492 4.096-45.069l-78.029-93.637c-14.016-16.821-26.65-31.985-38.452-42.642-12.84-11.594-29.014-21.921-50.325-21.921s-37.485 10.327-50.325 21.921c-11.801 10.657-24.435 25.821-38.449 42.642l-12.476 14.971c-15.82 18.985-25.535 30.523-33.539 37.75-3.711 3.352-5.914 4.688-6.969 5.199-0.214 0.104-0.367 0.166-0.463 0.202l-0.175-0.070-0.288-0.132c-1.056-0.511-3.258-1.847-6.969-5.199-8.004-7.227-17.719-18.765-33.54-37.75l-76.667-92.001c-11.314-13.577-31.492-15.411-45.069-4.097s-15.412 31.492-4.097 45.069l78.030 93.636c14.015 16.821 26.648 31.985 38.45 42.642 12.84 11.595 29.014 21.921 50.325 21.921s37.485-10.326 50.325-21.921c11.801-10.657 24.435-25.821 38.45-42.642l12.476-14.971c15.82-18.985 25.535-30.523 33.539-37.75 3.711-3.352 5.914-4.687 6.969-5.198l0.137-0.065c0.144-0.067 0.326-0.138 0.326-0.138 0.097 0.036 0.25 0.099 0.463 0.202 1.056 0.511 3.258 1.846 6.969 5.198 8.004 7.227 17.719 18.765 33.54 37.75l76.669 92.001c11.309 13.577 31.488 15.411 45.069 4.097z" />
<glyph unicode="&#xe922;" glyph-name="Bold-Activity-20" d="M938.665 746.65c0-70.692-57.308-128-128-128s-128 57.308-128 128c0 70.692 57.308 128 128 128s128-57.308 128-128zM666.112 873.018c-43.602 1.632-94.428 1.632-154.112 1.632-201.132 0-301.698 0-364.182-62.484s-62.484-163.050-62.484-364.182c0-201.134 0-301.701 62.484-364.186s163.050-62.484 364.182-62.484c201.134 0 301.701 0 364.186 62.484s62.484 163.052 62.484 364.186c0 59.679 0 110.505-1.633 154.11-33.766-29.542-77.978-47.444-126.367-47.444-106.040 0-192 85.961-192 192 0 48.391 17.9 92.6 47.442 126.368zM745.82 557.9c13.578-11.314 15.411-31.492 4.096-45.069l-78.029-93.636c-14.013-16.824-26.65-31.985-38.451-42.644-12.841-11.592-29.010-21.919-50.324-21.919-21.309 0-37.484 10.327-50.324 21.919-11.802 10.66-24.435 25.82-38.45 42.644l-12.476 14.971c-15.82 18.984-25.535 30.522-33.539 37.749-3.712 3.352-5.914 4.688-6.969 5.198-0.215 0.104-0.367 0.166-0.464 0.202l-0.175-0.070-0.288-0.132c-1.056-0.51-3.257-1.846-6.969-5.198-8.004-7.227-17.719-18.765-33.54-37.749l-76.667-92.001c-11.314-13.578-31.492-15.411-45.069-4.096-13.577 11.31-15.411 31.488-4.097 45.066l78.030 93.638c14.015 16.821 26.649 31.986 38.45 42.642 12.84 11.595 29.014 21.922 50.325 21.922s37.485-10.327 50.325-21.922c11.802-10.656 24.436-25.821 38.449-42.641l12.477-14.971c15.821-18.983 25.533-30.524 33.536-37.748 3.712-3.354 5.914-4.69 6.973-5.202l0.133-0.061c0.143-0.067 0.328-0.138 0.328-0.138 0.097 0.036 0.251 0.097 0.466 0.2 1.055 0.512 3.256 1.848 6.968 5.202 8.003 7.224 17.715 18.765 33.536 37.748l76.667 92.001c11.315 13.577 31.493 15.411 45.071 4.097z" />
<glyph unicode="&#xe923;" glyph-name="Bold-Activity-24" d="M938.667 746.667c0-70.692-57.306-128-128-128s-128 57.308-128 128c0 70.692 57.306 128 128 128s128-57.308 128-128zM666.112 873.034c-43.605 1.632-94.43 1.632-154.112 1.632-201.133 0-301.699 0-364.183-62.484s-62.484-163.050-62.484-364.183c0-201.131 0-301.7 62.484-364.181 62.484-62.485 163.050-62.485 364.183-62.485 201.131 0 301.7 0 364.181 62.485 62.485 62.481 62.485 163.051 62.485 364.181 0 59.682 0 110.507-1.634 154.111-33.766-29.542-77.973-47.444-126.366-47.444-106.039 0-192 85.961-192 192 0 48.391 17.903 92.601 47.445 126.368zM745.818 557.917c13.577-11.314 15.411-31.491 4.1-45.068l-78.033-93.641c-14.012-16.819-26.645-31.983-38.447-42.641-12.843-11.593-29.013-21.922-50.325-21.922s-37.487 10.33-50.325 21.922c-11.802 10.658-24.435 25.822-38.451 42.641l-12.476 14.972c-15.821 18.987-25.536 30.524-33.54 37.751-3.712 3.349-5.914 4.689-6.967 5.197-0.213 0.107-0.367 0.166-0.465 0.205l-0.175-0.073-0.286-0.132c-1.058-0.508-3.26-1.847-6.972-5.197-8.002-7.228-17.717-18.765-33.538-37.751l-76.667-91.998c-11.314-13.577-31.492-15.411-45.069-4.1-13.577 11.315-15.411 31.492-4.097 45.069l78.031 93.636c14.014 16.823 26.649 31.987 38.45 42.645 12.84 11.593 29.013 21.92 50.324 21.92s37.487-10.327 50.325-21.92c11.802-10.658 24.435-25.822 38.451-42.641l12.476-14.972c15.821-18.987 25.536-30.524 33.54-37.751 3.712-3.349 5.914-4.689 6.967-5.197l0.137-0.064c0.145-0.068 0.329-0.141 0.329-0.141 0.094 0.038 0.247 0.098 0.461 0.205 1.058 0.508 3.26 1.847 6.972 5.197 8 7.228 17.719 18.765 33.536 37.751l76.668 92c11.315 13.577 31.492 15.411 45.069 4.097z" />
<glyph unicode="&#xe924;" glyph-name="Bold-Arrow-Down-16" d="M527.807 284.39l274.331 282.898c17.12 17.652 6.746 51.399-15.802 51.399h-548.667c-22.546 0-32.922-33.747-15.804-51.399l274.333-282.898c9.094-9.382 22.514-9.382 31.608 0z" />
<glyph unicode="&#xe925;" glyph-name="Bold-Arrow-Down-20" d="M527.8 284.349l274.335 282.902c17.116 17.652 6.743 51.399-15.805 51.399h-548.665c-22.546 0-32.922-33.747-15.804-51.399l274.334-282.902c9.094-9.38 22.513-9.38 31.606 0z" />
<glyph unicode="&#xe926;" glyph-name="Bold-Arrow-Down-24" d="M527.804 284.369l274.334 282.898c17.118 17.652 6.741 51.399-15.804 51.399h-548.668c-22.545 0-32.922-33.747-15.804-51.399l274.334-282.898c9.092-9.378 22.515-9.378 31.607 0z" />
<glyph unicode="&#xe927;" glyph-name="Bold-Arrow-Left-16" d="M348.364 463.783l282.9 274.334c17.651 17.117 51.398 6.742 51.398-15.804v-548.668c0-22.547-33.747-32.922-51.398-15.802l-282.9 274.332c-9.378 9.094-9.378 22.513 0 31.608z" />
<glyph unicode="&#xe928;" glyph-name="Bold-Arrow-Left-20" d="M348.369 463.821l282.902 274.334c17.654 17.118 51.4 6.742 51.4-15.804v-548.67c0-22.543-33.746-32.922-51.4-15.8l-282.902 274.335c-9.378 9.093-9.378 22.512 0 31.606z" />
<glyph unicode="&#xe929;" glyph-name="Bold-Arrow-Left-24" d="M348.367 463.804l282.899 274.334c17.655 17.118 51.401 6.742 51.401-15.804v-548.668c0-22.545-33.745-32.922-51.401-15.804l-282.899 274.334c-9.378 9.092-9.378 22.515 0 31.607z" />
<glyph unicode="&#xe92a;" glyph-name="Bold-Arrow-Right-16" d="M675.635 463.825l-282.9 274.334c-17.652 17.118-51.4 6.742-51.4-15.804v-548.665c0-22.547 33.747-32.922 51.4-15.808l282.9 274.335c9.376 9.094 9.376 22.514 0 31.608z" />
<glyph unicode="&#xe92b;" glyph-name="Bold-Arrow-Right-20" d="M675.63 463.788l-282.899 274.334c-17.653 17.118-51.399 6.742-51.399-15.804v-548.667c0-22.548 33.746-32.922 51.399-15.805l282.899 274.335c9.38 9.093 9.38 22.514 0 31.608z" />
<glyph unicode="&#xe92c;" glyph-name="Bold-Arrow-Right-24" d="M675.631 463.804l-282.898 274.334c-17.652 17.118-51.399 6.742-51.399-15.804v-548.668c0-22.545 33.747-32.922 51.399-15.804l282.898 274.334c9.382 9.092 9.378 22.515 0 31.607z" />
<glyph unicode="&#xe92d;" glyph-name="Bold-Arrow-Up-16" d="M527.807 611.654l274.331-282.9c17.12-17.649 6.746-51.396-15.802-51.396h-548.667c-22.546 0-32.922 33.747-15.804 51.396l274.333 282.9c9.094 9.379 22.514 9.379 31.608 0z" />
<glyph unicode="&#xe92e;" glyph-name="Bold-Arrow-Up-20" d="M527.8 611.616l274.335-282.902c17.116-17.649 6.743-51.4-15.805-51.4h-548.665c-22.546 0-32.922 33.751-15.804 51.4l274.334 282.902c9.094 9.378 22.513 9.378 31.606 0z" />
<glyph unicode="&#xe92f;" glyph-name="Bold-Arrow-Up-24" d="M527.804 611.633l274.334-282.899c17.118-17.655 6.741-51.401-15.804-51.401h-548.668c-22.545 0-32.922 33.745-15.804 51.401l274.334 282.899c9.092 9.378 22.515 9.378 31.607 0z" />
<glyph unicode="&#xe930;" glyph-name="Bold-Bill-List-16" d="M309.121 874.687h405.759c49.446 0 74.17 0 94.106-6.938 37.811-13.156 67.494-43.716 80.275-82.639 6.739-20.526 6.739-45.977 6.739-96.879v-597.512c0-36.614-42.029-56.045-68.614-31.718-15.616 14.291-39.155 14.291-54.771 0l-20.614-18.861c-27.373-25.050-68.627-25.050-96 0s-68.626 25.050-96 0-68.626-25.050-96 0-68.626 25.050-96 0-68.626-25.050-96 0l-20.612 18.861c-15.62 14.291-39.156 14.291-54.776 0-26.586-24.326-68.612-4.896-68.612 31.718v597.512c0 50.902 0 76.353 6.739 96.879 12.78 38.924 42.465 69.483 80.275 82.639 19.939 6.938 44.662 6.938 94.107 6.938zM298.667 672.021c-17.674 0-32-14.327-32-32s14.326-32 32-32h21.333c17.673 0 32 14.326 32 32s-14.327 32-32 32h-21.333zM448 672.021c-17.673 0-32-14.327-32-32s14.327-32 32-32h277.331c17.677 0 32 14.326 32 32s-14.323 32-32 32h-277.331zM298.667 522.687c-17.674 0-32-14.327-32-32s14.326-32 32-32h21.333c17.673 0 32 14.327 32 32s-14.327 32-32 32h-21.333zM448 522.687c-17.673 0-32-14.327-32-32s14.327-32 32-32h277.331c17.677 0 32 14.327 32 32s-14.323 32-32 32h-277.331zM298.667 373.354c-17.674 0-32-14.327-32-32s14.326-31.997 32-31.997h21.333c17.673 0 32 14.324 32 31.997s-14.327 32-32 32h-21.333zM448 373.354c-17.673 0-32-14.327-32-32s14.327-31.997 32-31.997h277.331c17.677 0 32 14.324 32 31.997s-14.323 32-32 32h-277.331z" />
<glyph unicode="&#xe931;" glyph-name="Bold-Bill-List-20" d="M309.121 874.65h405.759c49.444 0 74.168 0 94.106-6.938 37.811-13.156 67.497-43.716 80.276-82.639 6.738-20.527 6.738-45.978 6.738-96.879v-597.509c0-36.618-42.025-56.049-68.613-31.718-15.616 14.29-39.158 14.29-54.774 0l-20.613-18.862c-27.377-25.052-68.623-25.052-96 0-27.377 25.047-68.623 25.047-96 0-27.377-25.052-68.625-25.052-96 0-27.375 25.047-68.625 25.047-96 0-27.375-25.052-68.625-25.052-96 0l-20.612 18.862c-15.619 14.29-39.157 14.29-54.776 0-26.586-24.33-68.612-4.9-68.612 31.718v597.509c0 50.902 0 76.353 6.739 96.879 12.78 38.923 42.465 69.483 80.274 82.639 19.939 6.938 44.662 6.938 94.107 6.938zM298.666 671.983c-17.673 0-32-14.327-32-32s14.327-32 32-32h21.334c17.673 0 32 14.327 32 32s-14.327 32-32 32h-21.334zM448 671.983c-17.673 0-32-14.327-32-32s14.327-32 32-32h277.335c17.669 0 32 14.327 32 32s-14.331 32-32 32h-277.335zM298.666 522.65c-17.673 0-32-14.327-32-32s14.327-32 32-32h21.334c17.673 0 32 14.327 32 32s-14.327 32-32 32h-21.334zM448 522.65c-17.673 0-32-14.327-32-32s14.327-32 32-32h277.335c17.669 0 32 14.327 32 32s-14.331 32-32 32h-277.335zM298.666 373.315c-17.673 0-32-14.326-32-32 0-17.669 14.327-32 32-32h21.334c17.673 0 32 14.331 32 32 0 17.674-14.327 32-32 32h-21.334zM448 373.315c-17.673 0-32-14.326-32-32 0-17.669 14.327-32 32-32h277.335c17.669 0 32 14.331 32 32 0 17.674-14.331 32-32 32h-277.335z" />
<glyph unicode="&#xe932;" glyph-name="Bold-Bill-List-24" d="M309.121 874.667h405.759c49.446 0 74.167 0 94.106-6.938 37.811-13.156 67.494-43.715 80.273-82.639 6.741-20.527 6.741-45.977 6.741-96.879v-597.51c0-36.617-42.027-56.047-68.612-31.718-15.62 14.293-39.155 14.293-54.775 0l-20.612-18.863c-27.375-25.050-68.625-25.050-96 0s-68.625 25.050-96 0c-27.375-25.050-68.625-25.050-96 0s-68.625 25.050-96 0c-27.375-25.050-68.625-25.050-96 0l-20.612 18.863c-15.619 14.293-39.156 14.293-54.775 0-26.586-24.329-68.612-4.898-68.612 31.718v597.51c0 50.902 0 76.352 6.739 96.879 12.78 38.924 42.465 69.483 80.275 82.639 19.939 6.938 44.661 6.938 94.107 6.938zM298.667 672c-17.673 0-32-14.327-32-32s14.327-32 32-32h21.333c17.673 0 32 14.327 32 32s-14.327 32-32 32h-21.333zM448 672c-17.673 0-32-14.327-32-32s14.327-32 32-32h277.333c17.673 0 32 14.327 32 32s-14.327 32-32 32h-277.333zM298.667 522.667c-17.673 0-32-14.327-32-32s14.327-32 32-32h21.333c17.673 0 32 14.327 32 32s-14.327 32-32 32h-21.333zM448 522.667c-17.673 0-32-14.327-32-32s14.327-32 32-32h277.333c17.673 0 32 14.327 32 32s-14.327 32-32 32h-277.333zM298.667 373.333c-17.673 0-32-14.327-32-32s14.327-32 32-32h21.333c17.673 0 32 14.327 32 32s-14.327 32-32 32h-21.333zM448 373.333c-17.673 0-32-14.327-32-32s14.327-32 32-32h277.333c17.673 0 32 14.327 32 32s-14.327 32-32 32h-277.333z" />
<glyph unicode="&#xe933;" glyph-name="Bold-Calendar-16" d="M330.669 853.313c0 17.673-14.327 32-32 32s-32-14.327-32-32v-67.382c-61.412-4.918-101.727-16.986-131.347-46.605s-41.688-69.935-46.605-131.347h846.572c-4.922 61.412-16.986 101.727-46.605 131.347s-69.939 41.688-131.347 46.605v67.382c0 17.673-14.33 32-32 32-17.677 0-32-14.327-32-32v-64.55c-28.384 0.55-60.203 0.55-96.002 0.55h-170.666c-35.799 0-67.615 0-96-0.55v64.55zM85.336 447.979c0 35.799 0 67.615 0.551 96h852.232c0.55-28.385 0.55-60.201 0.55-96v-85.333c0-160.905 0-241.359-49.984-291.343-49.99-49.99-130.445-49.99-291.349-49.99h-170.666c-160.906 0-241.359 0-291.347 49.99-49.987 49.984-49.987 130.438-49.987 291.343v85.333zM725.338 362.646c23.565 0 42.662 19.103 42.662 42.667s-19.098 42.666-42.662 42.666c-23.565 0-42.669-19.102-42.669-42.666s19.104-42.667 42.669-42.667zM725.338 191.981c23.565 0 42.662 19.104 42.662 42.662 0 23.565-19.098 42.669-42.662 42.669s-42.669-19.104-42.669-42.669c0-23.558 19.104-42.662 42.669-42.662zM554.669 405.313c0-23.564-19.103-42.667-42.667-42.667s-42.667 19.103-42.667 42.667c0 23.564 19.103 42.666 42.667 42.666s42.667-19.102 42.667-42.666zM554.669 234.643c0-23.558-19.103-42.662-42.667-42.662s-42.667 19.104-42.667 42.662c0 23.565 19.103 42.669 42.667 42.669s42.667-19.104 42.667-42.669zM298.669 362.646c23.564 0 42.666 19.103 42.666 42.667s-19.102 42.666-42.666 42.666c-23.564 0-42.667-19.102-42.667-42.666s19.103-42.667 42.667-42.667zM298.669 191.981c23.564 0 42.666 19.104 42.666 42.662 0 23.565-19.102 42.669-42.666 42.669s-42.667-19.104-42.667-42.669c0-23.558 19.103-42.662 42.667-42.662z" />
<glyph unicode="&#xe934;" glyph-name="Bold-Calendar-20" d="M330.664 853.35c0 17.673-14.327 32-32 32s-32-14.327-32-32v-67.382c-61.411-4.917-101.727-16.986-131.346-46.605s-41.688-69.935-46.606-131.346h846.568c-4.915 61.411-16.983 101.727-46.602 131.346s-69.934 41.688-131.348 46.605v67.382c0 17.673-14.326 32-32 32s-32-14.327-32-32v-64.55c-28.385 0.55-60.201 0.55-96 0.55h-170.665c-35.799 0-67.615 0-96-0.55v64.55zM85.331 448.017c0 35.799 0 67.615 0.55 96h852.23c0.553-28.385 0.553-60.201 0.553-96v-85.331c0-160.906 0-241.362-49.987-291.348s-130.442-49.987-291.348-49.987h-170.665c-160.906 0-241.359 0-291.346 49.987s-49.987 130.442-49.987 291.348v85.331zM725.33 362.685c23.567 0 42.67 19.103 42.67 42.665s-19.103 42.666-42.67 42.666c-23.562 0-42.665-19.104-42.665-42.666s19.103-42.665 42.665-42.665zM725.33 192.015c23.567 0 42.67 19.103 42.67 42.67 0 23.562-19.103 42.665-42.67 42.665-23.562 0-42.665-19.103-42.665-42.665 0-23.567 19.103-42.67 42.665-42.67zM554.665 405.35c0-23.562-19.103-42.665-42.667-42.665s-42.666 19.103-42.666 42.665c0 23.562 19.102 42.666 42.666 42.666s42.667-19.104 42.667-42.666zM554.665 234.685c0-23.567-19.103-42.67-42.667-42.67s-42.666 19.103-42.666 42.67c0 23.562 19.102 42.665 42.666 42.665s42.667-19.103 42.667-42.665zM298.664 362.685c23.564 0 42.667 19.103 42.667 42.665s-19.103 42.666-42.667 42.666c-23.564 0-42.666-19.104-42.666-42.666s19.103-42.665 42.666-42.665zM298.664 192.015c23.564 0 42.667 19.103 42.667 42.67 0 23.562-19.103 42.665-42.667 42.665s-42.666-19.103-42.666-42.665c0-23.567 19.103-42.67 42.666-42.67z" />
<glyph unicode="&#xe935;" glyph-name="Bold-Calendar-24" d="M330.667 853.333c0 17.673-14.327 32-32 32s-32-14.327-32-32v-67.382c-61.411-4.917-101.727-16.986-131.346-46.605s-41.688-69.935-46.605-131.346h846.568c-4.915 61.411-16.986 101.727-46.605 131.346s-69.935 41.688-131.345 46.605v67.382c0 17.673-14.327 32-32 32s-32-14.327-32-32v-64.55c-28.386 0.55-60.203 0.55-96 0.55h-170.667c-35.799 0-67.615 0-96-0.55v64.55zM85.333 448c0 35.797 0 67.614 0.55 96h852.233c0.55-28.386 0.55-60.203 0.55-96v-85.333c0-160.905 0-241.361-49.988-291.345-49.984-49.988-130.441-49.988-291.345-49.988h-170.667c-160.906 0-241.359 0-291.346 49.988-49.987 49.984-49.987 130.441-49.987 291.345v85.333zM725.333 362.667c23.565 0 42.667 19.102 42.667 42.667s-19.102 42.667-42.667 42.667c-23.565 0-42.667-19.102-42.667-42.667s19.102-42.667 42.667-42.667zM725.333 192c23.565 0 42.667 19.102 42.667 42.667s-19.102 42.667-42.667 42.667c-23.565 0-42.667-19.102-42.667-42.667s19.102-42.667 42.667-42.667zM554.667 405.333c0-23.565-19.102-42.667-42.667-42.667s-42.667 19.102-42.667 42.667c0 23.565 19.102 42.667 42.667 42.667s42.667-19.102 42.667-42.667zM554.667 234.667c0-23.565-19.102-42.667-42.667-42.667s-42.667 19.102-42.667 42.667c0 23.565 19.102 42.667 42.667 42.667s42.667-19.102 42.667-42.667zM298.667 362.667c23.564 0 42.667 19.102 42.667 42.667s-19.103 42.667-42.667 42.667c-23.564 0-42.667-19.102-42.667-42.667s19.103-42.667 42.667-42.667zM298.667 192c23.564 0 42.667 19.102 42.667 42.667s-19.103 42.667-42.667 42.667c-23.564 0-42.667-19.102-42.667-42.667s19.103-42.667 42.667-42.667z" />
<glyph unicode="&#xe936;" glyph-name="Bold-Call-Cancel-16" d="M660.038 811.94c12.493 12.497 32.755 12.497 45.254 0l62.707-62.706 62.701 62.705c12.499 12.497 32.762 12.497 45.254 0 12.499-12.497 12.499-32.758 0-45.255l-62.701-62.705 62.701-62.705c12.499-12.497 12.499-32.758 0-45.254-12.493-12.497-32.755-12.497-45.254 0l-62.701 62.705-62.707-62.705c-12.499-12.497-32.762-12.497-45.254 0-12.499 12.497-12.499 32.758 0 45.254l62.707 62.706-62.707 62.706c-12.499 12.497-12.499 32.758 0 45.255zM663.731 339.298l-19.437-20.456c0 0-46.188-48.634-172.268 84.107-126.080 132.739-79.889 181.368-79.889 181.368l12.237 12.884c30.146 31.738 32.988 82.694 6.687 119.894l-53.802 76.095c-32.554 46.042-95.458 52.124-132.771 12.842l-66.97-70.506c-18.501-19.478-30.899-44.728-29.395-72.739 3.846-71.66 34.467-225.839 205.332-405.731 181.196-190.765 351.21-198.342 420.733-191.482 21.99 2.17 41.114 14.029 56.525 30.253l60.608 63.814c40.915 43.072 29.382 116.915-22.97 147.046l-81.51 46.92c-34.374 19.784-76.25 13.972-103.11-14.31z" />
<glyph unicode="&#xe937;" glyph-name="Bold-Call-Cancel-20" d="M660.040 811.977c12.498 12.497 32.758 12.497 45.256 0l62.705-62.706 62.71 62.706c12.493 12.497 32.758 12.497 45.251 0 12.498-12.497 12.498-32.758 0-45.255l-62.705-62.706 62.705-62.705c12.498-12.496 12.498-32.758 0-45.255-12.493-12.497-32.758-12.497-45.251 0l-62.71 62.705-62.705-62.705c-12.493-12.497-32.758-12.497-45.256 0-12.493 12.496-12.493 32.758 0 45.255l62.71 62.706-62.71 62.706c-12.493 12.497-12.493 32.758 0 45.255zM663.731 339.297l-19.436-20.46c0 0-46.188-48.63-172.269 84.111-126.081 132.738-79.89 181.368-79.89 181.368l12.237 12.883c30.147 31.738 32.988 82.695 6.687 119.894l-53.802 76.095c-32.553 46.042-95.458 52.124-132.77 12.841l-66.97-70.506c-18.501-19.478-30.899-44.728-29.395-72.738 3.846-71.66 34.467-225.841 205.332-405.727 181.197-190.766 351.212-198.349 420.731-191.483 21.99 2.166 41.119 14.029 56.53 30.254l60.611 63.811c40.909 43.069 29.373 116.915-22.973 147.046l-81.51 46.92c-34.376 19.784-76.252 13.972-103.112-14.31z" />
<glyph unicode="&#xe938;" glyph-name="Bold-Call-Cancel-24" d="M660.041 811.961c12.497 12.497 32.755 12.497 45.252 0l62.707-62.706 62.707 62.705c12.497 12.497 32.755 12.497 45.252 0s12.497-32.758 0-45.255l-62.703-62.705 62.703-62.705c12.497-12.497 12.497-32.758 0-45.255s-32.759-12.497-45.252 0l-62.707 62.705-62.707-62.705c-12.493-12.497-32.755-12.497-45.252 0s-12.497 32.758 0 45.255l62.703 62.705-62.703 62.706c-12.497 12.497-12.497 32.758 0 45.255zM663.731 339.298l-19.435-20.459c0 0-46.191-48.631-172.271 84.109s-79.889 181.369-79.889 181.369l12.238 12.884c30.147 31.738 32.989 82.694 6.687 119.894l-53.802 76.095c-32.554 46.042-95.458 52.125-132.771 12.842l-66.97-70.507c-18.501-19.478-30.899-44.728-29.396-72.738 3.846-71.66 34.467-225.837 205.332-405.728 181.194-190.763 351.208-198.345 420.733-191.484 21.99 2.172 41.114 14.029 56.525 30.255l60.612 63.812c40.913 43.072 29.376 116.915-22.972 147.046l-81.515 46.921c-34.372 19.785-76.245 13.973-103.108-14.31z" />
<glyph unicode="&#xe939;" glyph-name="Bold-Call-Chat-16" d="M621.066 296.608l-19.432-20.454c0 0-46.191-48.634-172.271 84.107-126.081 132.739-79.89 181.369-79.89 181.369l12.237 12.884c30.147 31.738 32.988 82.694 6.687 119.894l-53.802 76.095c-32.553 46.042-95.458 52.124-132.77 12.842l-66.97-70.507c-18.501-19.478-30.899-44.728-29.396-72.738 3.846-71.66 34.467-225.839 205.332-405.725 181.196-190.771 351.212-198.349 420.735-191.488 21.99 2.17 41.114 14.029 56.525 30.253l60.608 63.814c40.915 43.072 29.376 116.915-22.97 147.046l-81.51 46.918c-34.374 19.786-76.25 13.974-103.114-14.31zM725.331 448.021c117.818 0 213.331 95.512 213.331 213.333s-95.514 213.333-213.331 213.333c-117.821 0-213.334-95.512-213.334-213.333 0-34.127 8.013-66.381 22.26-94.986 3.786-7.601 5.046-16.29 2.851-24.493l-12.706-47.489c-5.516-20.616 13.344-39.475 33.959-33.96l47.489 12.707c8.204 2.195 16.892 0.935 24.494-2.851 28.605-14.248 60.861-22.26 94.986-22.26z" />
<glyph unicode="&#xe93a;" glyph-name="Bold-Call-Chat-20" d="M621.061 296.648l-19.43-20.46c0 0-46.193-48.63-172.273 84.111-126.080 132.738-79.889 181.367-79.889 181.367l12.237 12.884c30.146 31.738 32.988 82.694 6.687 119.894l-53.802 76.095c-32.553 46.042-95.458 52.124-132.77 12.841l-66.97-70.506c-18.501-19.478-30.899-44.728-29.396-72.738 3.847-71.66 34.467-225.841 205.332-405.727 181.196-190.766 351.21-198.349 420.734-191.488 21.99 2.171 41.114 14.034 56.525 30.259l60.611 63.811c40.914 43.069 29.379 116.915-22.968 147.046l-81.516 46.92c-34.371 19.784-76.247 13.972-103.112-14.31zM725.335 447.985c117.821 0 213.335 95.511 213.335 213.332s-95.514 213.334-213.335 213.334c-117.821 0-213.335-95.513-213.335-213.334 0-34.126 8.013-66.381 22.262-94.986 3.789-7.601 5.048-16.29 2.852-24.494l-12.708-47.489c-5.514-20.615 13.348-39.475 33.961-33.959l47.488 12.706c8.202 2.195 16.891 0.935 24.494-2.851 28.605-14.247 60.861-22.259 94.986-22.259z" />
<glyph unicode="&#xe93b;" glyph-name="Bold-Call-Chat-24" d="M621.065 296.631l-19.435-20.459c0 0-46.191-48.631-172.271 84.109s-79.889 181.369-79.889 181.369l12.238 12.884c30.146 31.738 32.988 82.694 6.687 119.894l-53.802 76.096c-32.554 46.042-95.458 52.124-132.771 12.841l-66.97-70.507c-18.501-19.478-30.899-44.728-29.396-72.738 3.846-71.66 34.467-225.837 205.332-405.728 181.194-190.763 351.208-198.345 420.733-191.484 21.99 2.172 41.114 14.029 56.525 30.255l60.612 63.812c40.913 43.072 29.376 116.915-22.972 147.046l-81.515 46.921c-34.372 19.785-76.245 13.973-103.108-14.31zM725.333 448c117.82 0 213.333 95.513 213.333 213.333s-95.514 213.333-213.333 213.333c-117.82 0-213.333-95.513-213.333-213.333 0-34.127 8.013-66.382 22.259-94.986 3.789-7.601 5.047-16.29 2.854-24.494l-12.706-47.488c-5.517-20.617 13.342-39.475 33.958-33.958l47.488 12.706c8.205 2.193 16.892 0.934 24.495-2.854 28.604-14.246 60.86-22.259 94.985-22.259z" />
<glyph unicode="&#xe93c;" d="M597.336 789.313h-170.666c-160.906 0-241.359 0-291.347-49.987-35.991-35.991-46.068-87.776-48.89-174.013h851.141c-2.822 86.237-12.902 138.022-48.89 174.013-49.99 49.987-130.445 49.987-291.349 49.987z" />
<glyph unicode="&#xe93d;" d="M426.669 106.643h170.666c160.904 0 241.359 0 291.349 49.99 49.984 49.984 49.984 130.438 49.984 291.345 0 18.856 0 36.607-0.077 53.334h-853.176c-0.081-16.727-0.081-34.477-0.081-53.334 0-160.907 0-241.361 49.987-291.345 49.987-49.99 130.44-49.99 291.347-49.99z" />
<glyph unicode="&#xe93e;" d="M224.003 277.312c0 17.677 14.327 32 32 32h170.667c17.673 0 32-14.323 32-32 0-17.67-14.327-32-32-32h-170.667c-17.673 0-32 14.33-32 32z" />
<glyph unicode="&#xe93f;" d="M501.336 277.312c0 17.677 14.327 32 32 32h64c17.674 0 32-14.323 32-32 0-17.67-14.326-32-32-32h-64c-17.673 0-32 14.33-32 32z" />
<glyph unicode="&#xe940;" d="M597.33 789.35h-170.665c-160.906 0-241.359 0-291.346-49.987-35.991-35.991-46.069-87.776-48.89-174.013h851.141c-2.821 86.237-12.902 138.022-48.891 174.013-49.987 49.987-130.442 49.987-291.348 49.987z" />
<glyph unicode="&#xe941;" d="M426.664 106.685h170.665c160.906 0 241.362 0 291.348 49.987s49.987 130.437 49.987 291.345c0 18.855 0 36.606-0.082 53.333h-853.171c-0.080-16.727-0.080-34.478-0.080-53.333 0-160.908 0-241.358 49.987-291.345s130.44-49.987 291.346-49.987z" />
<glyph unicode="&#xe942;" d="M223.998 277.35c0 17.674 14.327 32 32 32h170.666c17.673 0 32-14.326 32-32s-14.327-32-32-32h-170.666c-17.673 0-32 14.326-32 32z" />
<glyph unicode="&#xe943;" d="M501.331 277.35c0 17.674 14.324 32 31.998 32h64c17.674 0 32-14.326 32-32s-14.326-32-32-32h-64c-17.674 0-31.998 14.326-31.998 32z" />
<glyph unicode="&#xe944;" d="M597.333 789.333h-170.667c-160.906 0-241.359 0-291.346-49.987-35.991-35.991-46.068-87.776-48.89-174.013h851.139c-2.82 86.237-12.898 138.022-48.892 174.013-49.984 49.987-130.441 49.987-291.345 49.987z" />
<glyph unicode="&#xe945;" d="M426.667 106.667h170.667c160.905 0 241.361 0 291.345 49.988 49.988 49.984 49.988 130.441 49.988 291.345 0 18.854 0 36.608-0.081 53.333h-853.172c-0.081-16.725-0.081-34.479-0.081-53.333 0-160.905 0-241.361 49.987-291.345 49.987-49.988 130.44-49.988 291.346-49.988z" />
<glyph unicode="&#xe946;" d="M224 277.333c0 17.673 14.327 32 32 32h170.667c17.673 0 32-14.327 32-32s-14.327-32-32-32h-170.667c-17.673 0-32 14.327-32 32z" />
<glyph unicode="&#xe947;" d="M501.333 277.333c0 17.673 14.327 32 32 32h64c17.673 0 32-14.327 32-32s-14.327-32-32-32h-64c-17.673 0-32 14.327-32 32z" />
<glyph unicode="&#xe948;" glyph-name="Bold-category-16" d="M85.336 682.687c0 90.51 0 135.764 28.118 163.882s73.373 28.118 163.882 28.118c90.51 0 135.764 0 163.882-28.118s28.118-73.372 28.118-163.882c0-90.509 0-135.764-28.118-163.882s-73.372-28.118-163.882-28.118c-90.509 0-135.764 0-163.882 28.118s-28.118 73.373-28.118 163.882zM554.664 213.312c0 90.509 0 135.765 28.118 163.883s73.372 28.118 163.88 28.118c90.509 0 135.763 0 163.885-28.118 28.115-28.118 28.115-73.374 28.115-163.883s0-135.763-28.115-163.885c-28.122-28.115-73.376-28.115-163.885-28.115s-135.763 0-163.88 28.115c-28.118 28.122-28.118 73.376-28.118 163.885zM85.336 213.312c0 90.509 0 135.765 28.118 163.883s73.373 28.118 163.882 28.118c90.51 0 135.764 0 163.882-28.118s28.118-73.374 28.118-163.883c0-90.509 0-135.763-28.118-163.885-28.118-28.115-73.372-28.115-163.882-28.115s-135.764 0-163.882 28.115c-28.118 28.122-28.118 73.376-28.118 163.885zM554.664 682.687c0 90.51 0 135.764 28.118 163.882s73.372 28.118 163.88 28.118c90.509 0 135.763 0 163.885-28.118 28.115-28.118 28.115-73.372 28.115-163.882s0-135.764-28.115-163.882c-28.122-28.118-73.376-28.118-163.885-28.118s-135.763 0-163.88 28.118c-28.118 28.118-28.118 73.373-28.118 163.882z" />
<glyph unicode="&#xe949;" glyph-name="Bold-category-20" d="M85.331 682.65c0 90.509 0 135.764 28.118 163.882s73.373 28.118 163.882 28.118c90.509 0 135.764 0 163.882-28.118s28.118-73.373 28.118-163.882c0-90.51 0-135.764-28.118-163.882s-73.373-28.118-163.882-28.118c-90.51 0-135.764 0-163.882 28.118s-28.118 73.373-28.118 163.882zM554.67 213.35c0 90.511 0 135.762 28.114 163.881 28.119 28.119 73.375 28.119 163.886 28.119 90.506 0 135.762 0 163.881-28.119s28.119-73.37 28.119-163.881c0-90.511 0-135.767-28.119-163.881-28.119-28.119-73.375-28.119-163.881-28.119-90.511 0-135.767 0-163.886 28.119-28.114 28.114-28.114 73.37-28.114 163.881zM85.331 213.35c0 90.511 0 135.762 28.118 163.881s73.373 28.119 163.882 28.119c90.509 0 135.764 0 163.882-28.119s28.118-73.37 28.118-163.881c0-90.511 0-135.767-28.118-163.881-28.118-28.119-73.373-28.119-163.882-28.119s-135.764 0-163.882 28.119c-28.118 28.114-28.118 73.37-28.118 163.881zM554.67 682.65c0 90.509 0 135.764 28.114 163.882 28.119 28.118 73.375 28.118 163.886 28.118 90.506 0 135.762 0 163.881-28.118s28.119-73.373 28.119-163.882c0-90.51 0-135.764-28.119-163.882s-73.375-28.118-163.881-28.118c-90.511 0-135.767 0-163.886 28.118-28.114 28.118-28.114 73.373-28.114 163.882z" />
<glyph unicode="&#xe94a;" glyph-name="Bold-category-24" d="M85.333 682.667c0 90.51 0 135.764 28.118 163.882s73.373 28.118 163.882 28.118c90.51 0 135.764 0 163.883-28.118s28.117-73.373 28.117-163.882c0-90.51 0-135.764-28.117-163.883s-73.373-28.117-163.883-28.117c-90.51 0-135.764 0-163.882 28.117s-28.118 73.373-28.118 163.883zM554.667 213.333c0 90.509 0 135.765 28.117 163.883s73.374 28.117 163.883 28.117c90.509 0 135.765 0 163.883-28.117s28.117-73.374 28.117-163.883c0-90.509 0-135.765-28.117-163.883s-73.374-28.117-163.883-28.117c-90.509 0-135.765 0-163.883 28.117s-28.117 73.374-28.117 163.883zM85.333 213.333c0 90.509 0 135.765 28.118 163.883s73.373 28.117 163.882 28.117c90.51 0 135.764 0 163.883-28.117s28.117-73.374 28.117-163.883c0-90.509 0-135.765-28.117-163.883s-73.373-28.117-163.883-28.117c-90.51 0-135.764 0-163.882 28.117s-28.118 73.374-28.118 163.883zM554.667 682.667c0 90.51 0 135.764 28.117 163.882s73.374 28.118 163.883 28.118c90.509 0 135.765 0 163.883-28.118s28.117-73.373 28.117-163.882c0-90.51 0-135.764-28.117-163.883s-73.374-28.117-163.883-28.117c-90.509 0-135.765 0-163.883 28.117s-28.117 73.373-28.117 163.883z" />
<glyph unicode="&#xe94b;" glyph-name="Bold-Check-Circle-16" d="M938.669 448.021c0 235.641-191.027 426.666-426.666 426.666-235.642 0-426.667-191.025-426.667-426.666 0-235.644 191.025-426.664 426.667-426.664 235.639 0 426.666 191.021 426.666 426.664zM683.962 577.315c12.499-12.497 12.499-32.758 0-45.255l-213.332-213.334c-12.497-12.499-32.758-12.499-45.254 0l-85.334 85.334c-12.497 12.497-12.497 32.758 0 45.255s32.758 12.497 45.255 0l62.706-62.706 190.706 190.706c12.498 12.497 32.76 12.497 45.253 0z" />
<glyph unicode="&#xe94c;" glyph-name="Bold-Check-Circle-20" d="M938.665 447.985c0 235.64-191.027 426.665-426.667 426.665-235.641 0-426.666-191.025-426.666-426.665 0-235.643 191.025-426.67 426.666-426.67 235.64 0 426.667 191.027 426.667 426.67zM683.96 577.277c12.493-12.497 12.493-32.758 0-45.255l-213.335-213.334c-12.497-12.498-32.758-12.498-45.255 0l-85.334 85.335c-12.497 12.493-12.497 32.758 0 45.253 12.497 12.497 32.758 12.497 45.255 0l62.706-62.707 190.707 190.707c12.498 12.497 32.758 12.497 45.256 0z" />
<glyph unicode="&#xe94d;" glyph-name="Bold-Check-Circle-24" d="M938.667 448c0 235.642-191.027 426.667-426.667 426.667-235.642 0-426.667-191.025-426.667-426.667 0-235.639 191.025-426.667 426.667-426.667 235.639 0 426.667 191.027 426.667 426.667zM683.959 577.294c12.497-12.497 12.497-32.758 0-45.254l-213.333-213.333c-12.497-12.497-32.755-12.497-45.254 0l-85.333 85.333c-12.497 12.497-12.497 32.755 0 45.252s32.758 12.497 45.255 0l62.706-62.703 190.707 190.704c12.497 12.497 32.755 12.497 45.252 0z" />
<glyph unicode="&#xe94e;" glyph-name="Bold-Close-Circle-16" d="M938.669 448.021c0 235.641-191.027 426.666-426.666 426.666-235.642 0-426.667-191.025-426.667-426.666 0-235.644 191.025-426.664 426.667-426.664 235.639 0 426.666 191.021 426.666 426.664zM382.707 577.316c12.497 12.497 32.758 12.497 45.255 0l84.040-84.040 84.039 84.039c12.497 12.497 32.758 12.497 45.252 0 12.499-12.497 12.499-32.758 0-45.255l-84.036-84.039 84.036-84.038c12.499-12.497 12.499-32.758 0-45.257-12.495-12.493-32.757-12.493-45.254 0l-84.038 84.040-84.039-84.040c-12.497-12.493-32.758-12.493-45.254 0-12.497 12.498-12.497 32.759 0 45.256l84.038 84.038-84.040 84.040c-12.497 12.497-12.497 32.758 0 45.255z" />
<glyph unicode="&#xe94f;" glyph-name="Bold-Close-Circle-20" d="M938.665 447.985c0 235.64-191.027 426.665-426.667 426.665-235.641 0-426.666-191.025-426.666-426.665 0-235.643 191.025-426.67 426.666-426.67 235.64 0 426.667 191.027 426.667 426.67zM382.702 577.278c12.497 12.496 32.758 12.496 45.255 0l84.040-84.040 84.038 84.039c12.498 12.497 32.758 12.497 45.256 0s12.498-32.758 0-45.255l-84.040-84.038 84.040-84.040c12.498-12.498 12.498-32.758 0-45.256-12.498-12.493-32.758-12.493-45.256 0l-84.038 84.040-84.039-84.040c-12.497-12.498-32.758-12.498-45.255 0s-12.497 32.758 0 45.256l84.039 84.040-84.040 84.039c-12.497 12.497-12.497 32.758 0 45.255z" />
<glyph unicode="&#xe950;" glyph-name="Bold-Close-Circle-24" d="M938.667 448c0 235.642-191.027 426.667-426.667 426.667-235.642 0-426.667-191.025-426.667-426.667 0-235.639 191.025-426.667 426.667-426.667 235.639 0 426.667 191.027 426.667 426.667zM382.704 577.295c12.497 12.497 32.758 12.497 45.255 0l84.041-84.038 84.036 84.038c12.497 12.497 32.759 12.497 45.257 0s12.497-32.758 0-45.254l-84.041-84.041 84.041-84.036c12.497-12.497 12.497-32.759 0-45.257s-32.759-12.497-45.257 0l-84.036 84.036-84.041-84.036c-12.496-12.497-32.758-12.497-45.254 0s-12.497 32.759 0 45.252l84.038 84.041-84.039 84.041c-12.497 12.496-12.497 32.758 0 45.254z" />
<glyph unicode="&#xe951;" glyph-name="Bold-Dialog-16" d="M938.669 597.354c0 153.167-124.166 277.333-277.331 277.333-88.871 0-167.977-41.911-218.732-106.974 216.473-8.369 389.395-186.503 389.395-405.026 0-4.707-0.077-9.395-0.237-14.062l14.176-3.793c41.229-11.032 78.95 26.688 67.917 67.919l-5.434 20.31c-4.39 16.408-1.747 33.741 5.306 49.19 16.019 35.060 24.941 74.040 24.941 115.103zM768 362.687c0-188.511-152.817-341.331-341.331-341.331-52.715 0-102.639 11.949-147.211 33.286-15.319 7.334-32.675 9.907-49.082 5.517l-52.311-13.997c-41.23-11.027-78.95 26.688-67.918 67.923l13.996 52.307c4.39 16.41 1.815 33.766-5.519 49.082-21.339 44.576-33.289 94.496-33.289 147.212 0 188.513 152.82 341.334 341.334 341.334s341.331-152.82 341.331-341.334zM277.336 320.021c23.564 0 42.667 19.102 42.667 42.666s-19.103 42.667-42.667 42.667c-23.564 0-42.666-19.103-42.666-42.667s19.102-42.666 42.666-42.666zM426.669 320.021c23.564 0 42.666 19.102 42.666 42.666s-19.102 42.667-42.666 42.667c-23.564 0-42.667-19.103-42.667-42.667s19.103-42.666 42.667-42.666zM576.003 320.021c23.564 0 42.667 19.102 42.667 42.666s-19.103 42.667-42.667 42.667c-23.564 0-42.667-19.103-42.667-42.667s19.103-42.666 42.667-42.666z" />
<glyph unicode="&#xe952;" glyph-name="Bold-Dialog-20" d="M938.665 597.317c0 153.167-124.165 277.334-277.335 277.334-88.868 0-167.974-41.912-218.729-106.974 216.471-8.369 389.399-186.503 389.399-405.026 0-4.705-0.082-9.395-0.241-14.060l14.177-3.794c41.226-11.034 78.95 26.685 67.917 67.917l-5.432 20.311c-4.393 16.407-1.751 33.741 5.304 49.19 16.015 35.061 24.94 74.039 24.94 115.103zM768 362.65c0-188.513-152.822-341.335-341.336-341.335-52.715 0-102.639 11.95-147.21 33.29-15.32 7.337-32.675 9.907-49.082 5.519l-52.311-13.998c-41.23-11.028-78.95 26.691-67.918 67.922l13.997 52.311c4.39 16.404 1.815 33.761-5.519 49.080-21.339 44.57-33.288 94.495-33.288 147.21 0 188.514 152.82 341.334 341.333 341.334s341.336-152.82 341.336-341.334zM277.331 319.985c23.564 0 42.666 19.103 42.666 42.665s-19.103 42.665-42.666 42.665c-23.564 0-42.667-19.103-42.667-42.665s19.103-42.665 42.667-42.665zM426.664 319.985c23.564 0 42.667 19.103 42.667 42.665s-19.103 42.665-42.667 42.665c-23.564 0-42.666-19.103-42.666-42.665s19.103-42.665 42.666-42.665zM576 319.985c23.562 0 42.665 19.103 42.665 42.665s-19.103 42.665-42.665 42.665c-23.567 0-42.67-19.103-42.67-42.665s19.103-42.665 42.67-42.665z" />
<glyph unicode="&#xe953;" glyph-name="Bold-Dialog-24" d="M938.667 597.333c0 153.167-124.164 277.333-277.333 277.333-88.87 0-167.974-41.911-218.731-106.974 216.474-8.369 389.397-186.503 389.397-405.026 0-4.706-0.081-9.395-0.239-14.063l14.178-3.793c41.229-11.029 78.946 26.688 67.917 67.917l-5.436 20.314c-4.39 16.405-1.749 33.741 5.308 49.19 16.013 35.059 24.939 74.039 24.939 115.102zM768 362.667c0-188.514-152.819-341.333-341.333-341.333-52.715 0-102.639 11.951-147.21 33.289-15.319 7.334-32.675 9.907-49.082 5.521l-52.311-13.999c-41.231-11.029-78.95 26.688-67.919 67.917l13.996 52.314c4.39 16.405 1.815 33.762-5.519 49.084-21.338 44.57-33.289 94.494-33.289 147.209 0 188.513 152.82 341.333 341.333 341.333s341.333-152.82 341.333-341.333zM277.333 320c23.564 0 42.667 19.102 42.667 42.667s-19.103 42.667-42.667 42.667c-23.564 0-42.667-19.102-42.667-42.667s19.103-42.667 42.667-42.667zM426.667 320c23.565 0 42.667 19.102 42.667 42.667s-19.102 42.667-42.667 42.667c-23.564 0-42.667-19.102-42.667-42.667s19.103-42.667 42.667-42.667zM576 320c23.565 0 42.667 19.102 42.667 42.667s-19.102 42.667-42.667 42.667c-23.565 0-42.667-19.102-42.667-42.667s19.102-42.667 42.667-42.667z" />
<glyph unicode="&#xe954;" glyph-name="Bold-Dollar-16" d="M512.003 21.357c-235.642 0-426.667 191.021-426.667 426.664 0 235.641 191.025 426.666 426.667 426.666 235.639 0 426.666-191.025 426.666-426.666 0-235.644-191.027-426.664-426.666-426.664zM544.003 704.021c0 17.673-14.327 32-32 32s-32-14.327-32-32v-13.514c-69.565-12.456-128-64.72-128-135.82 0-81.798 77.345-138.666 160-138.666 58.73 0 96-38.644 96-74.667s-37.27-74.666-96-74.666c-58.73 0-96 38.643-96 74.666 0 17.673-14.327 32-32 32s-32-14.327-32-32c0-71.101 58.435-123.364 128-135.818v-13.517c0-17.67 14.327-32 32-32s32 14.33 32 32v13.517c69.565 12.454 127.997 64.717 127.997 135.818 0 81.798-77.343 138.667-159.997 138.667-58.73 0-96 38.644-96 74.666s37.27 74.667 96 74.667c58.73 0 96-38.644 96-74.667 0-17.673 14.327-32 31.997-32 17.677 0 32 14.327 32 32 0 71.1-58.433 123.364-127.997 135.82v13.514z" />
<glyph unicode="&#xe955;" glyph-name="Bold-Dollar-20" d="M511.998 21.315c-235.641 0-426.666 191.027-426.666 426.67 0 235.64 191.025 426.665 426.666 426.665 235.64 0 426.667-191.025 426.667-426.665 0-235.643-191.027-426.67-426.667-426.67zM544 703.983c0 17.673-14.331 32-32.002 32-17.673 0-32-14.327-32-32v-13.514c-69.565-12.456-128-64.72-128-135.819 0-81.799 77.345-138.665 160-138.665 58.728 0 96.002-38.646 96.002-74.67 0-36.019-37.274-74.665-96.002-74.665-58.73 0-96 38.646-96 74.665 0 17.674-14.327 32-32 32s-32-14.326-32-32c0-71.096 58.435-123.361 128-135.818v-13.512c0-17.674 14.327-32 32-32 17.671 0 32.002 14.326 32.002 32v13.512c69.565 12.457 128 64.722 128 135.818 0 81.802-77.348 138.669-160.002 138.669-58.73 0-96 38.645-96 74.667s37.27 74.666 96 74.666c58.728 0 96.002-38.644 96.002-74.666 0-17.673 14.326-32 32-32 17.669 0 32 14.327 32 32 0 71.099-58.435 123.363-128 135.819v13.514z" />
<glyph unicode="&#xe956;" glyph-name="Bold-Dollar-24" d="M512 21.333c-235.642 0-426.667 191.027-426.667 426.667 0 235.642 191.025 426.667 426.667 426.667 235.639 0 426.667-191.025 426.667-426.667 0-235.639-191.027-426.667-426.667-426.667zM544 704c0 17.673-14.327 32-32 32s-32-14.327-32-32v-13.514c-69.565-12.456-128-64.72-128-135.82 0-81.801 77.346-138.667 160-138.667 58.731 0 96-38.643 96-74.667s-37.269-74.667-96-74.667c-58.731 0-96 38.643-96 74.667 0 17.673-14.327 32-32 32s-32-14.327-32-32c0-71.1 58.435-123.362 128-135.821v-13.513c0-17.673 14.327-32 32-32s32 14.327 32 32v13.513c69.564 12.459 128 64.721 128 135.821 0 81.801-77.346 138.667-160 138.667-58.731 0-96 38.643-96 74.667 0 36.022 37.269 74.667 96 74.667s96-38.644 96-74.667c0-17.673 14.327-32 32-32s32 14.327 32 32c0 71.099-58.436 123.363-128 135.82v13.514z" />
<glyph unicode="&#xe957;" glyph-name="Bold-Edit-16" d="M904.269 840.288c45.869-45.867 45.869-120.23 0-166.097l-21.146-21.143c-6.157 1.332-13.907 3.362-22.746 6.428-23.648 8.205-54.733 23.713-83.968 52.951-29.242 29.238-44.749 60.321-52.954 83.972-3.066 8.836-5.094 16.589-6.426 22.746l21.139 21.144c45.869 45.866 120.23 45.866 166.099 0zM622.086 392.007c-17.238-17.238-25.857-25.857-35.361-33.269-11.21-8.744-23.34-16.241-36.174-22.357-10.88-5.185-22.444-9.039-45.571-16.746l-121.955-40.653c-11.381-3.795-23.929-0.832-32.412 7.648-8.483 8.486-11.444 21.030-7.651 32.416l40.652 121.953c7.709 23.127 11.564 34.691 16.749 45.571 6.116 12.834 13.613 24.964 22.356 36.174 7.412 9.503 16.031 18.122 33.27 35.36l209.752 209.753c11.258-29.619 30.976-66.252 65.414-100.685 34.432-34.433 71.066-54.157 100.685-65.411l-209.754-209.753zM876.186 83.84c62.483 62.483 62.483 163.046 62.483 364.181 0 66.059 0 121.27-2.214 167.846l-271.45-271.453c-14.989-14.993-26.247-26.258-38.918-36.14-14.876-11.603-30.972-21.555-48.002-29.67-14.506-6.912-29.618-11.942-49.731-18.643l-125.091-41.696c-34.379-11.462-72.282-2.515-97.905 23.11s-34.572 63.526-23.112 97.906l41.697 125.092c6.699 20.112 11.732 35.224 18.645 49.73 8.116 17.030 18.064 33.126 29.667 48.001 9.883 12.671 21.148 23.931 36.141 38.917l271.45 271.452c-46.574 2.214-101.785 2.214-167.844 2.214-201.133 0-301.699 0-364.183-62.484s-62.484-163.050-62.484-364.182c0-201.135 0-301.698 62.484-364.181s163.050-62.483 364.183-62.483c201.13 0 301.7 0 364.183 62.483z" />
<glyph unicode="&#xe958;" glyph-name="Bold-Edit-20" d="M904.264 840.25c45.865-45.866 45.865-120.23 0-166.097l-21.14-21.144c-6.159 1.333-13.911 3.362-22.748 6.428-23.649 8.206-54.733 23.713-83.973 52.951-29.235 29.238-44.744 60.321-52.951 83.972-3.062 8.836-5.094 16.59-6.426 22.746l21.14 21.144c45.87 45.866 120.233 45.866 166.098 0zM622.080 391.972c-17.239-17.239-25.856-25.861-35.359-33.27-11.213-8.745-23.342-16.241-36.173-22.359-10.88-5.187-22.446-9.037-45.573-16.748l-121.955-40.653c-11.381-3.794-23.929-0.829-32.412 7.649-8.483 8.484-11.445 21.033-7.651 32.415l40.652 121.953c7.709 23.129 11.564 34.692 16.749 45.572 6.116 12.834 13.613 24.964 22.357 36.174 7.412 9.504 16.031 18.123 33.269 35.36l209.754 209.753c11.254-29.619 30.976-66.252 65.408-100.685 34.437-34.434 71.071-54.157 100.69-65.412l-209.756-209.751zM876.18 83.799c62.484 62.484 62.484 163.052 62.484 364.186 0 66.058 0 121.269-2.212 167.845l-271.452-271.454c-14.986-14.991-26.25-26.255-38.917-36.142-14.879-11.602-30.971-21.55-48.005-29.665-14.505-6.912-29.614-11.945-49.731-18.647l-125.089-41.692c-34.379-11.464-72.281-2.514-97.905 23.112-25.624 25.62-34.571 63.524-23.112 97.905l41.697 125.090c6.699 20.112 11.732 35.224 18.646 49.73 8.116 17.031 18.064 33.126 29.666 48.002 9.883 12.671 21.148 23.931 36.142 38.917l271.452 271.452c-46.577 2.214-101.786 2.214-167.846 2.214-201.133 0-301.699 0-364.183-62.484s-62.483-163.050-62.483-364.182c0-201.134 0-301.701 62.483-364.186s163.050-62.484 364.183-62.484c201.131 0 301.698 0 364.183 62.484z" />
<glyph unicode="&#xe959;" glyph-name="Bold-Edit-24" d="M904.269 840.267c45.862-45.867 45.862-120.231 0-166.097l-21.146-21.143c-6.157 1.333-13.909 3.362-22.746 6.428-23.65 8.206-54.733 23.713-83.972 52.951s-44.745 60.321-52.949 83.972c-3.068 8.836-5.094 16.589-6.43 22.746l21.146 21.143c45.867 45.866 120.23 45.866 166.097 0zM622.084 391.987c-17.237-17.237-25.856-25.856-35.362-33.271-11.209-8.742-23.339-16.239-36.173-22.357-10.88-5.184-22.443-9.037-45.572-16.747l-121.955-40.653c-11.381-3.793-23.929-0.832-32.412 7.65-8.483 8.486-11.445 21.030-7.651 32.414l40.652 121.954c7.709 23.13 11.564 34.692 16.749 45.572 6.116 12.834 13.613 24.964 22.357 36.173 7.414 9.506 16.033 18.123 33.27 35.361l209.754 209.753c11.251-29.619 30.976-66.252 65.408-100.685 34.436-34.433 71.070-54.157 100.689-65.411l-209.754-209.752zM876.181 83.819c62.485 62.481 62.485 163.051 62.485 364.181 0 66.061 0 121.27-2.214 167.846l-271.45-271.454c-14.989-14.993-26.249-26.257-38.921-36.139-14.874-11.605-30.967-21.551-48-29.666-14.507-6.916-29.619-11.947-49.728-18.645l-125.093-41.698c-34.379-11.46-72.281-2.513-97.905 23.113-25.624 25.621-34.572 63.526-23.112 97.903l41.696 125.094c6.699 20.109 11.732 35.221 18.645 49.728 8.116 17.033 18.064 33.126 29.667 48.002 9.883 12.671 21.148 23.93 36.142 38.917l271.453 271.452c-46.575 2.214-101.786 2.214-167.846 2.214-201.133 0-301.699 0-364.183-62.484s-62.484-163.050-62.484-364.183c0-201.131 0-301.7 62.484-364.181 62.484-62.485 163.050-62.485 364.183-62.485 201.131 0 301.7 0 364.181 62.485z" />
<glyph unicode="&#xe95a;" glyph-name="Bold-Export-16" d="M377.37 622.685c12.497-12.497 32.758-12.497 45.254 0l73.373 73.373v-349.412c0-17.673 14.327-32.003 32-32.003s32 14.33 32 32.003v349.412l73.373-73.373c12.499-12.497 32.761-12.497 45.254 0 12.499 12.497 12.499 32.758 0 45.255l-127.999 128c-12.497 12.497-32.758 12.497-45.254 0l-128-128c-12.497-12.497-12.497-32.758 0-45.255zM527.997 90.643c188.515 0 341.334 152.826 341.334 341.336l-160-0.001c-40.224 0-60.339 0-72.837-12.497-12.497-12.497-12.497-32.61-12.497-72.836 0-53.020-42.98-96.003-96-96.003s-96 42.982-96 96.003c0 40.227 0 60.34-12.497 72.836s-32.61 12.497-72.836 12.497h-160c0-188.51 152.82-341.336 341.333-341.336z" />
<glyph unicode="&#xe95b;" glyph-name="Bold-Export-20" d="M377.375 622.723c12.497-12.497 32.758-12.497 45.255 0l73.373 73.373v-349.41c0-17.674 14.327-32 31.998-32 17.674 0 32 14.326 32 32v349.41l73.375-73.373c12.498-12.497 32.758-12.497 45.256 0s12.498 32.758 0 45.255l-128 128c-12.498 12.497-32.758 12.497-45.256 0l-128-128c-12.497-12.496-12.497-32.758 0-45.255zM528 90.685c188.513 0 341.335 152.817 341.335 341.33h-160c-40.228 0-60.339 0-72.837-12.498-12.498-12.493-12.498-32.609-12.498-72.832 0-53.023-42.977-96-96-96-53.017 0-95.998 42.977-95.998 96 0 40.223 0 60.339-12.497 72.832-12.496 12.498-32.61 12.498-72.837 12.498h-160c0-188.513 152.82-341.33 341.331-341.33z" />
<glyph unicode="&#xe95c;" glyph-name="Bold-Export-24" d="M377.373 622.706c12.497-12.497 32.758-12.497 45.255 0l73.373 73.373v-349.412c0-17.673 14.327-32 32-32s32 14.327 32 32v349.412l73.374-73.373c12.497-12.497 32.755-12.497 45.252 0s12.497 32.758 0 45.255l-128 128c-12.497 12.497-32.755 12.497-45.252 0l-128.001-128c-12.497-12.497-12.497-32.758 0-45.255zM528 90.667c188.514 0 341.333 152.819 341.333 341.333h-160c-40.226 0-60.339 0-72.836-12.497s-12.497-32.61-12.497-72.836c0-53.018-42.982-96-96-96s-96 42.982-96 96c0 40.226 0 60.339-12.497 72.836s-32.61 12.497-72.837 12.497h-160c0-188.514 152.82-341.333 341.333-341.333z" />
<glyph unicode="&#xe95d;" glyph-name="Bold-Eye-16" d="M416.003 447.979c0 53.020 42.98 96 96 96s96-42.98 96-96c0-53.019-42.98-96-96-96s-96 42.981-96 96zM85.336 447.979c0 69.947 18.132 93.503 54.396 140.616 72.408 94.070 193.844 200.718 372.271 200.718 178.429 0 299.863-106.648 372.273-200.718 36.262-47.112 54.394-70.669 54.394-140.616s-18.131-93.503-54.394-140.612c-72.41-94.074-193.843-200.723-372.273-200.723-178.427 0-299.863 106.65-372.271 200.723-36.264 47.11-54.396 70.666-54.396 140.612zM512.003 607.979c-88.365 0-160-71.634-160-160s71.635-159.998 160-159.998c88.365 0 159.997 71.633 159.997 159.998s-71.632 160-159.997 160z" />
<glyph unicode="&#xe95e;" glyph-name="Bold-Eye-20" d="M415.998 448.017c0 53.019 42.981 96 96 96s96.002-42.981 96.002-96c0-53.019-42.982-96.002-96.002-96.002s-96 42.982-96 96.002zM85.331 448.017c0 69.946 18.131 93.502 54.395 140.615 72.408 94.070 193.844 200.718 372.271 200.718 178.429 0 299.865-106.648 372.272-200.718 36.265-47.113 54.395-70.669 54.395-140.615s-18.13-93.503-54.395-140.617c-72.407-94.070-193.843-200.714-372.272-200.714-178.427 0-299.863 106.644-372.271 200.714-36.264 47.114-54.395 70.671-54.395 140.617zM511.998 608.017c-88.366 0-160-71.634-160-160 0-88.368 71.634-160.002 160-160.002 88.363 0 160.002 71.634 160.002 160.002 0 88.366-71.639 160-160.002 160z" />
<glyph unicode="&#xe95f;" glyph-name="Bold-Eye-24" d="M416 448c0 53.018 42.982 96 96 96s96-42.982 96-96c0-53.018-42.982-96-96-96s-96 42.982-96 96zM85.333 448c0 69.948 18.132 93.503 54.395 140.615 72.408 94.070 193.844 200.718 372.271 200.718s299.861-106.648 372.271-200.718c36.262-47.113 54.396-70.668 54.396-140.615s-18.133-93.504-54.396-140.617c-72.41-94.067-193.843-200.717-372.271-200.717s-299.863 106.65-372.271 200.717c-36.264 47.113-54.395 70.669-54.395 140.617zM512 608c-88.366 0-160-71.634-160-160s71.634-160 160-160c88.367 0 160 71.633 160 160s-71.633 160-160 160z" />
<glyph unicode="&#xe960;" glyph-name="Bold-Eye-Closed-16" d="M68.529 700.54c21.659 9.282 46.742-0.751 56.024-22.41l-39.217-16.808c39.217 16.808 39.223 16.794 39.217 16.808l-0.022 0.051c-0.012 0.028-0.003 0.007 0 0l0.167-0.379c0.172-0.384 0.465-1.038 0.883-1.942 0.836-1.81 2.166-4.621 4.001-8.29 3.672-7.344 9.343-18.086 17.084-31.091 15.531-26.091 39.126-60.841 71.27-95.457 7.576-8.159 15.594-16.279 24.063-24.256 0.355-0.321 0.705-0.65 1.050-0.986 63.347-59.316 151.72-110.457 268.954-110.457 51.583 0 97.211 9.848 137.424 25.677 52.314 20.589 96.16 51.587 132.045 85.268 40.512 38.030 70.278 78.919 89.926 110.452 9.786 15.705 16.954 28.92 21.613 38.054 2.33 4.563 4.019 8.093 5.088 10.388 0.538 1.148 0.915 1.986 1.139 2.489l0.218 0.478c9.286 21.647 34.368 31.689 56.019 22.41 21.658-9.283 31.693-34.365 22.413-56.024l-39.219 16.807c39.219-16.807 39.219-16.797 39.219-16.807l-0.096-0.214-0.147-0.351-0.493-1.103c-0.403-0.91-0.973-2.166-1.709-3.742-1.472-3.151-3.603-7.587-6.413-13.1-5.619-11.015-13.978-26.383-25.21-44.413-17.178-27.569-41.331-61.761-73.005-96.239l34.022-34.024c16.666-16.662 16.666-43.677 0-60.34-16.659-16.662-43.674-16.662-60.339 0l-35.846 35.848c-24.077-19.445-51.021-37.786-80.934-53.608l33.382-51.303c12.851-19.75 7.258-46.182-12.493-59.033s-46.182-7.258-59.034 12.493l-42.048 64.62c-28.968-8.881-59.917-15.174-92.856-18.125v-65.893c0-23.565-19.103-42.662-42.667-42.662s-42.667 19.098-42.667 42.662v65.887c-33.051 2.952-63.992 9.259-92.868 18.114l-42.035-64.603c-12.852-19.75-39.281-25.344-59.032-12.493s-25.345 39.283-12.493 59.033l33.382 51.304c-29.872 15.809-56.82 34.15-80.927 53.616l-35.857-35.857c-16.662-16.662-43.677-16.662-60.34 0s-16.662 43.677 0 60.34l34.024 34.024c-36.053 39.243-62.403 78.167-79.851 107.48-8.925 14.995-15.588 27.586-20.082 36.575-2.249 4.498-3.96 8.104-5.145 10.669-0.593 1.283-1.054 2.307-1.385 3.052l-0.4 0.908-0.128 0.294-0.046 0.106-0.018 0.043c-0.008 0.019-0.015 0.036 39.201 16.843l-39.201-16.843c-9.282 21.659 0.735 46.778 22.394 56.060z" />
<glyph unicode="&#xe961;" glyph-name="Bold-Eye-Closed-20" d="M68.526 700.539c21.659 9.282 46.742-0.751 56.024-22.41l-39.217-16.807c39.217 16.807 39.223 16.794 39.217 16.807l-0.022 0.051c-0.012 0.028-0.003 0.008 0 0l0.167-0.378c0.171-0.385 0.465-1.038 0.883-1.943 0.836-1.81 2.166-4.621 4.001-8.29 3.672-7.344 9.343-18.086 17.084-31.091 15.53-26.092 39.126-60.841 71.269-95.457 7.576-8.159 15.594-16.279 24.063-24.256 0.354-0.322 0.704-0.651 1.050-0.986 63.346-59.317 151.719-110.455 268.954-110.455 51.584 0 97.213 9.846 137.426 25.677 52.311 20.588 96.159 51.585 132.040 85.266 40.52 38.030 70.277 78.919 89.928 110.452 9.784 15.705 16.957 28.92 21.617 38.055 2.324 4.562 4.019 8.092 5.089 10.388 0.532 1.148 0.911 1.986 1.137 2.489l0.215 0.478c9.288 21.647 34.371 31.69 56.023 22.41 21.658-9.283 31.693-34.365 22.41-56.024l-39.219 16.807c39.219-16.807 39.224-16.797 39.219-16.807l-0.092-0.215-0.154-0.351-0.486-1.103c-0.41-0.91-0.978-2.166-1.71-3.742-1.469-3.151-3.604-7.588-6.415-13.1-5.617-11.015-13.972-26.382-25.211-44.413-17.178-27.569-41.329-61.761-73.001-96.239l34.022-34.024c16.66-16.661 16.66-43.679 0-60.34s-43.679-16.66-60.339 0l-35.85 35.845c-24.074-19.441-51.016-37.786-80.932-53.606l33.382-51.302c12.851-19.753 7.255-46.182-12.493-59.034-19.753-12.851-46.182-7.255-59.034 12.493l-42.045 64.62c-28.969-8.878-59.919-15.171-92.861-18.125v-65.889c0-23.567-19.103-42.665-42.665-42.665-23.564 0-42.666 19.098-42.666 42.665v65.884c-33.052 2.954-63.992 9.262-92.869 18.115l-42.036-64.604c-12.851-19.748-39.281-25.344-59.032-12.493s-25.345 39.281-12.493 59.034l33.382 51.302c-29.872 15.811-56.82 34.15-80.926 53.617l-35.857-35.855c-16.662-16.66-43.677-16.66-60.34 0s-16.662 43.679 0 60.34l34.024 34.024c-36.053 39.243-62.403 78.168-79.851 107.48-8.925 14.994-15.588 27.586-20.082 36.575-2.249 4.498-3.96 8.104-5.145 10.669-0.593 1.283-1.054 2.306-1.386 3.052l-0.4 0.908-0.128 0.293-0.046 0.106-0.018 0.043c-0.008 0.018-0.015 0.036 39.202 16.843l-39.202-16.843c-9.282 21.659 0.735 46.777 22.394 56.060z" />
<glyph unicode="&#xe962;" glyph-name="Bold-Eye-Closed-24" d="M68.524 700.539c21.659 9.282 46.742-0.751 56.024-22.41l-39.217-16.807c39.217 16.807 39.223 16.794 39.217 16.807l-0.022 0.051c-0.012 0.028-0.003 0.008 0 0l0.167-0.378c0.171-0.385 0.465-1.038 0.883-1.943 0.836-1.81 2.167-4.621 4.001-8.289 3.672-7.344 9.343-18.086 17.084-31.091 15.531-26.092 39.126-60.842 71.27-95.458 7.576-8.157 15.594-16.277 24.063-24.256 0.354-0.32 0.704-0.653 1.050-0.986 63.347-59.319 151.72-110.46 268.957-110.46 51.58 0 97.207 9.852 137.425 25.681 52.309 20.587 96.154 51.584 132.041 85.265 40.516 38.031 70.276 78.921 89.924 110.453 9.788 15.705 16.96 28.92 21.619 38.055 2.325 4.562 4.019 8.092 5.086 10.388 0.538 1.147 0.917 1.986 1.139 2.489l0.213 0.477c9.289 21.647 34.372 31.69 56.026 22.41 21.658-9.283 31.693-34.365 22.409-56.024l-39.215 16.807c39.215-16.807 39.219-16.797 39.215-16.807l-0.094-0.214-0.149-0.351-0.491-1.103c-0.405-0.91-0.977-2.166-1.711-3.742-1.468-3.151-3.601-7.587-6.413-13.1-5.615-11.015-13.973-26.383-25.212-44.413-17.178-27.569-41.327-61.763-73.003-96.238l34.027-34.027c16.661-16.661 16.661-43.678 0-60.339-16.666-16.661-43.678-16.661-60.343 0l-35.844 35.849c-24.077-19.447-51.017-37.786-80.934-53.611l33.378-51.302c12.851-19.75 7.262-46.178-12.493-59.029-19.75-12.855-46.178-7.262-59.029 12.493l-42.048 64.619c-28.971-8.883-59.917-15.177-92.855-18.125v-65.894c0-23.561-19.106-42.667-42.667-42.667-23.565 0-42.667 19.106-42.667 42.667v65.886c-33.054 2.953-63.994 9.259-92.871 18.116l-42.035-64.602c-12.852-19.755-39.281-25.348-59.032-12.493-19.751 12.851-25.344 39.279-12.493 59.029l33.382 51.307c-29.872 15.808-56.82 34.15-80.926 53.615l-35.857-35.857c-16.662-16.661-43.677-16.661-60.34 0s-16.663 43.678 0 60.339l34.024 34.027c-36.053 39.241-62.403 78.166-79.851 107.478-8.925 14.995-15.588 27.586-20.083 36.576-2.249 4.498-3.96 8.104-5.145 10.669-0.593 1.283-1.054 2.306-1.385 3.052l-0.401 0.908-0.128 0.294-0.046 0.106-0.018 0.043c-0.008 0.019-0.015 0.036 39.201 16.843l-39.201-16.843c-9.282 21.659 0.735 46.778 22.394 56.060z" />
<glyph unicode="&#xe963;" glyph-name="Bold-Filter-16" d="M810.669 832h-597.333c-60.34 0-90.509 0-109.254-17.587s-18.746-45.893-18.746-102.505v-29.432c0-44.281 0-66.422 11.076-84.776s31.312-29.745 71.783-52.528l124.289-69.966c27.154-15.286 40.731-22.929 50.452-31.368 20.244-17.575 32.707-38.227 38.355-63.556 2.712-12.163 2.712-26.396 2.712-54.86v-113.895c0-38.81 0-58.214 10.749-73.344 10.749-15.123 29.839-22.586 68.020-37.51 80.155-31.334 120.232-47.002 148.732-29.178 28.497 17.824 28.497 58.56 28.497 140.032v113.895c0 28.464 0 42.696 2.714 54.86 5.651 25.329 18.112 45.981 38.355 63.556 9.722 8.44 23.296 16.083 50.451 31.368l124.288 69.966c40.474 22.783 60.71 34.174 71.782 52.528 11.078 18.355 11.078 40.495 11.078 84.776v29.432c0 56.612 0 84.918-18.746 102.505s-48.915 17.587-109.254 17.587z" />
<glyph unicode="&#xe964;" glyph-name="Bold-Filter-20" d="M810.665 832h-597.334c-60.34 0-90.51 0-109.255-17.587s-18.745-45.893-18.745-102.505v-29.432c0-44.281 0-66.422 11.076-84.776s31.312-29.746 71.783-52.528l124.29-69.966c27.153-15.286 40.731-22.929 50.452-31.368 20.244-17.577 32.707-38.226 38.354-63.555 2.712-12.165 2.712-26.399 2.712-54.861v-113.9c0-38.804 0-58.209 10.749-73.339 10.748-15.124 29.839-22.589 68.020-37.514 80.153-31.334 120.232-47.002 148.73-29.179 28.503 17.828 28.503 58.563 28.503 140.032v113.9c0 28.462 0 42.696 2.708 54.861 5.647 25.329 18.109 45.978 38.354 63.555 9.723 8.439 23.301 16.082 50.452 31.368l124.288 69.966c40.474 22.782 60.708 34.174 71.788 52.528 11.075 18.354 11.075 40.495 11.075 84.776v29.432c0 56.612 0 84.918-18.744 102.505s-48.916 17.587-109.256 17.587z" />
<glyph unicode="&#xe965;" glyph-name="Bold-Filter-24" d="M810.667 832h-597.333c-60.34 0-90.51 0-109.255-17.587s-18.745-45.893-18.745-102.505v-29.432c0-44.281 0-66.422 11.076-84.776s31.312-29.745 71.783-52.528l124.289-69.967c27.154-15.283 40.731-22.929 50.452-31.369 20.244-17.574 32.707-38.225 38.354-63.556 2.712-12.16 2.712-26.394 2.712-54.857v-113.899c0-38.81 0-58.21 10.749-73.34 10.749-15.125 29.839-22.588 68.023-37.517 80.154-31.334 120.23-47.002 148.732-29.175 28.497 17.826 28.497 58.56 28.497 140.032v113.899c0 28.463 0 42.697 2.714 54.857 5.645 25.331 18.108 45.982 38.353 63.556 9.719 8.439 23.296 16.085 50.453 31.369l124.288 69.967c40.469 22.783 60.706 34.174 71.782 52.528s11.076 40.495 11.076 84.776v29.432c0 56.612 0 84.918-18.743 102.505-18.748 17.587-48.917 17.587-109.257 17.587z" />
<glyph unicode="&#xe966;" glyph-name="Bold-Home-Smile16" d="M107.485 626.25c22.152 40.471 62.623 65.588 143.566 115.824l85.333 52.96c85.562 53.102 128.343 79.653 175.615 79.653s90.052-26.551 175.617-79.653l85.331-52.96c80.941-50.236 121.414-75.353 143.565-115.824s22.15-89.29 22.15-186.93v-64.897c0-166.436 0-249.655-49.984-301.361-49.99-51.706-130.438-51.706-291.347-51.706h-170.666c-160.906 0-241.359 0-291.347 51.706s-49.987 134.925-49.987 301.361v64.897c0 97.64 0 146.46 22.153 186.93zM403.054 303.059c-14.198 10.528-34.239 7.546-44.763-6.65s-7.546-34.24 6.652-44.762c41.489-30.752 92.23-48.96 147.055-48.96s105.566 18.208 147.054 48.96c14.202 10.522 17.178 30.566 6.656 44.762-10.528 14.195-30.568 17.178-44.765 6.65-31.076-23.034-68.586-36.371-108.945-36.371s-77.869 13.338-108.945 36.371z" />
<glyph unicode="&#xe967;" glyph-name="Bold-Home-Smile20" d="M107.487 626.213c22.153 40.471 62.624 65.589 143.566 115.824l85.334 52.96c85.562 53.102 128.343 79.653 175.613 79.653 47.273 0 90.056-26.551 175.616-79.653l85.335-52.96c80.942-50.235 121.411-75.353 143.565-115.824s22.154-89.29 22.154-186.932v-64.896c0-166.436 0-249.656-49.992-301.363-49.987-51.707-130.437-51.707-291.343-51.707h-170.668c-160.906 0-241.359 0-291.346 51.707s-49.987 134.927-49.987 301.363v64.896c0 97.642 0 146.462 22.152 186.932zM403.057 303.022c-14.198 10.527-34.239 7.547-44.763-6.651s-7.546-34.237 6.652-44.764c41.49-30.751 92.23-48.957 147.055-48.957s105.569 18.207 147.057 48.957c14.198 10.527 17.178 30.566 6.651 44.764-10.522 14.198-30.566 17.178-44.764 6.651-31.073-23.030-68.582-36.372-108.943-36.372-40.357 0-77.868 13.343-108.943 36.372z" />
<glyph unicode="&#xe968;" glyph-name="Bold-Home-Smile24" d="M107.486 626.23c22.153 40.471 62.624 65.588 143.566 115.823l85.333 52.96c85.562 53.102 128.344 79.653 175.615 79.653s90.052-26.551 175.616-79.653l85.333-52.96c80.943-50.235 121.412-75.353 143.565-115.824s22.153-89.291 22.153-186.929v-64.9c0-166.434 0-249.655-49.988-301.359-49.984-51.708-130.441-51.708-291.345-51.708h-170.667c-160.906 0-241.359 0-291.346 51.708-49.987 51.703-49.987 134.925-49.987 301.359v64.9c0 97.639 0 146.458 22.153 186.929zM403.055 303.040c-14.198 10.526-34.239 7.548-44.763-6.652s-7.546-34.24 6.653-44.762c41.489-30.754 92.229-48.96 147.055-48.96s105.566 18.206 147.055 48.96c14.199 10.522 17.178 30.562 6.652 44.762-10.522 14.199-30.562 17.178-44.762 6.652-31.078-23.031-68.587-36.373-108.945-36.373s-77.867 13.342-108.945 36.373z" />
<glyph unicode="&#xe969;" glyph-name="Bold-Import-16" d="M662.624 513.274c-12.493 12.497-32.757 12.497-45.254 0l-73.373-73.373v349.412c0 17.673-14.327 32-32 32s-32-14.327-32-32v-349.412l-73.373 73.373c-12.497 12.497-32.758 12.497-45.254 0s-12.497-32.758 0-45.255l128-128c12.497-12.497 32.758-12.497 45.254 0l127.999 128c12.499 12.497 12.499 32.758 0 45.255zM757.229 447.98c-19.117 0-35.834-11.701-49.35-25.216l-127.999-127.999c-37.491-37.491-98.275-37.491-135.764 0l-128 127.999c-13.515 13.515-30.234 25.216-49.347 25.216h-96.104c0-188.511 152.82-341.336 341.333-341.336 188.515 0 341.334 152.826 341.334 341.336h-96.102z" />
<glyph unicode="&#xe96a;" glyph-name="Bold-Import-20" d="M662.63 513.311c-12.498 12.497-32.758 12.497-45.256 0l-73.375-73.375v349.414c0 17.673-14.326 32-32 32-17.671 0-31.998-14.327-31.998-32v-349.414l-73.373 73.375c-12.497 12.497-32.758 12.497-45.255 0s-12.497-32.758 0-45.255l128-128.001c12.497-12.498 32.758-12.498 45.256 0l128 128.001c12.498 12.496 12.498 32.758 0 45.255zM757.233 448.017c-19.113 0-35.835-11.701-49.347-25.218l-128-128c-37.494-37.489-98.276-37.489-135.766 0l-128 128c-13.515 13.517-30.234 25.218-49.347 25.218h-96.104c0-188.515 152.82-341.331 341.331-341.331 188.513 0 341.335 152.817 341.335 341.331h-96.102z" />
<glyph unicode="&#xe96b;" glyph-name="Bold-Import-24" d="M662.626 513.293c-12.497 12.497-32.755 12.497-45.252 0l-73.374-73.37v349.41c0 17.673-14.327 32-32 32s-32-14.327-32-32v-349.41l-73.373 73.37c-12.497 12.497-32.758 12.497-45.255 0s-12.497-32.755 0-45.252l128.001-128c12.497-12.497 32.755-12.497 45.252 0l128 128c12.497 12.497 12.497 32.755 0 45.252zM757.231 448c-19.115 0-35.836-11.699-49.348-25.216l-128-128c-37.491-37.491-98.274-37.491-135.765 0l-128 128c-13.515 13.517-30.234 25.216-49.347 25.216h-96.105c0-188.514 152.82-341.333 341.333-341.333s341.333 152.819 341.333 341.333h-96.102z" />
<glyph unicode="&#xe96c;" glyph-name="Bold-Incoming-Call-16" d="M800 576c0-17.673-14.33-32-32-32h-128.003c-17.673 0-32 14.327-32 32v128c0 17.673 14.327 32 32 32s32.003-14.327 32.003-32v-50.745l116.038 116.039c12.493 12.497 32.755 12.497 45.254 0 12.493-12.497 12.493-32.758 0-45.255l-116.038-116.039h50.746c17.67 0 32-14.327 32-32zM663.731 339.298l-19.437-20.456c0 0-46.188-48.634-172.268 84.107-126.080 132.739-79.889 181.368-79.889 181.368l12.237 12.884c30.146 31.738 32.988 82.694 6.687 119.894l-53.802 76.095c-32.554 46.042-95.458 52.124-132.771 12.842l-66.97-70.506c-18.501-19.478-30.899-44.728-29.395-72.739 3.846-71.66 34.467-225.839 205.332-405.731 181.196-190.765 351.21-198.342 420.733-191.482 21.99 2.17 41.114 14.029 56.525 30.253l60.608 63.814c40.915 43.072 29.382 116.915-22.97 147.046l-81.51 46.92c-34.374 19.784-76.25 13.972-103.11-14.31z" />
<glyph unicode="&#xe96d;" glyph-name="Bold-Incoming-Call-20" d="M800 576c0-17.673-14.326-32-32-32h-128c-17.669 0-32 14.327-32 32v128c0 17.673 14.331 32 32 32 17.674 0 32-14.327 32-32v-50.745l116.040 116.040c12.498 12.496 32.758 12.496 45.256 0s12.498-32.758 0-45.255l-116.040-116.039h50.744c17.674 0 32-14.327 32-32zM663.731 339.297l-19.436-20.46c0 0-46.188-48.63-172.269 84.111-126.081 132.738-79.89 181.368-79.89 181.368l12.237 12.883c30.147 31.738 32.988 82.695 6.687 119.894l-53.802 76.095c-32.553 46.042-95.458 52.124-132.77 12.841l-66.97-70.506c-18.501-19.478-30.899-44.728-29.395-72.738 3.846-71.66 34.467-225.841 205.332-405.727 181.197-190.766 351.212-198.349 420.731-191.483 21.99 2.166 41.119 14.029 56.53 30.254l60.611 63.811c40.909 43.069 29.373 116.915-22.973 147.046l-81.51 46.92c-34.376 19.784-76.252 13.972-103.112-14.31z" />
<glyph unicode="&#xe96e;" glyph-name="Bold-Incoming-Call-24" d="M800 576c0-17.673-14.327-32-32-32h-128c-17.673 0-32 14.327-32 32v128c0 17.673 14.327 32 32 32s32-14.327 32-32v-50.745l116.041 116.039c12.497 12.497 32.755 12.497 45.252 0s12.497-32.758 0-45.255l-116.036-116.039h50.743c17.673 0 32-14.327 32-32zM663.731 339.298l-19.435-20.459c0 0-46.191-48.631-172.271 84.109s-79.889 181.369-79.889 181.369l12.238 12.884c30.147 31.738 32.989 82.694 6.687 119.894l-53.802 76.095c-32.554 46.042-95.458 52.125-132.771 12.842l-66.97-70.507c-18.501-19.478-30.899-44.728-29.396-72.738 3.846-71.66 34.467-225.837 205.332-405.728 181.194-190.763 351.208-198.345 420.733-191.484 21.99 2.172 41.114 14.029 56.525 30.255l60.612 63.812c40.913 43.072 29.376 116.915-22.972 147.046l-81.515 46.921c-34.372 19.785-76.245 13.973-103.108-14.31z" />
<glyph unicode="&#xe96f;" glyph-name="Bold-Info-Circle-16" d="M938.669 448.021c0-235.644-191.027-426.664-426.666-426.664-235.642 0-426.667 191.021-426.667 426.664 0 235.641 191.025 426.666 426.667 426.666 235.639 0 426.666-191.025 426.666-426.666zM512.003 202.688c17.673 0 32 14.323 32 32v255.999c0 17.673-14.327 32-32 32s-32-14.327-32-32v-255.999c0-17.677 14.327-32 32-32zM512.003 661.354c23.564 0 42.667-19.103 42.667-42.667s-19.103-42.666-42.667-42.666c-23.564 0-42.667 19.102-42.667 42.666s19.103 42.667 42.667 42.667z" />
<glyph unicode="&#xe970;" glyph-name="Bold-Info-Circle-20" d="M938.67 447.985c0-235.643-191.027-426.67-426.67-426.67-235.64 0-426.665 191.027-426.665 426.67 0 235.64 191.025 426.665 426.665 426.665 235.643 0 426.67-191.025 426.67-426.665zM512 202.65c17.674 0 32 14.326 32 32v256.001c0 17.673-14.326 32-32 32-17.672 0-31.999-14.327-31.999-32v-256.001c0-17.674 14.327-32 31.999-32zM512 661.317c23.567 0 42.67-19.103 42.67-42.666s-19.103-42.667-42.67-42.667c-23.563 0-42.665 19.103-42.665 42.667s19.102 42.666 42.665 42.666z" />
<glyph unicode="&#xe971;" glyph-name="Bold-Info-Circle-24" d="M938.667 448c0-235.639-191.027-426.667-426.667-426.667-235.642 0-426.667 191.027-426.667 426.667 0 235.642 191.025 426.667 426.667 426.667 235.639 0 426.667-191.025 426.667-426.667zM512 202.667c17.673 0 32 14.327 32 32v256c0 17.673-14.327 32-32 32s-32-14.327-32-32v-256c0-17.673 14.327-32 32-32zM512 661.333c23.565 0 42.667-19.103 42.667-42.667s-19.102-42.667-42.667-42.667c-23.565 0-42.667 19.103-42.667 42.667s19.102 42.667 42.667 42.667z" />
<glyph unicode="&#xe972;" glyph-name="Bold-Lock-16" d="M224.003 531.024c-47.563-3.552-78.536-12.52-101.176-35.16-37.491-37.49-37.491-97.83-37.491-218.507 0-120.685 0-181.024 37.491-218.515 37.491-37.485 97.83-37.485 218.509-37.485h341.333c120.678 0 181.018 0 218.509 37.485 37.491 37.491 37.491 97.83 37.491 218.515 0 120.677 0 181.017-37.491 218.507-22.637 22.641-53.613 31.608-101.178 35.16v87.663c0 159.058-128.941 288-287.997 288-159.058 0-288-128.942-288-288v-87.663zM288.003 618.687c0 123.712 100.288 224 224 224s223.997-100.288 223.997-224v-85.485c-16.339 0.152-34.067 0.152-53.331 0.152h-341.333c-19.265 0-36.991 0-53.333-0.152v85.485zM512.003 394.687c17.673 0 32-14.326 32-32v-170.668c0-17.67-14.327-32-32-32s-32 14.33-32 32v170.668c0 17.674 14.327 32 32 32z" />
<glyph unicode="&#xe973;" glyph-name="Bold-Lock-20" d="M223.998 530.986c-47.563-3.552-78.536-12.52-101.176-35.16-37.49-37.491-37.49-97.828-37.49-218.512 0-120.678 0-181.018 37.49-218.506 37.49-37.494 97.83-37.494 218.51-37.494h341.334c120.678 0 181.018 0 218.511 37.494 37.489 37.489 37.489 97.828 37.489 218.506 0 120.684 0 181.021-37.489 218.512-22.641 22.64-53.617 31.608-101.176 35.16v87.664c0 159.058-128.942 288-288.002 288-159.058 0-288-128.942-288-288v-87.664zM287.998 618.65c0 123.711 100.288 224 224 224s224.002-100.289 224.002-224v-85.486c-16.343 0.153-34.068 0.153-53.335 0.153h-341.334c-19.265 0-36.991 0-53.334-0.153v85.486zM511.998 394.65c17.671 0 32.002-14.326 32.002-32v-170.665c0-17.674-14.331-32-32.002-32-17.673 0-32 14.326-32 32v170.665c0 17.674 14.327 32 32 32z" />
<glyph unicode="&#xe974;" glyph-name="Bold-Lock-24" d="M224 531.004c-47.563-3.554-78.536-12.518-101.176-35.162-37.49-37.491-37.49-97.83-37.49-218.509s0-181.018 37.49-218.509c37.49-37.491 97.83-37.491 218.51-37.491h341.333c120.678 0 181.018 0 218.509 37.491s37.491 97.83 37.491 218.509c0 120.678 0 181.018-37.491 218.509-22.639 22.643-53.611 31.607-101.175 35.162v87.663c0 159.058-128.943 288-288 288s-288-128.942-288-288v-87.663zM288 618.667c0 123.712 100.288 224 224 224s224-100.288 224-224v-85.487c-16.341 0.154-34.069 0.154-53.333 0.154h-341.333c-19.264 0-36.992 0-53.333-0.154v85.487zM512 394.667c17.673 0 32-14.327 32-32v-170.667c0-17.673-14.327-32-32-32s-32 14.327-32 32v170.667c0 17.673 14.327 32 32 32z" />
<glyph unicode="&#xe975;" glyph-name="Bold-Login-16" d="M69.336 447.979c0-17.673 14.327-32 32-32h468.163l-83.654-71.704c-13.418-11.501-14.972-31.706-3.471-45.12 11.501-13.421 31.703-14.976 45.121-3.475l149.331 128.003c7.098 6.079 11.174 14.954 11.174 24.296s-4.077 18.217-11.174 24.296l-149.331 128c-13.418 11.501-33.62 9.948-45.121-3.471s-9.948-33.62 3.471-45.121l83.654-71.704h-468.163c-17.673 0-32-14.326-32-32zM400.003 543.978h16.14c-11.032 31.3-5.512 67.468 17.638 94.476 34.505 40.255 95.11 44.918 135.364 10.413l149.332-128c21.28-18.238 33.523-44.864 33.523-72.888s-12.243-54.65-33.523-72.889l-149.331-127.997c-40.255-34.509-100.861-29.843-135.365 10.413-23.149 27.008-28.669 63.173-17.638 94.474h-16.14v-74.666c0-120.678 0-181.018 37.491-218.509s97.83-37.491 218.507-37.491h42.669c120.678 0 181.018 0 218.509 37.491s37.491 97.83 37.491 218.509v341.334c0 120.679 0 181.020-37.491 218.509s-97.83 37.491-218.509 37.491h-42.669c-120.677 0-181.017 0-218.507-37.491s-37.491-97.83-37.491-218.509v-74.668z" />
<glyph unicode="&#xe976;" glyph-name="Bold-Login-20" d="M69.331 448.017c0-17.676 14.327-32.002 32-32.002h468.161l-83.653-71.7c-13.418-11.505-14.972-31.703-3.471-45.123s31.705-14.971 45.119-3.471l149.335 128c7.091 6.077 11.177 14.956 11.177 24.295 0 9.342-4.086 18.217-11.177 24.296l-149.335 128c-13.414 11.502-33.618 9.948-45.119-3.471s-9.948-33.62 3.471-45.122l83.653-71.704-468.161 0.001c-17.673 0-32-14.327-32-32zM399.998 544.015h16.14c-11.031 31.3-5.512 67.468 17.638 94.476 34.504 40.255 95.11 44.917 135.363 10.413l149.335-128c21.279-18.238 33.526-44.864 33.526-72.889s-12.247-54.65-33.526-72.888l-149.335-128c-40.253-34.504-100.859-29.844-135.363 10.414-23.15 27.008-28.669 63.176-17.638 94.474h-16.14v-74.665c0-120.678 0-181.018 37.49-218.511 37.49-37.489 97.828-37.489 218.512-37.489h42.665c120.678 0 181.018 0 218.511 37.489 37.489 37.494 37.489 97.833 37.489 218.511v341.333c0 120.679 0 181.020-37.489 218.51-37.494 37.49-97.833 37.49-218.511 37.49h-42.665c-120.684 0-181.022 0-218.512-37.49s-37.49-97.83-37.49-218.51v-74.669z" />
<glyph unicode="&#xe977;" glyph-name="Bold-Login-24" d="M69.333 448c0-17.673 14.327-32 32-32h468.164l-83.657-71.706c-13.419-11.499-14.972-31.701-3.469-45.12 11.499-13.419 31.701-14.972 45.12-3.469l149.333 128c7.091 6.076 11.174 14.955 11.174 24.294s-4.083 18.219-11.174 24.294l-149.333 128.002c-13.419 11.502-33.621 9.948-45.12-3.471-11.503-13.418-9.95-33.62 3.469-45.121l83.657-71.704h-468.164c-17.673 0-32-14.327-32-32zM400 543.998h16.14c-11.031 31.3-5.512 67.468 17.639 94.476 34.505 40.255 95.108 44.917 135.364 10.413l149.333-128c21.278-18.24 33.523-44.864 33.523-72.887 0-28.028-12.245-54.652-33.523-72.892l-149.333-128c-40.256-34.505-100.86-29.841-135.364 10.415-23.151 27.008-28.671 63.177-17.639 94.477h-16.14v-74.667c0-120.678 0-181.018 37.491-218.509s97.83-37.491 218.509-37.491h42.667c120.678 0 181.018 0 218.509 37.491s37.491 97.83 37.491 218.509v341.333c0 120.679 0 181.019-37.491 218.51s-97.83 37.49-218.509 37.49h-42.667c-120.678 0-181.018 0-218.509-37.49s-37.491-97.83-37.491-218.51v-74.668z" />
<glyph unicode="&#xe978;" glyph-name="Bold-Logout-16" d="M688 447.979c0 17.674-14.323 32-32 32h-468.16l83.654 71.704c13.419 11.501 14.973 31.703 3.471 45.121s-31.704 14.972-45.122 3.471l-149.333-128c-7.093-6.079-11.175-14.954-11.175-24.296s4.082-18.216 11.175-24.296l149.333-128.003c13.418-11.501 33.62-9.946 45.122 3.475 11.501 13.414 9.948 33.619-3.471 45.12l-83.654 71.704h468.16c17.677 0 32 14.327 32 32zM400.003 618.646c0-29.96 0-44.94 7.19-55.701 3.114-4.66 7.114-8.66 11.774-11.774 10.761-7.19 25.741-7.19 55.701-7.19h181.332c53.024 0 96-42.98 96-96s-42.976-96-96-96h-181.329c-29.964 0-44.946 0-55.708-7.191-4.658-3.113-8.657-7.112-11.77-11.77-7.192-10.762-7.192-25.743-7.192-55.708 0-120.678 0-181.018 37.491-218.509s97.821-37.491 218.5-37.491h42.669c120.678 0 181.018 0 218.509 37.491s37.491 97.83 37.491 218.509v341.334c0 120.679 0 181.020-37.491 218.509s-97.83 37.491-218.509 37.491h-42.669c-120.68 0-181.011 0-218.5-37.491s-37.491-97.83-37.491-218.509z" />
<glyph unicode="&#xe979;" glyph-name="Bold-Logout-20" d="M688.005 448.017c0 17.673-14.326 32-32 32h-468.164l83.655 71.704c13.418 11.502 14.972 31.703 3.471 45.122s-31.703 14.972-45.122 3.471l-149.334-128c-7.093-6.079-11.174-14.954-11.174-24.296 0-9.34 4.082-18.218 11.174-24.296l149.334-128c13.418-11.5 33.62-9.948 45.122 3.471s9.948 33.618-3.471 45.123l-83.655 71.7h468.164c17.674 0 32 14.326 32 32.002zM400.004 618.683c0-29.96 0-44.94 7.19-55.702 3.113-4.66 7.114-8.66 11.773-11.773 10.761-7.19 25.741-7.19 55.702-7.19h181.336c53.018 0 96-42.981 96-96 0-53.021-42.982-95.998-96-95.998h-181.332c-29.964 0-44.945 0-55.707-7.194-4.658-3.113-8.657-7.112-11.77-11.771-7.192-10.762-7.192-25.743-7.192-55.706 0-120.678 0-181.018 37.49-218.511 37.491-37.489 97.822-37.489 218.501-37.489h42.665c120.684 0 181.023 0 218.511 37.489 37.489 37.494 37.489 97.833 37.489 218.511v341.333c0 120.679 0 181.020-37.489 218.51s-97.828 37.49-218.511 37.49h-42.665c-120.678 0-181.010 0-218.501-37.49s-37.49-97.83-37.49-218.51z" />
<glyph unicode="&#xe97a;" glyph-name="Bold-Logout-24" d="M688.004 448c0 17.673-14.327 32-32 32h-468.162l83.654 71.704c13.419 11.501 14.973 31.703 3.471 45.121s-31.703 14.973-45.121 3.471l-149.333-128.002c-7.093-6.076-11.175-14.955-11.175-24.294s4.082-18.219 11.175-24.294l149.333-128c13.418-11.503 33.62-9.95 45.121 3.469s9.948 33.621-3.471 45.12l-83.655 71.706h468.162c17.673 0 32 14.327 32 32zM400.005 618.667c0-29.96 0-44.94 7.19-55.701 3.113-4.66 7.114-8.66 11.774-11.774 10.761-7.19 25.742-7.19 55.702-7.19h181.333c53.022 0 96-42.98 96-96.002 0-53.018-42.978-96-96-96h-181.329c-29.965 0-44.945 0-55.709-7.189-4.657-3.115-8.657-7.113-11.77-11.772-7.191-10.761-7.191-25.741-7.191-55.706 0-120.678 0-181.018 37.49-218.509s97.822-37.491 218.5-37.491h42.667c120.678 0 181.018 0 218.509 37.491s37.491 97.83 37.491 218.509v341.333c0 120.679 0 181.019-37.491 218.51s-97.83 37.49-218.509 37.49h-42.667c-120.678 0-181.009 0-218.5-37.49s-37.49-97.83-37.49-218.51z" />
<glyph unicode="&#xe97b;" glyph-name="Bold-Outgoing-Call-16" d="M650.669 746.687c0 17.673 14.323 32 32 32h128c17.67 0 32-14.327 32-32v-128c0-17.673-14.33-32-32-32-17.677 0-32 14.327-32 32v50.746l-116.038-116.040c-12.499-12.497-32.761-12.497-45.258 0s-12.497 32.758 0 45.255l116.042 116.039h-50.746c-17.677 0-32 14.327-32 32zM663.731 339.298l-19.437-20.456c0 0-46.188-48.634-172.268 84.107-126.080 132.739-79.889 181.368-79.889 181.368l12.237 12.884c30.146 31.738 32.988 82.694 6.687 119.894l-53.802 76.095c-32.554 46.042-95.458 52.124-132.771 12.842l-66.97-70.506c-18.501-19.478-30.899-44.728-29.395-72.739 3.846-71.66 34.467-225.839 205.332-405.731 181.196-190.765 351.21-198.342 420.733-191.482 21.99 2.17 41.114 14.029 56.525 30.253l60.608 63.814c40.915 43.072 29.382 116.915-22.97 147.046l-81.51 46.92c-34.374 19.784-76.25 13.972-103.11-14.31z" />
<glyph unicode="&#xe97c;" glyph-name="Bold-Outgoing-Call-20" d="M650.665 746.65c0 17.673 14.331 32 32 32h128c17.674 0 32-14.327 32-32v-128c0-17.673-14.326-32-32-32-17.669 0-32 14.327-32 32v50.745l-116.040-116.039c-12.493-12.497-32.758-12.497-45.251 0-12.498 12.497-12.498 32.758 0 45.255l116.035 116.039h-50.744c-17.669 0-32 14.327-32 32zM663.731 339.297l-19.436-20.46c0 0-46.188-48.63-172.269 84.111-126.081 132.738-79.89 181.368-79.89 181.368l12.237 12.883c30.147 31.738 32.988 82.695 6.687 119.894l-53.802 76.095c-32.553 46.042-95.458 52.124-132.77 12.841l-66.97-70.506c-18.501-19.478-30.899-44.728-29.395-72.738 3.846-71.66 34.467-225.841 205.332-405.727 181.197-190.766 351.212-198.349 420.731-191.483 21.99 2.166 41.119 14.029 56.53 30.254l60.611 63.811c40.909 43.069 29.373 116.915-22.973 147.046l-81.51 46.92c-34.376 19.784-76.252 13.972-103.112-14.31z" />
<glyph unicode="&#xe97d;" glyph-name="Bold-Outgoing-Call-24" d="M650.667 746.667c0 17.673 14.327 32 32 32h128c17.673 0 32-14.327 32-32v-128c0-17.673-14.327-32-32-32s-32 14.327-32 32v50.745l-116.041-116.039c-12.497-12.497-32.755-12.497-45.252 0s-12.497 32.758 0 45.255l116.036 116.039h-50.743c-17.673 0-32 14.327-32 32zM663.731 339.298l-19.435-20.459c0 0-46.191-48.631-172.271 84.109s-79.889 181.369-79.889 181.369l12.238 12.884c30.147 31.738 32.989 82.694 6.687 119.894l-53.802 76.095c-32.554 46.042-95.458 52.125-132.771 12.842l-66.97-70.507c-18.501-19.478-30.899-44.728-29.396-72.738 3.846-71.66 34.467-225.837 205.332-405.728 181.194-190.763 351.208-198.345 420.733-191.484 21.99 2.172 41.114 14.029 56.525 30.255l60.612 63.812c40.913 43.072 29.376 116.915-22.972 147.046l-81.515 46.921c-34.372 19.785-76.245 13.973-103.108-14.31z" />
<glyph unicode="&#xe97e;" glyph-name="Bold-Phone-16" d="M706.4 409.357l-19.437-19.322c0 0-46.189-45.928-172.269 79.436s-79.89 171.292-79.89 171.292l12.237 12.168c30.147 29.975 32.988 78.1 6.687 113.233l-53.802 71.868c-32.554 43.484-95.458 49.229-132.771 12.128l-66.97-66.589c-18.501-18.396-30.899-42.243-29.396-68.697 3.846-67.678 34.467-213.293 205.332-383.187 181.196-180.168 351.211-187.329 420.734-180.846 21.99 2.048 41.114 13.248 56.525 28.576l60.608 60.262c40.915 40.678 29.382 110.424-22.97 138.88l-81.51 44.312c-34.374 18.685-76.25 13.196-103.11-13.515z" />
<glyph unicode="&#xe97f;" glyph-name="Bold-Phone-20" d="M706.396 409.318l-19.436-19.318c0 0-46.188-45.932-172.268 79.434-126.081 125.364-79.891 171.293-79.891 171.293l12.237 12.168c30.147 29.976 32.989 78.1 6.687 113.233l-53.802 71.868c-32.553 43.484-95.458 49.228-132.771 12.128l-66.97-66.589c-18.501-18.396-30.899-42.243-29.395-68.697 3.846-67.679 34.467-213.293 205.332-383.19 181.196-180.168 351.211-187.325 420.73-180.844 21.99 2.048 41.119 13.251 56.53 28.575l60.611 60.262c40.909 40.684 29.379 110.423-22.968 138.88l-81.516 44.314c-34.376 18.683-76.247 13.194-103.112-13.517z" />
<glyph unicode="&#xe980;" glyph-name="Bold-Phone-24" d="M706.398 409.335l-19.435-19.319c0 0-46.191-45.931-172.271 79.437-126.079 125.363-79.889 171.291-79.889 171.291l12.237 12.168c30.148 29.975 32.99 78.1 6.686 113.233l-53.8 71.868c-32.554 43.484-95.458 49.228-132.771 12.128l-66.97-66.589c-18.501-18.396-30.899-42.243-29.396-68.697 3.846-67.678 34.467-213.295 205.332-383.189 181.194-180.164 351.208-187.324 420.733-180.843 21.99 2.048 41.114 13.248 56.525 28.574l60.612 60.262c40.913 40.683 29.376 110.426-22.972 138.88l-81.515 44.314c-34.372 18.684-76.245 13.197-103.108-13.517z" />
</font>
</defs>
</svg>
