<svg width="56" height="56" viewBox="0 0 56 56" fill="none" xmlns="http://www.w3.org/2000/svg">
<rect width="56" height="56" rx="8" fill="#FFF7EF"/>
<path fill-rule="evenodd" clip-rule="evenodd" d="M42.3607 23.0491L41.9433 21.4641C41.6989 20.5452 41.2222 19.7047 40.5591 19.0233C39.5024 17.9666 37.4261 16.6986 36.1211 15.9114C34.3837 14.8688 32.584 13.9337 30.7321 13.1112C29.996 12.7743 29.1959 12.6 28.3863 12.6C27.5768 12.6 26.7767 12.7743 26.0405 13.1112C24.1887 13.9337 22.389 14.8688 20.6516 15.9114C19.3466 16.6986 17.2597 17.9613 16.2136 19.0233C15.5581 19.707 15.0888 20.5474 14.8505 21.4641L14.4331 23.0491H42.3607Z" fill="url(#paint0_linear_4417_69314)"/>
<path fill-rule="evenodd" clip-rule="evenodd" d="M40.1154 19.7996C38.6691 18.7447 37.1664 17.7694 35.614 16.8779C34.0654 15.9691 32.4674 15.1471 30.8274 14.4159C30.0681 14.0682 29.2427 13.8882 28.4076 13.8882C27.5725 13.8882 26.7471 14.0682 25.9878 14.4159C24.3483 15.1403 22.7503 15.9552 21.2012 16.8568C19.6488 17.7483 18.1461 18.7236 16.6998 19.7785C16.0192 20.262 15.4507 20.8865 15.0332 21.6095C14.6156 22.3325 14.3587 23.1369 14.28 23.9681C13.9067 27.5352 13.9067 31.1315 14.28 34.6985C14.3587 35.5297 14.6156 36.3342 15.0332 37.0571C15.4507 37.7801 16.0192 38.4046 16.6998 38.8882C19.601 40.9936 22.7139 42.7908 25.9878 44.2508C26.7471 44.5985 27.5725 44.7785 28.4076 44.7785C29.2427 44.7785 30.0681 44.5985 30.8274 44.2508C34.1013 42.7908 37.2142 40.9936 40.1154 38.8882C40.796 38.4046 41.3645 37.7801 41.782 37.0571C42.1996 36.3342 42.4565 35.5297 42.5352 34.6985C42.9085 31.1315 42.9085 27.5352 42.5352 23.9681C42.4565 23.1369 42.1996 22.3325 41.782 21.6095C41.3645 20.8865 40.796 20.262 40.1154 19.7785V19.7996Z" fill="url(#paint1_radial_4417_69314)"/>
<path fill-rule="evenodd" clip-rule="evenodd" d="M38.2609 22.3411C36.9051 21.3494 35.4939 20.4357 34.0342 19.6044C32.5867 18.76 31.0927 17.998 29.5593 17.322C29.1959 17.1499 28.799 17.0607 28.3969 17.0607C27.9949 17.0607 27.5979 17.1499 27.2346 17.322C24.1748 18.6892 21.2656 20.3714 18.5541 22.3411C18.2231 22.5681 17.9469 22.8661 17.7458 23.2135C17.5447 23.5608 17.4238 23.9487 17.3918 24.3488C17.04 27.6856 17.04 31.0502 17.3918 34.3871C17.4238 34.7872 17.5447 35.1751 17.7458 35.5224C17.9469 35.8698 18.2231 36.1678 18.5541 36.3948C21.2689 38.3652 24.1817 40.0473 27.2452 41.4139C27.6085 41.586 28.0055 41.6752 28.4075 41.6752C28.8095 41.6752 29.2065 41.586 29.5698 41.4139C31.1032 40.7379 32.5973 39.9759 34.0448 39.1315C35.5045 38.3002 36.9157 37.3865 38.2715 36.3948C38.6025 36.1678 38.8786 35.8698 39.0797 35.5224C39.2808 35.1751 39.4018 34.7872 39.4338 34.3871C39.7856 31.0502 39.7856 27.6856 39.4338 24.3488C39.4018 23.9487 39.2808 23.5608 39.0797 23.2135C38.8786 22.8661 38.6025 22.5681 38.2715 22.3411H38.2609Z" fill="url(#paint2_radial_4417_69314)"/>
<path fill-rule="evenodd" clip-rule="evenodd" d="M27.224 40.5746C25.6634 39.8824 24.1414 39.1064 22.6645 38.2499C21.1828 37.4012 19.7488 36.4717 18.3692 35.4656C17.9191 35.1501 17.5718 34.7091 17.3706 34.1976C17.3706 34.2557 17.3706 34.3139 17.3706 34.3773C17.4026 34.7773 17.5235 35.1652 17.7246 35.5126C17.9257 35.8599 18.2019 36.158 18.5329 36.3849C21.2477 38.3553 24.1605 40.0375 27.224 41.4041C27.5873 41.5761 27.9843 41.6654 28.3863 41.6654C28.7883 41.6654 29.1853 41.5761 29.5486 41.4041C31.0821 40.7281 32.5761 39.9661 34.0236 39.1217C35.4833 38.2904 36.8945 37.3767 38.2503 36.3849C38.5813 36.158 38.8575 35.8599 39.0585 35.5126C39.2596 35.1652 39.3806 34.7773 39.4126 34.3773C39.4126 34.3139 39.4126 34.2557 39.4126 34.1976C39.2114 34.7091 38.8641 35.1501 38.414 35.4656C37.0344 36.4717 35.6004 37.4012 34.1187 38.2499C32.6418 39.1064 31.1198 39.8824 29.5592 40.5746C29.1892 40.7495 28.785 40.8403 28.3757 40.8403C27.9665 40.8403 27.5623 40.7495 27.1923 40.5746H27.224Z" fill="url(#paint3_linear_4417_69314)"/>
<defs>
<linearGradient id="paint0_linear_4417_69314" x1="16.7601" y1="21.0739" x2="42.3607" y2="21.0739" gradientUnits="userSpaceOnUse">
<stop stop-color="#7B4D1E"/>
<stop offset="0.255" stop-color="#D7995B"/>
<stop offset="0.462213" stop-color="#EBCCAD"/>
<stop offset="0.745" stop-color="#D7995B"/>
<stop offset="1" stop-color="#7B4D1E"/>
</linearGradient>
<radialGradient id="paint1_radial_4417_69314" cx="0" cy="0" r="1" gradientUnits="userSpaceOnUse" gradientTransform="translate(18.8501 13.3655) scale(37.9025 37.8759)">
<stop stop-color="#D7995B"/>
<stop offset="1" stop-color="#7B4D1E"/>
</radialGradient>
<radialGradient id="paint2_radial_4417_69314" cx="0" cy="0" r="1" gradientUnits="userSpaceOnUse" gradientTransform="translate(21.6229 16.7534) rotate(180) scale(22.146 30.628)">
<stop stop-color="#CD7F32"/>
<stop offset="1" stop-color="#523314"/>
</radialGradient>
<linearGradient id="paint3_linear_4417_69314" x1="19.2072" y1="40.2538" x2="39.4126" y2="40.2538" gradientUnits="userSpaceOnUse">
<stop stop-color="#7B4D1E"/>
<stop offset="0.255" stop-color="#D7995B"/>
<stop offset="0.462213" stop-color="#EBCCAD"/>
<stop offset="0.745" stop-color="#D7995B"/>
<stop offset="1" stop-color="#7B4D1E"/>
</linearGradient>
</defs>
</svg>
