<svg width="404" height="190" viewBox="0 0 404 190" fill="none" xmlns="http://www.w3.org/2000/svg">
<rect width="404" height="190" rx="12" fill="white"/>
<circle cx="218.5" cy="120.5" r="30.5" fill="#E7F5FE"/>
<circle cx="5.5" cy="5.5" r="5.5" transform="matrix(1 0 0 -1 168 164)" fill="#E7F5FE"/>
<circle cx="175.5" cy="77.5" r="56.5" fill="#E7F5FE"/>
<path d="M128.956 134.447L185.165 119.386C186.429 119.047 187.795 119.452 188.765 120.454L193.224 125.059C194.195 126.062 195.56 126.467 196.824 126.128L218.051 120.44C220.047 119.905 221.193 117.71 220.611 115.536L199.57 37.0107C198.988 34.8373 196.897 33.5088 194.901 34.0438L108.272 57.256C106.276 57.7909 105.129 59.9866 105.712 62.1601L124.286 131.48C124.869 133.653 126.959 134.982 128.956 134.447Z" fill="#E6A800"/>
<path d="M166 90.2968C188.781 114.428 210.929 107.508 222.722 101.794C255.763 85.7855 292.263 107.637 288.716 123.072C284.388 141.914 223.512 104.275 217.648 131.641C212.405 156.104 239.293 149.464 277.524 148.333C321.615 147.03 343.012 101.794 283.36 61" stroke="#FFE499" stroke-width="0.8" stroke-linecap="round" stroke-dasharray="6 6"/>
<path d="M115.202 108.518L214.53 81.9029C216.819 81.2897 217.939 79.0498 217.04 76.9224L199.785 36.0795C199.081 34.4147 196.898 33.5113 194.902 34.0463L108.273 57.2585C106.276 57.7934 104.837 59.6673 105.06 61.4608L110.538 105.459C110.824 107.751 112.913 109.131 115.202 108.518Z" fill="#FFC933"/>
<g clip-path="url(#clip0_4417_63491)">
<path d="M127.242 97.0252C115.981 97.5454 106.656 106.404 105.743 117.476C105.288 123.003 106.888 128.14 109.859 132.251C110.537 133.19 110.443 134.467 109.616 135.282L103.805 141.008L106.335 143.501L112.146 137.775C112.974 136.96 114.27 136.868 115.223 137.536C119.395 140.463 124.608 142.04 130.218 141.591C141.455 140.692 150.446 131.504 150.974 120.408C151.601 107.225 140.622 96.4073 127.242 97.0252Z" fill="#737A8C"/>
<path d="M128.333 136.965C138.216 136.965 146.228 129.071 146.228 119.333C146.228 109.596 138.216 101.702 128.333 101.702C118.45 101.702 110.438 109.596 110.438 119.333C110.438 129.071 118.45 136.965 128.333 136.965Z" fill="#F3FAFF"/>
<path d="M132.729 126.124C127.064 125.052 122.529 120.584 121.441 115.002C121.055 113.026 121.103 111.113 121.496 109.327C121.731 108.253 120.453 107.519 119.571 108.192C115.657 111.179 113.356 116.115 114.186 121.53C115.106 127.531 120.013 132.365 126.103 133.272C131.599 134.09 136.609 131.823 139.641 127.966C140.324 127.098 139.578 125.838 138.489 126.07C136.676 126.457 134.735 126.504 132.729 126.124Z" fill="#CFEBFC"/>
<path d="M108.402 143.958L89.1099 162.967C87.7121 164.344 85.4461 164.344 84.0485 162.967C82.6508 161.59 82.6508 159.357 84.0485 157.98L103.341 138.971C103.807 138.512 104.562 138.512 105.028 138.971L108.402 142.296C108.868 142.755 108.868 143.499 108.402 143.958Z" fill="#127287"/>
<path d="M86.4343 160.331L105.727 141.322C106.193 140.863 106.948 140.863 107.414 141.322L105.028 138.971C104.562 138.512 103.807 138.512 103.341 138.971L84.0483 157.98C82.6506 159.357 82.6506 161.59 84.0483 162.967C84.4822 163.394 85.0037 163.673 85.553 163.835C85.1877 162.633 85.4706 161.28 86.4343 160.331Z" fill="#0C4C5A"/>
<path d="M140.962 116.988C140.443 116.988 139.964 116.65 139.815 116.132C138.699 112.233 135.546 109.125 131.588 108.021C130.955 107.844 130.586 107.194 130.766 106.57C130.944 105.944 131.608 105.578 132.239 105.76C136.988 107.084 140.771 110.814 142.112 115.494C142.29 116.118 141.921 116.768 141.287 116.945C141.179 116.974 141.07 116.988 140.962 116.988Z" fill="white"/>
</g>
<path d="M109.962 62.6165L109.976 62.6028M89.2121 52.2729C87.797 49.3709 88.2949 45.7712 90.706 43.3602C93.7445 40.3217 98.671 40.3216 101.71 43.3602C103.988 45.6386 104.558 48.9785 103.42 51.7879C102.832 53.2381 102.538 53.9633 102.526 54.3081C102.513 54.7187 102.533 54.8198 102.706 55.1924C102.851 55.5053 103.204 55.8584 103.91 56.5645L105.836 58.4902" stroke="#ABAFBA" stroke-width="2" stroke-linecap="round" stroke-linejoin="round"/>
<path d="M195.794 166.512L195.808 166.52M199.154 147.938C201.1 146.171 204.027 145.741 206.46 147.076C209.527 148.76 210.649 152.61 208.966 155.677C207.704 157.977 205.223 159.183 202.768 158.932C201.501 158.803 200.867 158.739 200.595 158.808C200.271 158.891 200.197 158.93 199.945 159.15C199.733 159.335 199.538 159.691 199.146 160.404L198.08 162.347" stroke="#ABAFBA" stroke-width="2" stroke-linecap="round" stroke-linejoin="round"/>
<path d="M275.647 94.2895L275.659 94.2967M279.057 77.5216C280.855 75.9585 283.517 75.6259 285.696 76.8841C288.442 78.4697 289.383 81.9817 287.798 84.7282C286.609 86.7876 284.337 87.8319 282.116 87.557C280.97 87.4151 280.397 87.3442 280.149 87.4017C279.854 87.4702 279.786 87.5041 279.553 87.6986C279.358 87.8618 279.174 88.1809 278.805 88.8192L277.8 90.5597" stroke="#ABAFBA" stroke-width="1.5" stroke-linecap="round" stroke-linejoin="round"/>
<path d="M279.439 56.0525C279.849 55.7078 280.362 55.5407 280.91 55.5344C280.854 55.3328 280.772 55.1593 280.671 55.0393C280.284 54.5779 279.421 54.6627 278.747 55.2282C278.073 55.7938 277.84 56.6293 278.227 57.0906C278.327 57.2106 278.484 57.3217 278.673 57.4115C278.774 56.8734 279.028 56.3972 279.439 56.0525Z" fill="#FFBB00"/>
<path d="M279.744 56.4149C279.268 56.8136 279.056 57.4367 279.096 58.1233L281.538 56.0741C280.869 55.9155 280.219 56.0161 279.744 56.4149Z" fill="#B38300"/>
<path d="M274.297 61.4468C274.197 61.531 274.047 61.5179 273.963 61.4176C273.879 61.3173 273.892 61.1678 273.992 61.0837L277.763 57.9192C276.11 58.1229 273.338 58.5833 272.552 59.2425C271.465 60.1545 271.323 61.7807 272.235 62.8676C273.147 63.9545 274.773 64.0968 275.86 63.1848C276.646 62.5257 277.581 59.8751 278.068 58.2823L274.297 61.4468Z" fill="#FFE499"/>
<path d="M282.065 56.2507L279.179 58.6725C279.257 58.9947 279.387 59.3213 279.567 59.6373L282.948 56.8002C282.668 56.568 282.369 56.3834 282.065 56.2507Z" fill="#FFBB00"/>
<path d="M278.275 51.9099C278.379 51.8226 278.392 51.6671 278.305 51.5631C278.218 51.4591 278.062 51.4454 277.958 51.5327C277.854 51.6199 277.841 51.7755 277.928 51.8796C278.015 51.9835 278.171 51.9971 278.275 51.9099Z" fill="#5C6270"/>
<path d="M275.245 53.8095C275.141 53.8968 275.128 54.0524 275.215 54.1564C275.302 54.2604 275.458 54.274 275.562 54.1867C275.666 54.0995 275.68 53.9439 275.592 53.84C275.505 53.7359 275.349 53.7223 275.245 53.8095Z" fill="#5C6270"/>
<path d="M278.442 54.8636C278.727 54.6248 279.042 54.458 279.357 54.3638C279.351 54.3442 279.34 54.3275 279.327 54.3115C279.144 54.0936 278.437 53.9453 277.988 54.322C277.539 54.6986 277.562 55.4205 277.745 55.6384C277.759 55.6544 277.773 55.6676 277.791 55.6773C277.939 55.3837 278.158 55.1023 278.442 54.8636Z" fill="#B38300"/>
<path d="M276.321 63.3993C277.246 63.819 278.359 63.4722 278.874 62.5727C279.246 61.9212 278.842 59.8291 278.505 58.4747C278.091 59.8222 277.204 62.4514 276.321 63.3993Z" fill="#FFD666"/>
<path d="M285.959 56.6278C286.934 56.2776 287.469 55.2412 287.216 54.2569C286.129 54.9624 283.386 55.3794 281.987 55.5527C283.262 56.12 285.253 56.8813 285.959 56.6278Z" fill="#FFD666"/>
<path d="M283.778 49.8245C282.992 50.4835 282.057 53.1341 281.57 54.7268L285.341 51.5623C285.441 51.4782 285.591 51.4913 285.675 51.5916C285.759 51.6919 285.746 51.8413 285.646 51.9255L281.874 55.09C283.528 54.8864 286.3 54.4259 287.086 53.7668C288.173 52.8547 288.315 51.2285 287.403 50.1416C286.491 49.0547 284.865 48.9124 283.778 49.8245Z" fill="#FFE499"/>
<path d="M279.827 60.0375C279.881 60.1104 279.937 60.1825 279.996 60.2533C280.139 60.4241 280.325 60.5828 280.54 60.7297L283.855 57.9482C283.747 57.7113 283.623 57.5007 283.48 57.3298C283.421 57.2591 283.359 57.1914 283.297 57.126L279.827 60.0375Z" fill="#B38300"/>
<path d="M284.545 62.1369C284.539 61.7229 284.51 60.9017 284.389 60.0283L282.495 61.6179C283.334 61.8889 284.138 62.0592 284.545 62.1369Z" fill="#B38300"/>
<path d="M281.973 61.4373L284.302 59.4834C284.234 59.1152 284.147 58.7509 284.036 58.4161L280.968 60.99C281.279 61.1574 281.622 61.3063 281.973 61.4373Z" fill="#FFBB00"/>
<path d="M283.473 49.4602C282.486 50.289 281.458 53.4485 281.062 54.7685C281.053 54.7568 280.678 54.2142 279.824 54.2777C279.803 54.1804 279.759 54.0892 279.69 54.0069C279.411 53.6741 278.776 53.5269 278.218 53.683L277.812 53.2001C277.606 52.9537 277.599 52.6062 277.773 52.3532C278.026 52.4898 278.347 52.4679 278.58 52.2725C278.884 52.0172 278.924 51.5621 278.668 51.2578C278.413 50.9536 277.958 50.9137 277.654 51.169C277.408 51.3752 277.335 51.7116 277.45 51.9938C277.09 52.422 277.077 53.0616 277.449 53.5048L277.773 53.8907C277.742 53.9122 277.712 53.9347 277.683 53.959C277.654 53.9833 277.627 54.009 277.601 54.0354L277.277 53.6496C276.905 53.2064 276.273 53.1076 275.789 53.3883C275.531 53.2256 275.187 53.239 274.941 53.4452C274.637 53.7005 274.597 54.1557 274.852 54.46C275.107 54.7642 275.563 54.804 275.867 54.5487C276.1 54.3531 276.177 54.0402 276.086 53.7678C276.365 53.6403 276.707 53.7079 276.914 53.9543L277.319 54.4371C277.068 54.9598 277.103 55.6104 277.382 55.9432C277.451 56.0256 277.533 56.0855 277.625 56.1226C277.418 56.9675 277.884 57.4158 277.894 57.427C276.525 57.5878 273.235 58.0509 272.247 58.8797C270.96 59.9597 270.792 61.8856 271.872 63.1727C272.887 64.3825 274.649 64.6038 275.926 63.7292C276.846 64.2507 277.964 64.115 278.731 63.4713C278.948 63.2893 279.137 63.0669 279.285 62.8072C279.581 62.2902 279.516 61.2228 279.348 60.1793C279.435 60.3082 279.53 60.4348 279.633 60.5577C280.862 62.0219 284.588 62.6287 284.746 62.6537C284.813 62.6645 284.882 62.6453 284.935 62.6012C284.988 62.5571 285.019 62.4923 285.02 62.4237C285.022 62.2637 285.072 58.489 283.843 57.0249C283.74 56.9019 283.632 56.7869 283.52 56.6784C284.518 57.0253 285.558 57.2746 286.119 57.0733C286.401 56.9721 286.652 56.8249 286.869 56.6429C287.636 55.9992 287.964 54.9218 287.61 53.925C288.693 52.8194 288.781 51.0455 287.766 49.8357C286.686 48.5486 284.76 48.3801 283.473 49.4602ZM277.958 51.5321C278.062 51.4449 278.218 51.4586 278.305 51.5626C278.392 51.6665 278.379 51.8221 278.275 51.9093C278.171 51.9966 278.015 51.983 277.928 51.8791C277.841 51.775 277.854 51.6194 277.958 51.5321ZM275.562 54.1856C275.458 54.2728 275.303 54.2592 275.215 54.1552C275.128 54.0512 275.142 53.8956 275.246 53.8084C275.35 53.7211 275.505 53.7348 275.593 53.8388C275.68 53.9427 275.666 54.0983 275.562 54.1856ZM277.988 54.3221C278.437 53.9455 279.144 54.0938 279.327 54.3116C279.34 54.3276 279.351 54.3443 279.357 54.364C279.042 54.4582 278.727 54.6249 278.442 54.8637C278.158 55.1025 277.939 55.3839 277.791 55.6775C277.773 55.6679 277.759 55.6546 277.745 55.6386C277.562 55.4207 277.539 54.6987 277.988 54.3221ZM278.747 55.2268C279.421 54.6613 280.285 54.5765 280.672 55.0378C280.772 55.158 280.855 55.3315 280.91 55.533C280.363 55.5393 279.85 55.7064 279.439 56.0511C279.028 56.3958 278.774 56.872 278.673 57.41C278.484 57.3202 278.328 57.2092 278.227 57.0892C277.84 56.6278 278.073 55.7924 278.747 55.2268ZM281.538 56.0734L279.096 58.1226C279.056 57.4361 279.268 56.813 279.744 56.4142C280.219 56.0154 280.869 55.9149 281.538 56.0734ZM279.179 58.6721L282.065 56.2503C282.369 56.383 282.668 56.5676 282.948 56.7998L279.567 59.6369C279.387 59.3209 279.257 58.9943 279.179 58.6721ZM272.235 62.868C271.323 61.7811 271.465 60.1549 272.552 59.2429C273.338 58.5837 276.11 58.1232 277.764 57.9196L273.992 61.084C273.892 61.1682 273.879 61.3177 273.963 61.418C274.047 61.5183 274.197 61.5313 274.297 61.4472L278.068 58.2827C277.581 59.8755 276.646 62.526 275.86 63.1852C274.773 64.0972 273.147 63.9549 272.235 62.868ZM278.874 62.5719C278.36 63.4714 277.246 63.8181 276.321 63.3985C277.204 62.4506 278.091 59.8214 278.505 58.4739C278.842 59.8283 279.246 61.9204 278.874 62.5719ZM284.545 62.1361C284.138 62.0584 283.334 61.8881 282.495 61.6171L284.389 60.0275C284.511 60.901 284.539 61.7222 284.545 62.1361ZM284.302 59.4823L281.973 61.4362C281.622 61.3052 281.279 61.1564 280.968 60.9889L284.036 58.415C284.147 58.7498 284.234 59.1141 284.302 59.4823ZM283.855 57.948L280.54 60.7295C280.325 60.5826 280.14 60.4239 279.996 60.2531C279.937 60.1823 279.881 60.1102 279.827 60.0372L283.297 57.1258C283.359 57.1912 283.421 57.2589 283.48 57.3296C283.624 57.5004 283.747 57.7111 283.855 57.948ZM285.959 56.6272C285.253 56.8807 283.263 56.1194 281.987 55.5521C283.386 55.3788 286.129 54.9618 287.216 54.2563C287.469 55.2405 286.934 56.277 285.959 56.6272ZM287.086 53.7657C286.3 54.4248 283.528 54.8853 281.875 55.0889L285.646 51.9244C285.746 51.8402 285.759 51.6908 285.675 51.5905C285.591 51.4902 285.441 51.4771 285.341 51.5613L281.57 54.7257C282.058 53.1329 282.992 50.4825 283.778 49.8234C284.865 48.9113 286.491 49.0536 287.403 50.1405C288.315 51.2274 288.173 52.8536 287.086 53.7657Z" fill="#17181C"/>
<defs>
<clipPath id="clip0_4417_63491">
<rect width="68" height="67" fill="white" transform="translate(83 97)"/>
</clipPath>
</defs>
</svg>
