<svg width="56" height="56" viewBox="0 0 56 56" fill="none" xmlns="http://www.w3.org/2000/svg">
<path d="M0 8C0 3.58172 3.58172 0 8 0H48C52.4183 0 56 3.58172 56 8V56H8C3.58172 56 0 52.4183 0 48V8Z" fill="#FFFAE7"/>
<path fill-rule="evenodd" clip-rule="evenodd" d="M42.3604 21.649L41.943 20.064C41.6998 19.1462 41.2229 18.3071 40.5588 17.6285C39.5021 16.5718 37.4258 15.3038 36.1208 14.5166C34.3834 13.4724 32.5837 12.5355 30.7319 11.7112C29.9957 11.3743 29.1957 11.2 28.3861 11.2C27.5765 11.2 26.7765 11.3743 26.0403 11.7112C24.196 12.5311 22.4034 13.4627 20.6725 14.5008C19.3675 15.288 17.2807 16.5454 16.2346 17.6126C15.5781 18.2936 15.1086 19.1325 14.8715 20.0482L14.4541 21.6332L42.3604 21.649Z" fill="url(#paint0_linear_4417_69353)"/>
<path fill-rule="evenodd" clip-rule="evenodd" d="M40.1152 18.4054C37.2173 16.2949 34.1039 14.4973 30.8272 13.0428C30.0679 12.6951 29.2426 12.5151 28.4075 12.5151C27.5723 12.5151 26.747 12.6951 25.9877 13.0428C22.711 14.4973 19.5977 16.2949 16.6997 18.4054C16.0191 18.8889 15.4507 19.5134 15.0332 20.2364C14.6156 20.9594 14.3587 21.7638 14.28 22.595C13.9067 26.1603 13.9067 29.7548 14.28 33.32C14.3587 34.1512 14.6156 34.9557 15.0332 35.6786C15.4507 36.4016 16.0191 37.0261 16.6997 37.5097C19.5977 39.6202 22.711 41.4177 25.9877 42.8722C26.747 43.2199 27.5723 43.3999 28.4075 43.3999C29.2426 43.3999 30.0679 43.2199 30.8272 42.8722C34.1039 41.4177 37.2173 39.6202 40.1152 37.5097C40.7958 37.0261 41.3642 36.4016 41.7818 35.6786C42.1993 34.9557 42.4562 34.1512 42.5349 33.32C42.9083 29.7548 42.9083 26.1603 42.5349 22.595C42.4562 21.7638 42.1993 20.9594 41.7818 20.2364C41.3642 19.5134 40.7958 18.8889 40.1152 18.4054Z" fill="url(#paint1_radial_4417_69353)"/>
<path fill-rule="evenodd" clip-rule="evenodd" d="M38.2608 20.9251C36.9025 19.937 35.4916 19.0234 34.0342 18.1883C32.5845 17.3481 31.0907 16.5862 29.5593 15.906C29.196 15.7339 28.799 15.6447 28.397 15.6447C27.995 15.6447 27.598 15.7339 27.2347 15.906C24.1712 17.2726 21.2585 18.9547 18.5437 20.9251C18.2122 21.1529 17.9359 21.4518 17.7348 21.8C17.5337 22.1483 17.4129 22.5371 17.3814 22.938C17.0291 26.2748 17.0291 29.6394 17.3814 32.9762C17.4129 33.3771 17.5337 33.7659 17.7348 34.1142C17.9359 34.4624 18.2122 34.7614 18.5437 34.9892C21.2585 36.9595 24.1712 38.6417 27.2347 40.0083C27.598 40.1803 27.995 40.2696 28.397 40.2696C28.799 40.2696 29.196 40.1803 29.5593 40.0083C31.0917 39.3301 32.5856 38.5682 34.0342 37.7259C35.4928 36.8927 36.9038 35.9791 38.2608 34.9892C38.5923 34.7614 38.8686 34.4624 39.0697 34.1142C39.2708 33.7659 39.3916 33.3771 39.4232 32.9762C39.7754 29.6394 39.7754 26.2748 39.4232 22.938C39.3916 22.5371 39.2708 22.1483 39.0697 21.8C38.8686 21.4518 38.5923 21.1529 38.2608 20.9251Z" fill="url(#paint2_radial_4417_69353)"/>
<path fill-rule="evenodd" clip-rule="evenodd" d="M27.2239 39.1793C25.6633 38.487 24.1413 37.711 22.6644 36.8546C21.1823 35.999 19.7484 35.0624 18.3691 34.0492C17.9181 33.737 17.5705 33.2973 17.3706 32.7865C17.3706 32.8446 17.3706 32.9027 17.3706 32.9608C17.4022 33.3618 17.5229 33.7505 17.724 34.0988C17.9251 34.4471 18.2015 34.746 18.5329 34.9738C21.2477 36.9442 24.1604 38.6263 27.2239 39.9929C27.5872 40.1649 27.9842 40.2542 28.3862 40.2542C28.7882 40.2542 29.1852 40.1649 29.5486 39.9929C31.0809 39.3148 32.5748 38.5528 34.0235 37.7105C35.482 36.8773 36.8931 35.9637 38.2501 34.9738C38.5815 34.746 38.8579 34.4471 39.059 34.0988C39.2601 33.7505 39.3808 33.3618 39.4124 32.9608C39.4124 32.9027 39.4124 32.8446 39.4124 32.7865C39.2211 33.2932 38.8849 33.7324 38.4456 34.0492C37.066 35.057 35.6321 35.9883 34.1503 36.8388C32.6734 37.6952 31.1514 38.4712 29.5908 39.1634C29.2208 39.3384 28.8166 39.4291 28.4074 39.4291C27.9981 39.4291 27.5939 39.3384 27.2239 39.1634V39.1793Z" fill="url(#paint3_linear_4417_69353)"/>
<defs>
<linearGradient id="paint0_linear_4417_69353" x1="16.7793" y1="19.6738" x2="42.3604" y2="19.6738" gradientUnits="userSpaceOnUse">
<stop stop-color="#FFDA33"/>
<stop offset="0.255" stop-color="#FFE366"/>
<stop offset="0.462213" stop-color="#FFF6CC"/>
<stop offset="0.745" stop-color="#FFE366"/>
<stop offset="1" stop-color="#FFDA33"/>
</linearGradient>
<radialGradient id="paint1_radial_4417_69353" cx="0" cy="0" r="1" gradientUnits="userSpaceOnUse" gradientTransform="translate(18.85 11.9925) scale(37.9022 37.8691)">
<stop stop-color="#FFCF00"/>
<stop offset="1" stop-color="#CCA700"/>
</radialGradient>
<radialGradient id="paint2_radial_4417_69353" cx="0" cy="0" r="1" gradientUnits="userSpaceOnUse" gradientTransform="translate(21.6123 15.3372) rotate(180) scale(22.1464 30.6409)">
<stop stop-color="#FFDA33"/>
<stop offset="1" stop-color="#CCA700"/>
</radialGradient>
<linearGradient id="paint3_linear_4417_69353" x1="19.2072" y1="38.8426" x2="39.4124" y2="38.8426" gradientUnits="userSpaceOnUse">
<stop stop-color="#FFDA33"/>
<stop offset="0.255" stop-color="#FFE366"/>
<stop offset="0.462213" stop-color="#FFF6CC"/>
<stop offset="0.745" stop-color="#FFE366"/>
<stop offset="1" stop-color="#FFDA33"/>
</linearGradient>
</defs>
</svg>
