<svg width="56" height="56" viewBox="0 0 56 56" fill="none" xmlns="http://www.w3.org/2000/svg">
<path d="M29.1667 53.0836H9.52001C5.85668 53.0836 2.84668 50.1436 2.84668 46.5036V11.8769C2.84668 8.30694 4.17668 5.53027 6.60335 4.01361C9.05335 2.47361 12.2267 2.52027 15.5167 4.15361L25.8767 9.24027C28.7 10.6403 30.9167 14.1636 30.9167 17.2903V51.3336C30.9167 52.2903 30.1233 53.0836 29.1667 53.0836ZM10.64 6.41694C9.82335 6.41694 9.07668 6.60361 8.44668 7.00027C7.09335 7.84027 6.34668 9.59027 6.34668 11.8769V46.5036C6.34668 48.2069 7.77001 49.5836 9.52001 49.5836H27.4167V17.2903C27.4167 15.4936 25.97 13.1836 24.3133 12.3903L13.9533 7.30361C12.7633 6.72027 11.6433 6.41694 10.64 6.41694Z" fill="#773B91"/>
<path d="M43.8898 53.0833H29.1665C28.2098 53.0833 27.4165 52.29 27.4165 51.3333V24.3133C27.4165 23.7766 27.6498 23.2866 28.0698 22.96C28.4898 22.6333 29.0032 22.4933 29.5398 22.61L30.6365 22.8433L45.8965 26.25C50.5398 27.2766 52.8732 30.0066 53.0132 34.65C53.0365 34.65 53.0365 34.8833 53.0365 35.14V43.96C53.0132 49.9333 49.8632 53.0833 43.8898 53.0833ZM30.9165 49.5833H43.8898C47.9965 49.5833 49.5132 48.0666 49.5132 43.96V34.9533C49.3965 31.7566 48.1832 30.3333 45.1265 29.6566L30.9165 26.4833V49.5833Z" fill="#773B91"/>
<path d="M20.9302 22.75H12.8335C11.8768 22.75 11.0835 21.9567 11.0835 21C11.0835 20.0433 11.8768 19.25 12.8335 19.25H20.9302C21.8868 19.25 22.6802 20.0433 22.6802 21C22.6802 21.9567 21.9102 22.75 20.9302 22.75Z" fill="#773B91"/>
<path d="M20.9302 32.083H12.8335C11.8768 32.083 11.0835 31.2897 11.0835 30.333C11.0835 29.3763 11.8768 28.583 12.8335 28.583H20.9302C21.8868 28.583 22.6802 29.3763 22.6802 30.333C22.6802 31.2897 21.9102 32.083 20.9302 32.083Z" fill="#773B91"/>
<path d="M35.5132 41.4168C31.6632 41.4168 28.5132 38.2668 28.5132 34.4168V24.5468C28.5132 24.0101 28.7465 23.5201 29.1665 23.1701C29.5865 22.8201 30.1232 22.7035 30.6365 22.8201L41.1365 25.1768C41.9298 25.3635 42.5132 26.0635 42.5132 26.8801V34.3934C42.5132 38.2668 39.3865 41.4168 35.5132 41.4168ZM32.0132 26.7401V34.4168C32.0132 36.3534 33.5765 37.9168 35.5132 37.9168C37.4499 37.9168 39.0132 36.3534 39.0132 34.4168V28.3035L32.0132 26.7401Z" fill="#773B91"/>
<path d="M46.0132 41.4165C42.1632 41.4165 39.0132 38.2665 39.0132 34.4165V26.9031C39.0132 26.3665 39.2465 25.8765 39.6665 25.5498C40.0865 25.2231 40.6232 25.0831 41.1365 25.1998L45.8732 26.2498C50.5165 27.2765 52.8498 30.0065 52.9898 34.6498C52.9898 34.6965 52.9898 34.7431 52.9898 34.7898C52.8032 38.4998 49.7465 41.4165 46.0132 41.4165ZM42.5132 29.0731V34.4165C42.5132 36.3531 44.0765 37.9165 46.0132 37.9165C47.8565 37.9165 49.3732 36.4931 49.4898 34.6731C49.3732 31.7331 48.1599 30.3331 45.1265 29.6565L42.5132 29.0731Z" fill="#773B91"/>
</svg>
