<svg width="56" height="56" viewBox="0 0 56 56" fill="none" xmlns="http://www.w3.org/2000/svg">
<rect width="56" height="56" rx="8" fill="#FCFCFA"/>
<path fill-rule="evenodd" clip-rule="evenodd" d="M41.667 31.457V35.2767C43.4738 34.965 44.9689 34.6057 46.1364 33.6918C47.0609 32.9891 47.9802 30.2684 47.8904 29.1008C46.0513 29.1196 44.2421 29.5683 42.6074 30.411C42.2251 30.6787 41.9059 31.0267 41.6723 31.4306L41.667 31.457Z" fill="url(#paint0_radial_4417_69371)"/>
<path fill-rule="evenodd" clip-rule="evenodd" d="M41.6724 27.1989V30.897C43.8384 30.5166 45.8459 30.2577 47.2512 29.1906C48.3606 28.3453 49.2535 25.7883 49.1478 24.383C47.5629 24.2932 44.3561 24.9906 42.8082 25.9679C42.35 26.2878 41.9676 26.7044 41.6882 27.1883L41.6724 27.1989Z" fill="url(#paint1_radial_4417_69371)"/>
<path fill-rule="evenodd" clip-rule="evenodd" d="M41.6724 22.9462V26.5545C44.2082 26.1107 46.5539 25.8096 48.1916 24.5628C48.8893 23.956 49.4478 23.2057 49.8289 22.3632C50.21 21.5208 50.4048 20.6059 50.3999 19.6813C48.572 19.5756 44.8052 20.3945 43.0037 21.5198C42.4689 21.8949 42.0219 22.3816 41.6935 22.9462H41.6724Z" fill="url(#paint2_radial_4417_69371)"/>
<path fill-rule="evenodd" clip-rule="evenodd" d="M14.333 31.457V35.2767C12.5262 34.965 11.0311 34.6057 9.86356 33.6918C8.93903 32.9891 8.01979 30.2684 8.1096 29.1008C9.94868 29.1196 11.7579 29.5683 13.3926 30.411C13.7749 30.6787 14.094 31.0267 14.3277 31.4306L14.333 31.457Z" fill="url(#paint3_radial_4417_69371)"/>
<path fill-rule="evenodd" clip-rule="evenodd" d="M14.3277 27.1989V30.897C12.1617 30.5166 10.1541 30.2577 8.74885 29.1906C7.63942 28.3453 6.7466 25.7883 6.85226 24.383C8.43715 24.2932 11.6439 24.9906 13.1919 25.9679C13.6501 26.2878 14.0324 26.7044 14.3118 27.1883L14.3277 27.1989Z" fill="url(#paint4_radial_4417_69371)"/>
<path fill-rule="evenodd" clip-rule="evenodd" d="M14.3277 22.9462V26.5545C11.7971 26.1107 9.44621 25.8096 7.80848 24.5628C7.11077 23.956 6.55227 23.2057 6.17115 22.3632C5.79003 21.5208 5.59528 20.6059 5.60019 19.6813C7.42811 19.5756 11.1949 20.3945 12.9964 21.5198C13.5311 21.8949 13.9781 22.3816 14.3066 22.9462H14.3277Z" fill="url(#paint5_radial_4417_69371)"/>
<path fill-rule="evenodd" clip-rule="evenodd" d="M41.9523 22.6554L41.5349 21.0705C41.2906 20.1517 40.8139 19.3112 40.1508 18.6298C39.0942 17.5732 37.018 16.3053 35.7131 15.5181C33.9757 14.4756 32.1761 13.5405 30.3244 12.7181C29.5883 12.3813 28.7883 12.2069 27.9788 12.2069C27.1692 12.2069 26.3692 12.3813 25.6331 12.7181C23.7814 13.5405 21.9818 14.4756 20.2445 15.5181C18.9396 16.3053 16.8528 17.5679 15.8067 18.6298C15.1513 19.3135 14.682 20.1539 14.4437 21.0705L14.0264 22.6554H41.9523Z" fill="url(#paint6_linear_4417_69371)"/>
<path fill-rule="evenodd" clip-rule="evenodd" d="M39.7071 19.4119C38.2623 18.3534 36.7596 17.3763 35.206 16.4851C33.6558 15.5856 32.058 14.7708 30.4196 14.0443C29.6595 13.6997 28.8346 13.5214 28 13.5214C27.1654 13.5214 26.3405 13.6997 25.5804 14.0443C23.942 14.7708 22.3442 15.5856 20.794 16.4851C19.2404 17.3763 17.7377 18.3534 16.2929 19.4119C15.6129 19.8948 15.0449 20.5185 14.6274 21.2404C14.2099 21.9624 13.9527 22.7658 13.8733 23.596C13.4999 27.1628 13.4999 30.7589 13.8733 34.3258C13.952 35.1569 14.2089 35.9613 14.6264 36.6842C15.0439 37.4072 15.6123 38.0317 16.2929 38.5152C17.7402 39.57 19.2427 40.5469 20.794 41.442C22.3436 42.3488 23.9414 43.1707 25.5804 43.9038C26.3396 44.2515 27.1649 44.4315 28 44.4315C28.8351 44.4315 29.6604 44.2515 30.4196 43.9038C32.058 43.1793 33.6558 42.3663 35.206 41.4684C36.7573 40.5734 38.2598 39.5964 39.7071 38.5416C40.3877 38.0581 40.9561 37.4336 41.3736 36.7106C41.7911 35.9877 42.048 35.1833 42.1267 34.3522C42.5001 30.7853 42.5001 27.1893 42.1267 23.6224C42.0473 22.7922 41.7901 21.9888 41.3726 21.2669C40.9551 20.5449 40.387 19.9212 39.7071 19.4383V19.4119Z" fill="url(#paint7_radial_4417_69371)"/>
<path fill-rule="evenodd" clip-rule="evenodd" d="M37.8528 21.9315C36.4971 20.9398 35.086 20.0262 33.6264 19.1949C32.1779 18.3527 30.684 17.5908 29.1517 16.9127C28.7884 16.7406 28.3915 16.6514 27.9895 16.6514C27.5875 16.6514 27.1905 16.7406 26.8272 16.9127C25.2949 17.5908 23.8011 18.3527 22.3525 19.1949C20.8929 20.0262 19.4818 20.9398 18.1261 21.9315C17.7944 22.159 17.5179 22.4579 17.3168 22.8062C17.1157 23.1545 16.9951 23.5434 16.9639 23.9443C16.6117 27.281 16.6117 30.6454 16.9639 33.982C16.9958 34.3821 17.1168 34.77 17.3179 35.1173C17.519 35.4646 17.7951 35.7626 18.1261 35.9896C20.8408 37.9599 23.7533 39.6419 26.8166 41.0084C27.1792 41.183 27.5765 41.2737 27.9789 41.2737C28.3813 41.2737 28.7786 41.183 29.1412 41.0084C30.6745 40.3325 32.1684 39.5705 33.6159 38.7262C35.0755 37.8949 36.4865 36.9813 37.8423 35.9896C38.1733 35.7626 38.4494 35.4646 38.6505 35.1173C38.8516 34.77 38.9725 34.3821 39.0045 33.982C39.3567 30.6454 39.3567 27.281 39.0045 23.9443C38.9733 23.5434 38.8527 23.1545 38.6516 22.8062C38.4505 22.4579 38.1739 22.159 37.8423 21.9315H37.8528Z" fill="url(#paint8_radial_4417_69371)"/>
<path fill-rule="evenodd" clip-rule="evenodd" d="M26.8167 40.2057C25.2541 39.5178 23.7319 38.7417 22.2574 37.8812C20.7752 37.024 19.3413 36.0857 17.9624 35.0707C17.5112 34.7563 17.1637 34.315 16.9639 33.8027C16.9639 33.8661 16.9639 33.9242 16.9639 33.9824C16.9958 34.3824 17.1168 34.7703 17.3179 35.1176C17.519 35.4649 17.7951 35.763 18.1261 35.9899C20.8408 37.9602 23.7533 39.6422 26.8167 41.0087C27.1792 41.1834 27.5765 41.274 27.9789 41.274C28.3813 41.274 28.7786 41.1834 29.1412 41.0087C30.6745 40.3328 32.1684 39.5708 33.6159 38.7265C35.0755 37.8953 36.4866 36.9816 37.8423 35.9899C38.1733 35.763 38.4494 35.4649 38.6505 35.1176C38.8516 34.7703 38.9725 34.3824 39.0045 33.9824C39.0045 33.9242 39.0045 33.8661 39.0045 33.8027C38.8047 34.315 38.4572 34.7563 38.006 35.0707C36.6264 36.0767 35.1926 37.0062 33.711 37.8548C32.2364 38.7153 30.7143 39.4914 29.1517 40.1793C28.7825 40.3568 28.378 40.449 27.9683 40.449C27.5587 40.449 27.1542 40.3568 26.785 40.1793L26.8167 40.2057Z" fill="url(#paint9_linear_4417_69371)"/>
<defs>
<radialGradient id="paint0_radial_4417_69371" cx="0" cy="0" r="1" gradientUnits="userSpaceOnUse" gradientTransform="translate(42.9077 29.0237) rotate(180) scale(6.11249 7.6846)">
<stop stop-color="#F3F2F2"/>
<stop offset="1" stop-color="#DBD9D7"/>
</radialGradient>
<radialGradient id="paint1_radial_4417_69371" cx="0" cy="0" r="1" gradientUnits="userSpaceOnUse" gradientTransform="translate(43.1629 24.2938) rotate(180) scale(7.34343 8.11499)">
<stop stop-color="#F3F2F2"/>
<stop offset="1" stop-color="#DBD9D7"/>
</radialGradient>
<radialGradient id="paint2_radial_4417_69371" cx="0" cy="0" r="1" gradientUnits="userSpaceOnUse" gradientTransform="translate(43.4106 19.5862) rotate(180) scale(8.56374 8.56374)">
<stop stop-color="#F3F2F2"/>
<stop offset="1" stop-color="#DBD9D7"/>
</radialGradient>
<radialGradient id="paint3_radial_4417_69371" cx="0" cy="0" r="1" gradientUnits="userSpaceOnUse" gradientTransform="translate(9.34418 29.0237) rotate(180) scale(6.1125 7.6846)">
<stop stop-color="#F3F2F2"/>
<stop offset="1" stop-color="#DBD9D7"/>
</radialGradient>
<radialGradient id="paint4_radial_4417_69371" cx="0" cy="0" r="1" gradientUnits="userSpaceOnUse" gradientTransform="translate(8.33426 24.2938) rotate(180) scale(7.34343 8.11499)">
<stop stop-color="#F3F2F2"/>
<stop offset="1" stop-color="#DBD9D7"/>
</radialGradient>
<radialGradient id="paint5_radial_4417_69371" cx="0" cy="0" r="1" gradientUnits="userSpaceOnUse" gradientTransform="translate(7.33829 19.5862) rotate(180) scale(8.56374)">
<stop stop-color="#F3F2F2"/>
<stop offset="1" stop-color="#DBD9D7"/>
</radialGradient>
<linearGradient id="paint6_linear_4417_69371" x1="16.3532" y1="20.6803" x2="41.9523" y2="20.6803" gradientUnits="userSpaceOnUse">
<stop stop-color="#CFCDC9"/>
<stop offset="0.255" stop-color="#E5E4E2"/>
<stop offset="0.462213" stop-color="#F3F2F2"/>
<stop offset="0.745" stop-color="#E5E4E2"/>
<stop offset="1" stop-color="#CFCDC9"/>
</linearGradient>
<radialGradient id="paint7_radial_4417_69371" cx="0" cy="0" r="1" gradientUnits="userSpaceOnUse" gradientTransform="translate(18.4431 12.9983) scale(37.9002 37.9002)">
<stop stop-color="#E5E4E2"/>
<stop offset="1" stop-color="#CFCDC9"/>
</radialGradient>
<radialGradient id="paint8_radial_4417_69371" cx="0" cy="0" r="1" gradientUnits="userSpaceOnUse" gradientTransform="translate(21.111 15.9459) scale(28.9403 28.9403)">
<stop stop-color="#F3F2F2"/>
<stop offset="1" stop-color="#C2C0BC"/>
</radialGradient>
<linearGradient id="paint9_linear_4417_69371" x1="18.8003" y1="39.8617" x2="39.0045" y2="39.8617" gradientUnits="userSpaceOnUse">
<stop stop-color="#CFCDC9"/>
<stop offset="0.255" stop-color="#E5E4E2"/>
<stop offset="0.462213" stop-color="#F3F2F2"/>
<stop offset="0.745" stop-color="#E5E4E2"/>
<stop offset="1" stop-color="#CFCDC9"/>
</linearGradient>
</defs>
</svg>
