<svg width="56" height="56" viewBox="0 0 56 56" fill="none" xmlns="http://www.w3.org/2000/svg">
<path d="M28.0002 29.7503C20.6035 29.7503 14.5835 23.7303 14.5835 16.3337C14.5835 8.93699 20.6035 2.91699 28.0002 2.91699C35.3968 2.91699 41.4168 8.93699 41.4168 16.3337C41.4168 23.7303 35.3968 29.7503 28.0002 29.7503ZM28.0002 6.41699C22.5402 6.41699 18.0835 10.8737 18.0835 16.3337C18.0835 21.7937 22.5402 26.2503 28.0002 26.2503C33.4602 26.2503 37.9168 21.7937 37.9168 16.3337C37.9168 10.8737 33.4602 6.41699 28.0002 6.41699Z" fill="#1798B5"/>
<path d="M48.0437 53.0833C47.087 53.0833 46.2937 52.29 46.2937 51.3333C46.2937 43.2833 38.0804 36.75 28.0004 36.75C17.9204 36.75 9.70703 43.2833 9.70703 51.3333C9.70703 52.29 8.9137 53.0833 7.95703 53.0833C7.00036 53.0833 6.20703 52.29 6.20703 51.3333C6.20703 41.37 15.9837 33.25 28.0004 33.25C40.017 33.25 49.7937 41.37 49.7937 51.3333C49.7937 52.29 49.0004 53.0833 48.0437 53.0833Z" fill="#1798B5"/>
</svg>
