<svg width="56" height="56" viewBox="0 0 56 56" fill="none" xmlns="http://www.w3.org/2000/svg">
<path d="M0 8C0 3.58172 3.58172 0 8 0H48C52.4183 0 56 3.58172 56 8V56H8C3.58172 56 0 52.4183 0 48V8Z" fill="#FBFBFB"/>
<path fill-rule="evenodd" clip-rule="evenodd" d="M42.3794 23.056L41.9618 21.4699C41.7173 20.5504 41.2402 19.7093 40.5767 19.0275C39.5193 17.9701 37.4416 16.7013 36.1358 15.9135C34.3972 14.8703 32.5963 13.9345 30.7433 13.1116C30.0066 12.7745 29.206 12.6 28.3959 12.6C27.5858 12.6 26.7853 12.7745 26.0486 13.1116C24.1968 13.9335 22.3976 14.8693 20.6614 15.9135C19.3503 16.7013 17.262 17.9648 16.2152 19.0275C15.5593 19.7117 15.0897 20.5526 14.8512 21.4699L14.4336 23.056H42.3794Z" fill="url(#paint0_linear_4417_69332)"/>
<path fill-rule="evenodd" clip-rule="evenodd" d="M40.1325 19.8041C38.6852 18.7485 37.1816 17.7725 35.6282 16.8805C34.0785 15.9711 32.4794 15.1486 30.8384 14.4168C30.0786 14.0689 29.2527 13.8888 28.417 13.8888C27.5813 13.8888 26.7555 14.0689 25.9957 14.4168C24.3551 15.1417 22.756 15.9571 21.2059 16.8593C19.6525 17.7514 18.1488 18.7274 16.7015 19.7829C16.0205 20.2668 15.4517 20.8917 15.0339 21.6152C14.616 22.3386 14.359 23.1436 14.2802 23.9753C13.9066 27.5447 13.9066 31.1434 14.2802 34.7127C14.359 35.5445 14.616 36.3494 15.0339 37.0729C15.4517 37.7963 16.0205 38.4213 16.7015 38.9052C19.6047 41.0119 22.7196 42.8103 25.9957 44.2712C26.7555 44.6192 27.5813 44.7993 28.417 44.7993C29.2527 44.7993 30.0786 44.6192 30.8384 44.2712C34.1145 42.8103 37.2293 41.0119 40.1325 38.9052C40.8136 38.4213 41.3824 37.7963 41.8002 37.0729C42.218 36.3494 42.4751 35.5445 42.5538 34.7127C42.9274 31.1434 42.9274 27.5447 42.5538 23.9753C42.4751 23.1436 42.218 22.3386 41.8002 21.6152C41.3824 20.8917 40.8136 20.2668 40.1325 19.7829V19.8041Z" fill="url(#paint1_radial_4417_69332)"/>
<path fill-rule="evenodd" clip-rule="evenodd" d="M38.2767 22.3474C36.92 21.355 35.5079 20.4407 34.0472 19.6089C32.5988 18.7639 31.1038 18.0014 29.5694 17.325C29.2058 17.1528 28.8085 17.0635 28.4063 17.0635C28.004 17.0635 27.6067 17.1528 27.2432 17.325C24.1813 18.6931 21.2703 20.3763 18.557 22.3474C18.2258 22.5745 17.9494 22.8727 17.7482 23.2203C17.547 23.5679 17.4259 23.956 17.3939 24.3564C17.0419 27.6954 17.0419 31.0622 17.3939 34.4012C17.4259 34.8016 17.547 35.1897 17.7482 35.5373C17.9494 35.8849 18.2258 36.1831 18.557 36.4102C21.2736 38.3819 24.1882 40.0651 27.2538 41.4326C27.6173 41.6048 28.0146 41.6941 28.4168 41.6941C28.8191 41.6941 29.2164 41.6048 29.5799 41.4326C31.1143 40.7562 32.6093 39.9937 34.0578 39.1487C35.5185 38.3169 36.9306 37.4026 38.2872 36.4102C38.6185 36.1831 38.8948 35.8849 39.0961 35.5373C39.2973 35.1897 39.4183 34.8016 39.4503 34.4012C39.8024 31.0622 39.8024 27.6954 39.4503 24.3564C39.4183 23.956 39.2973 23.5679 39.0961 23.2203C38.8948 22.8727 38.6185 22.5745 38.2872 22.3474H38.2767Z" fill="url(#paint2_radial_4417_69332)"/>
<path fill-rule="evenodd" clip-rule="evenodd" d="M27.2329 40.5919C25.6713 39.8993 24.1482 39.1227 22.6704 38.2658C21.1877 37.4165 19.7528 36.4864 18.3722 35.4796C17.9219 35.1639 17.5744 34.7227 17.373 34.2108C17.373 34.269 17.373 34.3271 17.373 34.3906C17.4051 34.7909 17.5261 35.1791 17.7273 35.5266C17.9285 35.8742 18.2049 36.1724 18.5361 36.3995C21.2527 38.3712 24.1674 40.0545 27.2329 41.422C27.5964 41.5941 27.9937 41.6835 28.396 41.6835C28.7982 41.6835 29.1955 41.5941 29.559 41.422C31.0935 40.7455 32.5885 39.983 34.0369 39.1381C35.4976 38.3063 36.9097 37.3919 38.2664 36.3995C38.5976 36.1724 38.8739 35.8742 39.0752 35.5266C39.2764 35.1791 39.3974 34.7909 39.4294 34.3906C39.4294 34.3271 39.4294 34.269 39.4294 34.2108C39.2281 34.7227 38.8806 35.1639 38.4302 35.4796C37.0497 36.4864 35.6148 37.4165 34.1321 38.2658C32.6543 39.1227 31.1312 39.8993 29.5696 40.5919C29.1994 40.767 28.7949 40.8578 28.3854 40.8578C27.9758 40.8578 27.5714 40.767 27.2011 40.5919H27.2329Z" fill="url(#paint3_linear_4417_69332)"/>
<defs>
<linearGradient id="paint0_linear_4417_69332" x1="16.7621" y1="21.0795" x2="42.3795" y2="21.0795" gradientUnits="userSpaceOnUse">
<stop stop-color="#A6A6A6"/>
<stop offset="0.255" stop-color="#CCCCCC"/>
<stop offset="0.462213" stop-color="#F2F2F2"/>
<stop offset="0.745" stop-color="#CCCCCC"/>
<stop offset="1" stop-color="#A6A6A6"/>
</linearGradient>
<radialGradient id="paint1_radial_4417_69332" cx="0" cy="0" r="1" gradientUnits="userSpaceOnUse" gradientTransform="translate(18.8533 13.3657) scale(37.9273 37.9006)">
<stop stop-color="#DFDFDF"/>
<stop offset="0.0572131" stop-color="#E6E6E6"/>
<stop offset="1" stop-color="#CCCCCC"/>
</radialGradient>
<radialGradient id="paint2_radial_4417_69332" cx="0" cy="0" r="1" gradientUnits="userSpaceOnUse" gradientTransform="translate(21.6278 16.756) rotate(180) scale(22.1605 30.648)">
<stop stop-color="#D9D9D9"/>
<stop offset="1" stop-color="#999999"/>
<stop offset="1" stop-color="#B3B3B3"/>
</radialGradient>
<linearGradient id="paint3_linear_4417_69332" x1="19.2108" y1="40.2709" x2="39.4295" y2="40.2709" gradientUnits="userSpaceOnUse">
<stop stop-color="#A6A6A6"/>
<stop offset="0.255" stop-color="#CCCCCC"/>
<stop offset="0.462213" stop-color="#F2F2F2"/>
<stop offset="0.745" stop-color="#CCCCCC"/>
<stop offset="1" stop-color="#A6A6A6"/>
</linearGradient>
</defs>
</svg>
