<svg width="56" height="56" viewBox="0 0 56 56" fill="none" xmlns="http://www.w3.org/2000/svg">
<rect width="56" height="56" rx="8" fill="url(#paint0_radial_4417_69416)" fill-opacity="0.1"/>
<path fill-rule="evenodd" clip-rule="evenodd" d="M14.6201 20.9551V23.2758C13.0284 22.8102 11.5581 22.0015 10.3125 20.9066C9.54794 20.1366 9.23565 18.3975 9.40795 17.4067C10.984 18.0066 12.4517 18.8596 13.7532 19.932C14.0746 20.2417 14.36 20.5867 14.6039 20.9605L14.6201 20.9551Z" fill="url(#paint1_radial_4417_69416)"/>
<path fill-rule="evenodd" clip-rule="evenodd" d="M14.6199 31.7027V35.1971C12.52 34.8741 10.7808 34.4864 9.41319 33.5818C8.33631 32.8388 7.10866 30.5019 7.14635 29.2743C9.29636 29.2943 11.4191 29.758 13.3815 30.6365C13.8419 30.9369 14.2586 31.2992 14.6199 31.7134V31.7027Z" fill="url(#paint2_radial_4417_69416)"/>
<path fill-rule="evenodd" clip-rule="evenodd" d="M14.6202 27.7237V31.5897C11.928 30.9489 9.48345 30.4536 7.76044 29.1828C6.39818 28.1813 5.29976 25.4137 5.4236 23.9653C7.35122 24.0515 11.3142 25.1445 13.2418 26.3237C13.7878 26.6964 14.256 27.1719 14.6202 27.7237Z" fill="url(#paint3_radial_4417_69416)"/>
<path fill-rule="evenodd" clip-rule="evenodd" d="M14.6199 23.4212V27.5295C11.6047 26.7433 8.80476 26.1349 6.8556 24.5357C5.29951 23.2758 4.06648 20.5836 4.21185 18.726C6.36562 18.8121 10.8831 20.1636 13.0584 21.6497C13.69 22.1321 14.2206 22.734 14.6199 23.4212Z" fill="url(#paint4_radial_4417_69416)"/>
<path fill-rule="evenodd" clip-rule="evenodd" d="M14.62 30.0717V32.5486C12.9454 32.3674 11.3454 31.7593 9.97324 30.7825C8.98008 29.8401 8.39949 28.5434 8.35791 27.1749C10.2061 27.4431 11.9819 28.0784 13.5808 29.0433C13.9813 29.3398 14.3431 29.6853 14.6577 30.0717H14.62Z" fill="url(#paint5_radial_4417_69416)"/>
<path fill-rule="evenodd" clip-rule="evenodd" d="M14.6201 26.1192V29.3822C12.5128 28.8463 10.5506 27.8495 8.87493 26.4638C7.82365 25.3712 7.24357 23.9094 7.2596 22.3932C9.10107 22.5709 11.3087 23.0878 12.7463 24.1054C13.4409 24.7047 14.0658 25.3802 14.6093 26.1192H14.6201Z" fill="url(#paint6_radial_4417_69416)"/>
<path fill-rule="evenodd" clip-rule="evenodd" d="M41.3911 20.9551V23.2758C42.9828 22.8102 44.4531 22.0015 45.6986 20.9066C46.4632 20.1366 46.7755 18.3975 46.6032 17.4067C45.0271 18.0066 43.5595 18.8596 42.258 19.932C41.9366 20.2417 41.6512 20.5867 41.4073 20.9605L41.3911 20.9551Z" fill="url(#paint7_radial_4417_69416)"/>
<path fill-rule="evenodd" clip-rule="evenodd" d="M41.3911 31.7027V35.1971C43.491 34.8741 45.2302 34.4864 46.5978 33.5818C47.7016 32.8388 48.9024 30.5019 48.8647 29.2743C46.7147 29.2943 44.592 29.758 42.6295 30.6365C42.1692 30.9369 41.7524 31.2992 41.3911 31.7134V31.7027Z" fill="url(#paint8_radial_4417_69416)"/>
<path fill-rule="evenodd" clip-rule="evenodd" d="M41.3911 27.7237V31.5897C44.0833 30.9489 46.5278 30.4536 48.2509 29.1828C49.6131 28.1813 50.7115 25.4137 50.5877 23.9653C48.6601 24.0515 44.6971 25.1445 42.7695 26.3237C42.2235 26.6964 41.7553 27.1719 41.3911 27.7237Z" fill="url(#paint9_radial_4417_69416)"/>
<path fill-rule="evenodd" clip-rule="evenodd" d="M41.3911 23.4212V27.5295C44.4064 26.7433 47.2063 26.1349 49.1555 24.5357C50.7008 23.265 51.9338 20.5836 51.7884 18.726C49.6078 18.8121 45.1172 20.1636 42.9419 21.6497C42.3103 22.1321 41.7797 22.734 41.3804 23.4212H41.3911Z" fill="url(#paint10_radial_4417_69416)"/>
<path fill-rule="evenodd" clip-rule="evenodd" d="M41.3912 30.0717V32.5486C43.0658 32.3674 44.6658 31.7593 46.038 30.7825C47.0311 29.8401 47.6117 28.5434 47.6533 27.1749C45.8051 27.4431 44.0293 28.0784 42.4304 29.0433C42.0299 29.3398 41.6681 29.6853 41.3535 30.0717H41.3912Z" fill="url(#paint11_radial_4417_69416)"/>
<path fill-rule="evenodd" clip-rule="evenodd" d="M41.3911 26.1192V29.3822C43.4984 28.8463 45.4606 27.8495 47.1363 26.4638C48.1876 25.3712 48.7676 23.9094 48.7516 22.3932C46.9101 22.5709 44.7025 23.0878 43.2649 24.1054C42.5703 24.7047 41.9454 25.3802 41.4019 26.1192H41.3911Z" fill="url(#paint12_radial_4417_69416)"/>
<path fill-rule="evenodd" clip-rule="evenodd" d="M42.0806 21.8437L41.6552 20.2284C41.4111 19.2962 40.9329 18.4418 40.2661 17.7461C39.1892 16.6693 37.0731 15.377 35.7432 14.5747C33.9731 13.5111 32.1388 12.5581 30.2511 11.721C29.5008 11.3777 28.6854 11.2 27.8604 11.2C27.0353 11.2 26.2199 11.3777 25.4697 11.721C23.5842 12.5592 21.7518 13.5122 19.983 14.5747C18.6476 15.377 16.5262 16.6639 15.4601 17.7461C14.7917 18.4415 14.3117 19.2958 14.0655 20.2284L13.6401 21.8437H42.0806Z" fill="url(#paint13_linear_4417_69416)"/>
<path fill-rule="evenodd" clip-rule="evenodd" d="M39.7973 18.5321C38.3214 17.4571 36.7882 16.4631 35.2044 15.5545C33.6261 14.6283 31.9975 13.7906 30.3261 13.0454C29.553 12.6918 28.7129 12.5088 27.8627 12.5088C27.0126 12.5088 26.1725 12.6918 25.3994 13.0454C23.728 13.7825 22.0993 14.613 20.5211 15.533C18.9373 16.4415 17.4041 17.4355 15.9282 18.5105C15.2347 19.008 14.6562 19.6486 14.2316 20.3889C13.8071 21.1293 13.5465 21.9522 13.4675 22.8019C13.087 26.4372 13.087 30.1023 13.4675 33.7377C13.5501 34.5841 13.813 35.4031 14.2383 36.1395C14.6637 36.876 15.2417 37.5129 15.9336 38.0075C17.4095 39.0825 18.9427 40.0765 20.5265 40.9851C22.1058 41.9029 23.7344 42.7334 25.4048 43.4727C26.1779 43.8263 27.018 44.0093 27.8681 44.0093C28.7182 44.0093 29.5584 43.8263 30.3315 43.4727C33.669 41.9833 36.843 40.1518 39.8027 38.0075C40.4953 37.5142 41.0736 36.8774 41.4982 36.1407C41.9228 35.4039 42.1838 34.5843 42.2634 33.7377C42.6439 30.1023 42.6439 26.4372 42.2634 22.8019C42.1838 21.9553 41.9228 21.1357 41.4982 20.3989C41.0736 19.6621 40.4953 19.0254 39.8027 18.5321H39.7973Z" fill="url(#paint14_radial_4417_69416)"/>
<path fill-rule="evenodd" clip-rule="evenodd" d="M37.9075 21.122C35.1399 19.1122 32.1694 17.3978 29.0447 16.0068C28.6755 15.8311 28.2718 15.74 27.8629 15.74C27.454 15.74 27.0502 15.8311 26.681 16.0068C23.5563 17.3978 20.5859 19.1122 17.8182 21.122C17.4809 21.3532 17.1994 21.657 16.9945 22.011C16.7895 22.365 16.6663 22.7603 16.6337 23.168C16.2751 26.5687 16.2751 29.9977 16.6337 33.3984C16.6663 33.8062 16.7895 34.2015 16.9945 34.5555C17.1994 34.9095 17.4809 35.2132 17.8182 35.4445C19.2008 36.454 20.6389 37.3852 22.1258 38.2336C23.6023 39.0953 25.1267 39.8719 26.6918 40.5597C27.061 40.7353 27.4647 40.8265 27.8736 40.8265C28.2825 40.8265 28.6863 40.7353 29.0555 40.5597C30.6195 39.8697 32.1438 39.0931 33.6215 38.2336C35.1076 37.3839 36.5456 36.4528 37.929 35.4445C38.2651 35.2124 38.5453 34.9083 38.7493 34.5544C38.9533 34.2005 39.0759 33.8056 39.1082 33.3984C39.4668 29.9977 39.4668 26.5687 39.1082 23.168C39.0759 22.7608 38.9533 22.366 38.7493 22.012C38.5453 21.6581 38.2651 21.3541 37.929 21.122H37.9075Z" fill="url(#paint15_radial_4417_69416)"/>
<path fill-rule="evenodd" clip-rule="evenodd" d="M26.6596 39.7046C25.0674 38.9991 23.5144 38.2082 22.0075 37.3354C20.4991 36.4705 19.0395 35.5232 17.6353 34.4978C17.1751 34.1779 16.8207 33.728 16.6177 33.2056V33.3886C16.6503 33.7964 16.7735 34.1917 16.9785 34.5457C17.1834 34.8997 17.4649 35.2034 17.8022 35.4347C19.1848 36.4443 20.6229 37.3754 22.1098 38.2238C23.5863 39.0855 25.1107 39.8621 26.6758 40.5499C27.045 40.7255 27.4488 40.8167 27.8576 40.8167C28.2665 40.8167 28.6703 40.7255 29.0395 40.5499C30.6035 39.8599 32.1279 39.0833 33.6055 38.2238C35.0916 37.3741 36.5296 36.443 37.913 35.4347C38.2491 35.2026 38.5293 34.8985 38.7333 34.5446C38.9373 34.1907 39.0599 33.7958 39.0922 33.3886C39.0922 33.324 39.0922 33.2648 39.0922 33.2056C38.8872 33.7269 38.5333 34.1763 38.0746 34.4978C36.6685 35.5232 35.2071 36.4705 33.697 37.3354C32.1919 38.2082 30.6407 38.9991 29.0503 39.7046C28.6741 39.8828 28.2631 39.9752 27.8469 39.9752C27.4306 39.9752 27.0196 39.8828 26.6435 39.7046H26.6596Z" fill="url(#paint16_linear_4417_69416)"/>
<defs>
<radialGradient id="paint0_radial_4417_69416" cx="0" cy="0" r="1" gradientUnits="userSpaceOnUse" gradientTransform="translate(5.92174 -13.4192) scale(112.553 103.248)">
<stop offset="0.21" stop-color="#FFBB00"/>
<stop offset="0.47" stop-color="#F011F0"/>
<stop offset="0.77" stop-color="#2BA3FF"/>
</radialGradient>
<radialGradient id="paint1_radial_4417_69416" cx="0" cy="0" r="1" gradientUnits="userSpaceOnUse" gradientTransform="translate(11.7448 16.6422) scale(10.3542 10.3542)">
<stop stop-color="#E600DD"/>
<stop offset="0.78" stop-color="#5900CC"/>
<stop offset="1" stop-color="#335BCC"/>
</radialGradient>
<radialGradient id="paint2_radial_4417_69416" cx="0" cy="0" r="1" gradientUnits="userSpaceOnUse" gradientTransform="translate(9.35396 26.6359) scale(10.8819 10.8819)">
<stop stop-color="#FFB81F"/>
<stop offset="0.6" stop-color="#DB00D3"/>
<stop offset="1" stop-color="#5900CC"/>
</radialGradient>
<radialGradient id="paint3_radial_4417_69416" cx="0" cy="0" r="1" gradientUnits="userSpaceOnUse" gradientTransform="translate(6.3228 23.3192) scale(12.158 12.158)">
<stop stop-color="#FFB81F"/>
<stop offset="0.6" stop-color="#DB00D3"/>
<stop offset="1" stop-color="#5900CC"/>
</radialGradient>
<radialGradient id="paint4_radial_4417_69416" cx="0" cy="0" r="1" gradientUnits="userSpaceOnUse" gradientTransform="translate(5.08413 17.3368) scale(12.7234)">
<stop stop-color="#FFB81F"/>
<stop offset="0.6" stop-color="#DB00D3"/>
<stop offset="1" stop-color="#5900CC"/>
</radialGradient>
<radialGradient id="paint5_radial_4417_69416" cx="0" cy="0" r="1" gradientUnits="userSpaceOnUse" gradientTransform="translate(9.18711 25.7911) scale(12.298 12.298)">
<stop stop-color="#FFE11F"/>
<stop offset="0.6" stop-color="#FF22F7"/>
<stop offset="1" stop-color="#6300E3"/>
</radialGradient>
<radialGradient id="paint6_radial_4417_69416" cx="0" cy="0" r="1" gradientUnits="userSpaceOnUse" gradientTransform="translate(9.79566 22.1294) scale(12.4811 12.4811)">
<stop stop-color="#FFE11F"/>
<stop offset="0.6" stop-color="#FF22F7"/>
<stop offset="1" stop-color="#6300E3"/>
</radialGradient>
<radialGradient id="paint7_radial_4417_69416" cx="0" cy="0" r="1" gradientUnits="userSpaceOnUse" gradientTransform="translate(44.2179 12.1946) rotate(180) scale(10.3542 10.3542)">
<stop stop-color="#00FFDD"/>
<stop offset="1" stop-color="#6F27FF"/>
</radialGradient>
<radialGradient id="paint8_radial_4417_69416" cx="0" cy="0" r="1" gradientUnits="userSpaceOnUse" gradientTransform="translate(49.0262 25.1014) rotate(180) scale(10.8819 10.8819)">
<stop stop-color="#00B7FF"/>
<stop offset="1" stop-color="#6F27FF"/>
</radialGradient>
<radialGradient id="paint9_radial_4417_69416" cx="0" cy="0" r="1" gradientUnits="userSpaceOnUse" gradientTransform="translate(50.4262 18.9686) rotate(180) scale(12.158)">
<stop stop-color="#00B7FF"/>
<stop offset="1" stop-color="#6F27FF"/>
</radialGradient>
<radialGradient id="paint10_radial_4417_69416" cx="0" cy="0" r="1" gradientUnits="userSpaceOnUse" gradientTransform="translate(50.0385 15.6999) rotate(180) scale(12.7234 12.7234)">
<stop stop-color="#00B7FF"/>
<stop offset="1" stop-color="#6F27FF"/>
</radialGradient>
<radialGradient id="paint11_radial_4417_69416" cx="0" cy="0" r="1" gradientUnits="userSpaceOnUse" gradientTransform="translate(47.3194 23.9604) rotate(180) scale(9.71887)">
<stop stop-color="#00FFDD"/>
<stop offset="1" stop-color="#6F27FF"/>
</radialGradient>
<radialGradient id="paint12_radial_4417_69416" cx="0" cy="0" r="1" gradientUnits="userSpaceOnUse" gradientTransform="translate(47.1524 21.4886) rotate(180) scale(9.89117 9.89117)">
<stop stop-color="#00FFDD"/>
<stop offset="1" stop-color="#6F27FF"/>
</radialGradient>
<linearGradient id="paint13_linear_4417_69416" x1="13.6401" y1="16.5185" x2="42.0806" y2="16.5185" gradientUnits="userSpaceOnUse">
<stop stop-color="#FFC560"/>
<stop offset="0.01" stop-color="#FFC661"/>
<stop offset="0.13" stop-color="#FFD96D"/>
<stop offset="0.22" stop-color="#FFE071"/>
<stop offset="0.49" stop-color="#FFFFB3"/>
<stop offset="0.5" stop-color="#FFF39E"/>
<stop offset="0.52" stop-color="#FEDE79"/>
<stop offset="0.53" stop-color="#FECC5A"/>
<stop offset="0.55" stop-color="#FDBE42"/>
<stop offset="0.57" stop-color="#FDB531"/>
<stop offset="0.58" stop-color="#FDAF27"/>
<stop offset="0.61" stop-color="#FDAD24"/>
<stop offset="0.79" stop-color="#FD2CB9"/>
<stop offset="0.82" stop-color="#FD19CF"/>
<stop offset="1" stop-color="#8211AB"/>
</linearGradient>
<radialGradient id="paint14_radial_4417_69416" cx="0" cy="0" r="1" gradientUnits="userSpaceOnUse" gradientTransform="translate(18.125 12.0008) scale(38.6278 38.6278)">
<stop stop-color="#FFF70E"/>
<stop offset="0.41" stop-color="#FF36FF"/>
<stop offset="1" stop-color="#0091FF"/>
</radialGradient>
<radialGradient id="paint15_radial_4417_69416" cx="0" cy="0" r="1" gradientUnits="userSpaceOnUse" gradientTransform="translate(18.7982 9.72853) scale(46.2521 46.2521)">
<stop offset="0.21" stop-color="#FFBB00"/>
<stop offset="0.47" stop-color="#F011F0"/>
<stop offset="0.77" stop-color="#2BA3FF"/>
</radialGradient>
<linearGradient id="paint16_linear_4417_69416" x1="16.6177" y1="37.0123" x2="39.1084" y2="37.0123" gradientUnits="userSpaceOnUse">
<stop stop-color="#BE3AC2"/>
<stop offset="0.24" stop-color="#9763FF"/>
<stop offset="0.33" stop-color="#9665FF"/>
<stop offset="0.37" stop-color="#946DFF"/>
<stop offset="0.41" stop-color="#907AFF"/>
<stop offset="0.44" stop-color="#8B8CFF"/>
<stop offset="0.46" stop-color="#84A4FF"/>
<stop offset="0.48" stop-color="#7CC1FF"/>
<stop offset="0.5" stop-color="#72E3FF"/>
<stop offset="0.51" stop-color="#70E9FF"/>
<stop offset="0.78" stop-color="#3399FF"/>
<stop offset="0.9" stop-color="#3992FF"/>
<stop offset="1" stop-color="#4089FF"/>
</linearGradient>
</defs>
</svg>
