<svg width="614" height="576" viewBox="0 0 614 576" fill="none" xmlns="http://www.w3.org/2000/svg">
<path d="M103.996 309.405L41.1049 322.855C36.7062 323.796 33.9035 328.122 34.8449 332.518L48.3046 395.365C49.246 399.76 53.575 402.561 57.9737 401.62L120.865 388.17C125.263 387.229 128.066 382.903 127.125 378.508L113.665 315.661C112.724 311.265 108.395 308.464 103.996 309.405Z" fill="#F2F2F3"/>
<path d="M109.513 363.1C109.455 362.493 109.29 361.9 109.028 361.35L108.81 360.8C107.392 358.302 105.253 356.289 102.673 355.025C100.348 353.77 97.8735 352.817 95.3078 352.188L94.9881 352.111C94.889 352.084 94.7836 352.09 94.6885 352.13C94.5935 352.169 94.5144 352.239 94.4639 352.329L89.4644 360.877L71.1161 349.122L76.1155 339.884C76.1405 339.825 76.1534 339.762 76.1534 339.698C76.1534 339.635 76.1405 339.572 76.1155 339.513C76.097 339.45 76.0643 339.392 76.02 339.343C75.9757 339.294 75.9209 339.256 75.8598 339.232L71.6531 337.213C70.9626 336.894 70.5279 336.689 70.2466 336.6C70.1163 336.516 69.9795 336.444 69.8374 336.382L69.5945 336.255C69.2908 336.093 68.9743 335.956 68.6483 335.846C67.0441 335.264 65.341 335.004 63.6361 335.079C60.8985 335.207 58.2733 336.205 56.1433 337.929C54.7131 339.064 53.5634 340.514 52.783 342.164C52.0026 343.815 51.6124 345.622 51.6425 347.448C51.741 349.664 52.716 351.75 54.3532 353.249C55.1739 353.991 56.0695 354.646 57.0255 355.204L84.9381 373.092C85.2833 373.296 85.6286 373.526 85.9738 373.744C86.7973 374.298 87.6511 374.805 88.5311 375.264C89.8494 375.946 91.2567 376.441 92.7122 376.734C93.7094 376.937 94.7247 377.04 95.7425 377.04C97.7754 377.033 99.7839 376.598 101.637 375.762C104.461 374.512 106.768 372.328 108.171 369.578C108.533 368.916 108.824 368.218 109.04 367.495L109.155 367.125C109.385 366.532 109.519 365.907 109.552 365.272L109.628 364.071L109.513 363.1ZM74.5428 340.101L69.3004 349.339C69.24 349.444 69.2209 349.567 69.2469 349.685C69.2729 349.804 69.3422 349.908 69.4411 349.978L89.6435 363.215C89.6961 363.254 89.757 363.279 89.8213 363.291C89.8857 363.302 89.9517 363.298 90.0143 363.279C90.0776 363.266 90.1374 363.239 90.1902 363.202C90.243 363.165 90.2876 363.117 90.3211 363.062L95.5252 354.258C97.6985 354.861 99.7929 355.719 101.765 356.814C103.976 357.906 105.823 359.615 107.084 361.733C107.148 361.912 107.212 362.091 107.289 362.27C107.475 362.645 107.587 363.053 107.621 363.471L107.762 364.301L107.672 365.323C107.644 365.795 107.545 366.261 107.378 366.703L107.25 367.099C107.07 367.713 106.822 368.305 106.509 368.863C105.283 371.198 103.305 373.053 100.895 374.127C98.4454 375.193 95.725 375.474 93.1085 374.932C91.83 374.671 90.5917 374.241 89.4261 373.654C88.6206 373.245 87.815 372.721 87.035 372.223L85.9866 371.559L58.0101 353.811C57.1428 353.305 56.3251 352.719 55.5679 352.06C54.908 351.475 54.3705 350.765 53.9865 349.971C53.6025 349.177 53.3794 348.315 53.3303 347.435C53.3025 345.851 53.633 344.282 54.2972 342.844C54.9614 341.406 55.9422 340.136 57.1662 339.13C59.0402 337.577 61.3498 336.644 63.7767 336.459H64.6334C66.3106 336.435 67.9743 336.761 69.5178 337.417L69.9397 337.584C70.1955 337.75 70.6046 337.967 71.2184 338.299L74.5428 340.101Z" fill="white"/>
<path d="M83.1485 342.86C85.0408 342.715 86.918 342.416 88.7617 341.966C89.8357 347.358 90.2321 347.933 90.6285 347.933H90.7819C91.2294 347.843 91.5875 347.767 90.4367 341.646C96.6764 340.292 96.6253 339.934 96.5486 339.487C96.5169 339.351 96.4346 339.232 96.3184 339.155C95.9604 338.912 93.8634 339.155 90.1043 339.972C89.3882 336.331 88.8256 334.35 88.4804 334.107C88.3668 334.035 88.2301 334.008 88.0974 334.032C87.9648 334.055 87.8459 334.128 87.7644 334.235C87.5214 334.593 87.7644 336.65 88.442 340.317C82.701 341.595 82.4708 341.978 82.3813 342.132C82.3528 342.198 82.3381 342.27 82.3381 342.343C82.3381 342.415 82.3528 342.487 82.3813 342.553C82.4197 342.707 82.4708 342.86 83.1485 342.86Z" fill="white"/>
<path d="M580.421 42.002H440.782V272.979H580.421V42.002Z" fill="#CACACE"/>
<path d="M575.78 42.002H436.14V272.979H575.78V42.002Z" fill="#E5E5E6"/>
<path d="M569.834 46.6914H442.086V268.303H569.834V46.6914Z" fill="#F8F8F8"/>
<path d="M544.952 75.4922H466.406V239.503H544.952V75.4922Z" fill="#E5E5E6"/>
<path d="M466.406 181.469C466.227 166.136 480.01 151.186 495.188 149.04C502.437 148.03 510.122 149.462 516.924 146.689C529.007 141.744 532.843 125.708 544.99 120.955L545.553 239.504H466.406V181.469Z" fill="#CACACE"/>
<path d="M400.889 41.5684H293.484V153.46H400.889V41.5684Z" fill="#CACACE"/>
<path d="M393.613 41.5684H286.208V153.46H393.613V41.5684Z" fill="#F8F8F8"/>
<path d="M393.652 153.485H286.17V41.5293H393.652V153.485ZM286.247 153.485H393.588V41.606H286.247V153.485Z" fill="#CACACE"/>
<path d="M379.177 56.6074H300.644V138.408H379.177V56.6074Z" fill="#F8F8F8"/>
<path d="M300.644 139.021C300.094 139.847 299.446 140.602 298.713 141.27C297.434 142.548 295.695 144.388 293.713 146.381C291.732 148.375 289.877 150.061 288.599 151.288C287.916 151.999 287.157 152.633 286.336 153.179C286.88 152.353 287.524 151.598 288.254 150.93C289.532 149.652 291.284 147.812 293.266 145.819C295.248 143.826 297.102 142.126 298.38 140.9C299.054 140.183 299.815 139.552 300.644 139.021Z" fill="#CACACE"/>
<path d="M379.178 138.754C380.002 139.311 380.757 139.962 381.428 140.696C382.707 141.974 384.548 143.712 386.543 145.679C388.538 147.647 390.225 149.513 391.453 150.79C392.167 151.475 392.802 152.238 393.345 153.065C392.525 152.508 391.77 151.861 391.095 151.135C389.816 149.857 387.988 148.12 385.98 146.139C383.973 144.159 382.285 142.306 381.058 141.028C380.341 140.349 379.71 139.585 379.178 138.754Z" fill="#CACACE"/>
<path d="M378.947 56.8253C379.508 56.0049 380.16 55.2505 380.891 54.5765C382.169 53.2988 383.908 51.4588 385.877 49.4656C387.846 47.4723 389.713 45.7857 390.992 44.559C391.677 43.8454 392.44 43.211 393.268 42.668C392.714 43.4905 392.066 44.2453 391.337 44.9168C390.058 46.1945 388.319 48.0345 386.338 50.0278C384.356 52.021 382.502 53.7204 381.223 54.9471C380.543 55.6628 379.779 56.2935 378.947 56.8253Z" fill="#CACACE"/>
<path d="M300.426 57.0295C299.608 56.4651 298.854 55.8139 298.176 55.0873C296.897 53.8095 295.069 52.0718 293.062 50.1041C291.054 48.1364 289.392 46.2709 288.152 44.9931C287.434 44.3152 286.802 43.5513 286.272 42.7188C287.089 43.2743 287.84 43.9216 288.51 44.6481C289.788 45.9259 291.629 47.6636 293.624 49.6441C295.619 51.6246 297.307 53.4773 298.534 54.7551C299.26 55.4291 299.896 56.1935 300.426 57.0295Z" fill="#CACACE"/>
<path d="M378.947 138.409C378.947 138.409 378.947 138.268 378.947 138.012C378.947 137.757 378.947 137.361 378.947 136.875C378.947 135.853 378.947 134.32 378.947 132.454C378.947 128.621 378.947 122.948 378.871 115.844C378.871 101.507 378.781 81.1018 378.717 56.6586L379.011 56.9653H300.708L301.053 56.6203C301.053 86.6473 301.053 114.732 301.053 138.396L300.746 138.102L357.453 138.255L373.385 138.332H377.592H378.947C378.833 138.345 378.717 138.345 378.602 138.332H377.554H373.385L357.53 138.409L300.631 138.562H300.337V138.255C300.337 114.566 300.337 86.4811 300.337 56.4798V56.1348H300.695H378.998H379.305V56.4414C379.241 80.9613 379.19 101.443 379.152 115.818C379.152 122.948 379.088 128.596 379.075 132.429C379.075 134.32 379.075 135.776 379.075 136.786C379.075 137.259 379.075 137.629 379.075 137.897C379.06 138.073 379.016 138.246 378.947 138.409Z" fill="#CACACE"/>
<path d="M353.003 84.4238H326.804V110.605H353.003V84.4238Z" fill="#E5E5E6"/>
<path d="M578.017 512.697L573.874 555.233H551.895L547.573 512.697H578.017Z" fill="#CACACE"/>
<path d="M544.964 512.697H581.303V509.58H544.964V512.697Z" fill="#E5E5E6"/>
<path d="M574.386 504.227L578.018 510.283H549.121L550.514 504.227H574.386Z" fill="#E5E5E6"/>
<path d="M576.623 527.021L575.14 542.201H550.564L549.017 527.021H576.623Z" fill="#F2F2F3"/>
<path d="M559.669 538.879C559.682 537.544 560.077 536.241 560.807 535.123C561.421 534.177 562.162 533.359 562.763 532.567C563.324 531.85 563.756 531.042 564.042 530.178C564.149 529.833 564.213 529.477 564.234 529.117L564.4 529.207C564.828 529.501 565.191 529.88 565.468 530.319C565.745 530.758 565.93 531.249 566.011 531.762C566.181 532.77 566.133 533.803 565.87 534.79C565.65 535.992 565.096 537.108 564.272 538.01C563.774 538.499 563.165 538.862 562.498 539.069C561.831 539.276 561.124 539.32 560.436 539.199C560.168 539.125 559.91 539.018 559.669 538.879Z" fill="#F8F8F8"/>
<path d="M557.802 535.544C557.854 534.183 558.117 532.838 558.582 531.557C558.823 530.913 559.212 530.334 559.719 529.868C560.225 529.402 560.835 529.061 561.497 528.874C562.192 528.677 562.932 528.708 563.607 528.964C563.562 529.33 563.476 529.69 563.351 530.037C563.045 530.849 562.613 531.607 562.073 532.286C561.472 533.078 560.717 533.896 560.078 534.841C559.453 535.777 559.067 536.852 558.953 537.972C558.94 538.197 558.94 538.423 558.953 538.649C558.609 538.438 558.32 538.149 558.109 537.806C557.798 537.095 557.692 536.312 557.802 535.544Z" fill="#F8F8F8"/>
<path d="M379.88 489.673C399.724 469.829 399.622 439.56 394.022 413.327C393.088 408.958 392.743 404.23 389.968 400.729C387.194 397.228 381.811 395.477 378.192 398.033C375.2 400.154 374.446 404.217 373.18 407.68C371.486 412.314 368.511 416.372 364.6 419.384C362.043 421.339 358.744 422.847 355.65 421.824C351.469 420.393 350.088 415.231 349.333 410.849C347.927 402.671 346.525 394.498 345.127 386.329C344.372 381.933 343.58 377.461 341.483 373.551C339.386 369.641 335.678 366.307 331.254 365.885C326.83 365.463 322.15 368.773 322.035 373.219C322.19 375.064 322.472 376.895 322.879 378.701C323.083 380.541 322.597 382.7 320.961 383.518C319.324 384.336 317.329 383.416 315.782 382.368C310.476 378.752 306.384 373.59 302.51 368.44C298.636 363.291 294.838 357.976 289.839 353.887C284.839 349.798 278.523 346.974 272.181 347.741C265.839 348.508 259.842 353.568 259.394 360.007C258.947 366.447 263.627 372.095 268.447 376.388C275.584 382.775 283.612 388.091 292.281 392.168C293.918 392.737 295.336 393.805 296.334 395.222C297.817 397.982 295.554 401.368 292.844 402.888C289.775 404.549 286.169 404.843 282.819 405.853C279.469 406.862 276.042 409.034 275.326 412.484C274.329 417.288 278.906 421.313 283.139 423.728C291.625 428.57 300.88 431.92 310.501 433.631C313.941 434.231 317.508 434.666 320.513 436.467C323.518 438.269 325.794 441.923 324.771 445.284C323.748 448.644 319.899 450.395 316.409 450.331C312.918 450.267 309.568 449.053 306.18 448.376C299.786 447.175 292.051 448.976 289.11 454.867C287.192 458.7 287.831 463.543 289.826 467.389C292.005 471.143 294.919 474.419 298.393 477.023C309.983 486.79 323.962 493.303 338.9 495.895C353.732 498.259 366.915 497.262 379.893 489.711" fill="#F2F2F3"/>
<path d="M370.125 474.34C363.172 460.748 355.445 447.565 346.981 434.858L340.397 424.827C338.223 421.531 336.062 418.273 333.76 415.206C329.335 409.343 324.584 403.734 319.529 398.404C314.734 393.293 310.003 388.565 305.554 384.208C301.104 379.851 296.833 375.877 292.767 372.414C286.462 366.927 279.732 361.945 272.642 357.516C270.084 355.944 268.154 354.794 266.786 354.04L265.238 353.172C265.067 353.072 264.887 352.986 264.701 352.916C264.855 353.044 265.023 353.155 265.2 353.248L266.709 354.181C267.988 354.986 269.995 356.187 272.476 357.784C279.494 362.303 286.166 367.338 292.435 372.849C296.424 376.324 300.631 380.324 305.081 384.681C309.53 389.038 314.223 393.778 318.979 398.915C324 404.249 328.726 409.854 333.134 415.704C335.423 418.758 337.558 421.991 339.732 425.287L346.317 435.33C354.757 448.011 362.479 461.154 369.447 474.698" fill="#CACACE"/>
<path d="M333.543 415.218C333.635 414.575 333.665 413.925 333.633 413.276C333.633 411.999 333.633 410.21 333.53 407.974C333.377 403.501 332.942 397.33 332.443 390.532C331.945 383.735 331.599 377.576 331.51 373.117C331.51 370.881 331.51 369.079 331.51 367.827C331.552 367.178 331.518 366.526 331.408 365.885C331.269 366.519 331.197 367.165 331.19 367.814C331.088 369.092 331.024 370.881 330.999 373.117C330.999 377.589 331.19 383.786 331.689 390.584C332.188 397.381 332.661 403.361 332.968 407.999C333.108 410.095 333.223 411.832 333.326 413.276C333.319 413.93 333.392 414.582 333.543 415.218Z" fill="#CACACE"/>
<path d="M275.301 414.721C276.071 414.758 276.842 414.715 277.603 414.593C279.073 414.465 281.196 414.261 283.83 414.108C289.085 413.75 296.373 413.494 304.416 413.584C312.458 413.673 319.759 414.069 325.015 414.504C327.649 414.708 329.771 414.925 331.241 415.066C332.002 415.186 332.773 415.238 333.543 415.219C332.805 414.992 332.047 414.834 331.28 414.747C329.822 414.504 327.7 414.197 325.066 413.929C319.81 413.341 312.497 412.843 304.429 412.753C297.537 412.659 290.645 412.915 283.779 413.52C281.145 413.763 279.022 414.044 277.552 414.274C276.789 414.351 276.036 414.501 275.301 414.721Z" fill="#CACACE"/>
<path d="M369.243 473.433C369.364 473.194 369.454 472.941 369.511 472.679C369.665 472.079 369.869 471.402 370.112 470.469C370.624 468.552 371.289 465.754 372.069 462.278C373.641 455.34 375.508 445.668 377.426 435.024C379.344 424.381 381.109 414.683 382.541 407.732C383.231 404.346 383.819 401.56 384.241 399.49C384.42 398.596 384.574 397.855 384.702 397.241C384.768 396.982 384.802 396.716 384.804 396.449C384.672 396.683 384.581 396.938 384.535 397.203L383.934 399.414C383.423 401.33 382.745 404.128 381.965 407.604C380.405 414.542 378.539 424.215 376.621 434.871C374.703 445.527 372.925 455.2 371.506 462.151C370.803 465.537 370.227 468.322 369.806 470.392C369.614 471.287 369.473 472.028 369.345 472.641C369.279 472.9 369.245 473.166 369.243 473.433Z" fill="#CACACE"/>
<path d="M290.057 462.648C290.313 462.734 290.58 462.79 290.849 462.814L293.151 463.159L301.641 464.322C308.801 465.318 318.672 466.801 329.592 468.449C340.511 470.097 350.408 471.49 357.594 472.282C361.187 472.704 364.089 473.01 366.11 473.189L368.424 473.368C368.696 473.405 368.971 473.405 369.242 473.368C368.987 473.275 368.72 473.215 368.45 473.189L366.135 472.857L357.658 471.682C350.498 470.698 340.614 469.216 329.707 467.567C318.8 465.919 308.891 464.526 301.705 463.734C298.112 463.312 295.21 462.993 293.189 462.827L290.862 462.635C290.595 462.597 290.323 462.601 290.057 462.648Z" fill="#CACACE"/>
<path d="M138.874 20.2603L48.2703 20.0547L48.0561 114.441L138.66 114.647L138.874 20.2603Z" fill="#CACACE"/>
<path d="M132.737 20.2329L42.1331 20.0273L41.9189 114.414L132.523 114.619L132.737 20.2329Z" fill="#636369"/>
<path d="M132.554 114.642L41.8994 114.438L42.1168 20L132.772 20.2044L132.554 114.642Z" fill="#F2F2F3"/>
<path d="M120.535 32.8943L54.2893 32.7441L54.1326 101.755L120.378 101.905L120.535 32.8943Z" fill="white"/>
<path d="M54.1742 102.211C53.6997 102.899 53.1508 103.534 52.5375 104.102C51.4763 105.214 49.9803 106.657 48.3052 108.357C46.6302 110.056 45.1087 111.462 43.9707 112.497C43.403 113.106 42.7583 113.639 42.0527 114.081C42.5141 113.394 43.0502 112.76 43.651 112.19C44.7123 111.078 46.2083 109.635 47.8833 107.935C49.5583 106.236 51.0927 104.83 52.2179 103.795C52.804 103.191 53.4608 102.659 54.1742 102.211Z" fill="#CACACE"/>
<path d="M120.382 102.197C121.072 102.67 121.706 103.219 122.274 103.833C123.387 104.893 124.831 106.388 126.532 108.049C128.233 109.71 129.626 111.256 130.662 112.381C131.261 112.962 131.797 113.604 132.26 114.297C131.562 113.841 130.925 113.296 130.368 112.675C129.256 111.614 127.811 110.119 126.097 108.445C124.384 106.772 122.99 105.226 121.955 104.101C121.355 103.532 120.827 102.893 120.382 102.197Z" fill="#CACACE"/>
<path d="M120.356 33.0851C120.807 32.3898 121.339 31.7507 121.942 31.1812C123.003 30.0696 124.499 28.5619 126.161 26.9264C127.823 25.2908 129.371 23.8342 130.496 22.7992C131.07 22.197 131.714 21.6651 132.414 21.2148C131.983 21.8989 131.472 22.5294 130.892 23.0931C129.831 24.2175 128.335 25.7253 126.66 27.3608C124.985 28.9963 123.45 30.4657 122.313 31.5007C121.728 32.1073 121.071 32.6395 120.356 33.0851Z" fill="#CACACE"/>
<path d="M54.1749 33.0963C53.4821 32.6271 52.8469 32.0782 52.2825 31.4608C51.1573 30.4003 49.7252 28.9053 48.0118 27.2443C46.2985 25.5832 44.8536 24.0243 43.8179 22.9127C43.2153 22.3389 42.683 21.6955 42.2324 20.9961C42.9252 21.4603 43.5604 22.0051 44.1248 22.6188C45.2372 23.6794 46.6821 25.1743 48.3826 26.8482C50.0832 28.522 51.4897 30.0553 52.5254 31.1925C53.1516 31.7567 53.7057 32.3962 54.1749 33.0963Z" fill="#CACACE"/>
<path d="M120.203 101.967C120.192 101.857 120.192 101.746 120.203 101.635C120.203 101.392 120.203 101.073 120.203 100.664C120.203 99.808 120.203 98.5558 120.203 96.9459C120.203 93.6749 120.203 88.9217 120.203 82.8907C120.203 70.8033 120.203 53.5921 120.203 32.9694L120.459 33.2249L54.302 33.0332L54.5961 32.7521C54.5194 58.077 54.4555 81.7663 54.3915 101.75L54.1486 101.495L101.982 101.737L115.421 101.84H118.975L115.549 101.967H102.123H54.1742H53.9185V101.712C53.9185 81.728 53.9952 58.0386 54.0335 32.7138V32.4199H54.3404L120.395 32.5988H120.65V32.8544C120.548 53.541 120.459 70.8161 120.407 82.9418C120.407 88.96 120.331 93.6877 120.305 96.997C120.305 98.5984 120.305 99.8251 120.305 100.677C120.305 101.073 120.305 101.38 120.305 101.61C120.305 101.84 120.203 101.967 120.203 101.967Z" fill="#CACACE"/>
<path d="M75.08 85.9953C72.6633 83.4007 71.2694 80.0189 71.1566 76.4761C71.0438 72.9334 72.2196 69.4698 74.4663 66.7269C76.3203 64.6314 78.7625 63.0853 80.4758 60.8749C84.1839 56.0705 84.1455 48.4935 89.2984 45.2736C93.0448 42.9354 98.4278 44.2898 101.164 47.7652C102.451 49.5748 103.235 51.6925 103.437 53.9031C103.639 56.1137 103.252 58.3384 102.315 60.351C101.036 63.3409 98.7091 65.8836 97.7757 69.0013C96.8423 72.119 97.341 75.7094 96.3693 78.9677C95.0906 82.8009 91.0757 85.2414 87.291 86.6341C83.2976 87.9538 78.9567 87.749 75.1056 86.0592" fill="#F2F2F3"/>
<path d="M93.8115 54.2559C93.644 54.8774 93.4259 55.4842 93.1594 56.0703C92.7246 57.233 92.0214 58.8941 91.1008 60.9129C88.6851 66.1913 85.9392 71.3124 82.8792 76.2458C79.8042 81.14 76.4218 85.8345 72.7524 90.301C71.3331 92.0259 70.1951 93.3803 69.3129 94.3003C68.894 94.7915 68.4411 95.2526 67.9575 95.6803C68.3014 95.1339 68.6952 94.6206 69.1339 94.147C69.9266 93.1887 71.0518 91.7831 72.4199 90.0454C75.9587 85.5101 79.2578 80.7931 82.3038 75.9136C85.3512 71.0035 88.1383 65.9366 90.6533 60.734C91.6122 58.7407 92.3794 57.118 92.8909 55.9808C93.145 55.3792 93.4532 54.8019 93.8115 54.2559Z" fill="#CACACE"/>
<path d="M80.0544 66.1895C80.322 67.3364 80.4973 68.5028 80.5786 69.6777C80.8343 71.8626 81.154 74.8909 81.4736 78.328L81.0261 78.0852L82.4582 77.2547C85.7699 75.3253 88.8514 73.6131 90.9867 72.3993C92.1471 71.6962 93.3563 71.0771 94.6052 70.5466C93.5467 71.3716 92.4268 72.1149 91.2552 72.7698C89.1199 74.0476 86.1407 75.8492 82.8162 77.7658L81.3841 78.5963L80.9878 78.8263V78.3663C80.6809 74.942 80.4379 71.8882 80.2845 69.7032C80.1123 68.5402 80.0353 67.365 80.0544 66.1895Z" fill="#CACACE"/>
<path d="M97.4686 61.0803C96.7734 61.5893 96.0228 62.018 95.231 62.3581C93.8117 63.0608 91.8554 63.9808 89.6561 64.9135L88.9785 65.2202L88.6204 65.3863V65.003C88.288 62.7925 88.0067 60.8248 87.8405 59.4065C87.6951 58.6447 87.6436 57.868 87.687 57.0938C87.9624 57.8178 88.1471 58.5732 88.2368 59.3426C88.5181 60.7481 88.8634 62.703 89.2086 64.9135L88.6972 64.7474L89.3748 64.4408C91.5613 63.4441 93.556 62.5753 95.0136 61.9747C95.7971 61.5885 96.6202 61.2886 97.4686 61.0803Z" fill="#CACACE"/>
<path d="M595.689 555.233C595.689 555.426 466.547 555.567 307.357 555.567C148.167 555.567 19 555.426 19 555.233C19 555.041 148.142 554.9 307.357 554.9C466.573 554.9 595.689 555.054 595.689 555.233Z" fill="#19191A"/>
<path d="M175.812 442.165C181.834 439.06 188.918 438.651 195.605 439.763C199.198 440.351 202.944 441.424 205.387 444.12C207.829 446.816 208.302 451.569 205.489 453.882C203.678 455.102 201.5 455.657 199.326 455.454C194.083 455.454 188.278 454.47 184.097 457.613C181.719 459.415 180.121 462.392 177.269 463.273C175.843 463.604 174.347 463.461 173.009 462.866C171.671 462.271 170.563 461.257 169.853 459.977C168.491 457.358 168.189 454.315 169.009 451.48C169.348 449.508 170.139 447.642 171.319 446.026C172.499 444.41 174.036 443.089 175.812 442.165Z" fill="#E71818"/>
<path d="M162.003 415.55C165.685 420.801 172.846 419.063 176.17 415.856C179.494 412.649 180.888 407.998 182.167 403.564C185.082 393.432 188.023 382.801 185.862 372.49C185.337 369.359 183.962 366.433 181.885 364.031C180.833 362.852 179.488 361.969 177.987 361.471C176.486 360.974 174.881 360.878 173.331 361.194C169.726 362.14 167.475 365.679 165.851 369.04C161.079 378.961 158.58 389.822 158.538 400.83C158.538 405.941 159.113 411.32 162.003 415.55Z" fill="#E71818"/>
<path d="M151.901 423.089C155.891 418.348 156.658 411.436 154.868 405.494C153.078 399.553 149.076 394.493 144.447 390.366C138.994 385.524 132.655 381.784 125.779 379.352C123.109 378.284 120.238 377.808 117.365 377.959C115.931 378.04 114.539 378.47 113.309 379.212C112.079 379.953 111.048 380.984 110.307 382.214C108.351 385.97 110.231 390.506 112.264 394.212C115.855 400.753 119.96 406.999 124.539 412.892C128.221 417.62 132.428 422.297 138.028 424.392C143.629 426.487 149.459 426.283 152.426 422.399" fill="#E71818"/>
<path d="M161.76 494.833C161.952 494.05 162.063 493.249 162.092 492.443C162.259 490.706 162.476 488.521 162.732 485.927C163.035 482.71 163.504 479.512 164.138 476.344C165.001 472.498 166.164 468.726 167.616 465.061C169.048 461.4 170.989 457.959 173.383 454.839C175.329 452.302 177.819 450.232 180.671 448.783C182.607 447.823 184.683 447.176 186.821 446.866C187.625 446.842 188.423 446.727 189.199 446.521C188.392 446.438 187.578 446.438 186.77 446.521C184.557 446.696 182.392 447.263 180.377 448.195C177.382 449.611 174.756 451.702 172.705 454.303C170.21 457.459 168.197 460.969 166.734 464.716C165.248 468.441 164.093 472.289 163.282 476.216C162.659 479.411 162.232 482.641 162.003 485.888C161.798 488.661 161.722 490.897 161.683 492.456C161.623 493.249 161.648 494.046 161.76 494.833Z" fill="#313135"/>
<path d="M162.207 489.825C162.251 489.456 162.251 489.083 162.207 488.713C162.207 487.883 162.207 486.835 162.207 485.545C162.207 482.798 162.207 478.811 162.36 473.904C162.603 464.066 163.447 453.461 165.084 438.575C166.631 424.52 168.715 408.229 170.902 397.623C171.375 395.208 171.848 393.036 172.295 391.132C172.743 389.228 173.088 387.58 173.433 386.251C173.779 384.922 173.983 383.977 174.175 383.172C174.282 382.819 174.346 382.454 174.367 382.086C174.199 382.415 174.071 382.762 173.983 383.121C173.74 383.913 173.433 384.923 173.063 386.162C172.692 387.401 172.231 389.101 171.784 391.005C171.336 392.908 170.761 395.068 170.25 397.47C167.534 410.014 165.494 422.695 164.138 435.457C162.501 450.394 161.759 464.002 161.696 473.866C161.696 478.785 161.696 482.81 161.862 485.532C161.951 486.81 162.015 487.857 162.066 488.701C162.066 489.08 162.113 489.458 162.207 489.825Z" fill="#313135"/>
<path d="M162.27 463.568C162.367 462.467 162.367 461.359 162.27 460.258C162.086 457.262 161.748 454.276 161.26 451.314C160.536 446.906 159.562 442.542 158.345 438.243C156.92 432.957 155.09 427.788 152.872 422.782C149.078 413.548 143.636 405.08 136.813 397.789C135.609 396.539 134.328 395.366 132.977 394.276C132.389 393.79 131.877 393.305 131.353 392.921L129.895 391.912C129.018 391.238 128.086 390.64 127.108 390.123C126.942 390.34 131.059 392.755 136.25 398.275C142.844 405.623 148.136 414.041 151.901 423.165C154.075 428.148 155.912 433.27 157.399 438.498C158.656 442.757 159.693 447.077 160.506 451.442C161.196 455.173 161.593 458.214 161.784 460.322C161.867 461.414 162.029 462.499 162.27 463.568Z" fill="#313135"/>
<path d="M136.89 509.873L139.524 545.905H185.836L188.47 509.873H136.89Z" fill="#313135"/>
<path d="M194.007 495.676H132.415V509.871H194.007V495.676Z" fill="#313135"/>
<path d="M132.415 544.525V548.461H135.305H192.984V544.525H132.415Z" fill="#636369"/>
<path d="M138.143 555.399L135.305 548.461H190.772L187.473 555.399H138.143Z" fill="#636369"/>
<path d="M187.614 521.652C187.553 521.77 187.48 521.882 187.396 521.984L186.706 522.892L184.008 526.354L183.88 526.508L183.765 526.342C182.077 524.003 179.814 520.86 177.142 517.18H177.525C175.544 519.966 173.357 523.083 170.992 526.418L170.787 526.699L170.557 526.431L162.86 517.231H163.307L162.885 517.768L155.955 526.444L155.725 526.725L155.52 526.431L148.948 517.231H149.332L141.289 526.38L141.136 526.546L141.033 526.367L138.476 522.138C138.207 521.678 138.003 521.307 137.824 521.013C137.739 520.888 137.675 520.75 137.632 520.605C137.733 520.714 137.823 520.834 137.901 520.962L138.617 522.048L141.263 526.201H141.008L148.922 516.937L149.127 516.707L149.306 516.95L155.891 526.15H155.443L162.348 517.461L162.783 516.925L163 516.656L163.23 516.925L170.902 526.137H170.467L177.065 516.95L177.257 516.682L177.449 516.95L183.931 526.214H183.701L186.501 522.853L187.256 521.984C187.512 521.742 187.601 521.639 187.614 521.652Z" fill="#E5E5E6"/>
<path d="M189.122 509.644C189.122 509.798 177.512 509.926 163.192 509.926C148.871 509.926 137.274 509.798 137.274 509.644C137.274 509.491 148.871 509.35 163.192 509.35C177.512 509.35 189.122 509.478 189.122 509.644Z" fill="#636369"/>
<path d="M191.462 548.857C191.462 549.011 178.842 549.139 163.333 549.139C147.823 549.139 135.203 549.011 135.203 548.857C135.203 548.703 147.81 548.562 163.333 548.562C178.855 548.562 191.462 548.691 191.462 548.857Z" fill="#313135"/>
<path d="M533.265 274.321C532.255 269.99 537.37 255.015 534.071 254.682C529.864 254.261 529.148 271.293 528.956 272.801C528.765 274.308 526.604 274.078 526.808 272.801C527.115 270.833 529.915 251.577 525.67 251.539C523.318 251.539 523.215 255.794 523.215 255.794C523.215 255.794 521.63 274.768 519.622 274.679C517.615 274.59 519.047 263.793 519.251 259.78C519.456 255.768 517.525 253.711 516.093 255.372C514.009 257.813 514.022 267.6 513.753 271.446C513.485 275.292 512.475 286.37 508.485 280.838C504.496 275.305 499.407 272.494 497.527 272.686C495.648 272.877 495.303 275.586 497.118 276.647C498.986 277.991 500.66 279.586 502.092 281.387C503.225 282.846 504.19 284.427 504.969 286.102C506.032 288.207 506.737 290.474 507.053 292.81C507.329 294.656 507.993 296.423 509.002 297.994C510.012 299.564 511.344 300.903 512.909 301.92L512.679 332.318L511.771 347.293L535.465 355.509L532.345 301.844C533.508 291.532 538.06 278.499 539.71 272.456C542.356 262.809 541.116 262.4 539.94 262.349C537.331 262.259 534.237 278.551 533.265 274.321Z" fill="#F4AF70"/>
<path d="M530.222 287.391C529.245 287.49 528.276 287.652 527.32 287.877C525.021 288.55 522.994 289.932 521.528 291.825C521.084 292.412 520.698 293.041 520.377 293.703L520.224 294.01L519.993 293.78C518.689 292.446 517.172 291.336 515.505 290.496C514.227 289.87 513.447 289.627 513.46 289.551C514.216 289.651 514.95 289.875 515.633 290.215C517.391 290.977 518.987 292.066 520.339 293.422L519.955 293.499C520.281 292.803 520.68 292.144 521.144 291.531C521.982 290.441 523.014 289.514 524.187 288.797C525.131 288.21 526.163 287.779 527.243 287.519C527.959 287.348 528.693 287.263 529.43 287.264C529.698 287.272 529.965 287.315 530.222 287.391Z" fill="#E0934D"/>
<path d="M529.058 301.64C525.756 302.76 522.197 302.876 518.829 301.973C518.829 301.819 521.143 302.178 523.944 302.088C526.744 301.999 529.02 301.499 529.058 301.64Z" fill="#E0934D"/>
<path d="M385.865 222.33C386.199 218.435 387.808 214.759 390.443 211.869C393.077 208.98 396.591 207.038 400.441 206.345C402.485 206.239 404.507 205.861 406.451 205.221C407.902 204.395 409.291 203.464 410.606 202.435C412.919 201.051 415.634 200.493 418.305 200.853C420.977 201.212 423.447 202.469 425.311 204.416C428.712 208.172 429.581 202.55 437.227 206.383C443.621 209.565 440.756 214.817 440.756 214.817C443.904 214.546 447.049 215.377 449.652 217.167C452.255 218.957 454.154 221.595 455.026 224.63C456.036 228.463 455.576 233.318 458.862 235.656C460.435 236.794 462.519 236.934 464.143 238.059C467.135 240.052 467.544 244.268 467.147 247.846C466.751 251.424 465.933 255.231 467.48 258.477C470.037 263.805 477.977 265.415 479.358 271.152C480.01 273.861 479.09 277.221 481.148 279.112C482.052 279.773 483.065 280.27 484.14 280.582C486.255 281.44 488.093 282.861 489.453 284.692C490.814 286.522 491.645 288.691 491.857 290.962C492.068 293.232 491.65 295.517 490.651 297.567C489.651 299.617 488.106 301.352 486.186 302.585C485.125 303.262 483.846 303.862 483.501 305.14C483.156 306.418 484.102 307.811 484.78 308.973C486.105 311.214 486.663 313.825 486.369 316.411C486.075 318.996 484.945 321.416 483.15 323.302C481.356 325.188 478.994 326.437 476.425 326.861C473.855 327.284 471.217 326.858 468.912 325.648C466.824 330.032 463.116 333.435 458.568 335.141C456.508 335.986 454.245 336.208 452.06 335.78C450.351 335.291 448.758 334.461 447.38 333.34C440.641 328.229 431.128 320.447 429.939 312.104" fill="#313135"/>
<path d="M385.711 235.338L385.417 229.358L421.142 221.41C432.202 219.89 444.528 230.623 445.577 241.713C446.74 254.044 447.674 269.147 446.497 278.41C444.119 297.04 429.977 299.838 429.977 299.838L430.476 318.237L389.47 320.026L385.711 235.338Z" fill="#F4AF70"/>
<path d="M429.991 299.889C421.052 300.307 412.169 298.274 404.303 294.012C404.303 294.012 410.977 306.789 430.119 304.502L429.991 299.889Z" fill="#E0934D"/>
<path d="M448.734 218.982C446.177 225.664 440.244 235.771 433.199 236.972C429.667 237.528 426.051 237.173 422.694 235.941C419.338 234.709 416.352 232.64 414.019 229.932C413.201 235.26 407.473 238.339 402.205 239.477C398.486 240.422 394.581 240.347 390.902 239.259C389.076 238.691 387.426 237.666 386.109 236.282C384.791 234.898 383.848 233.2 383.371 231.35C382.616 227.619 387.513 218.113 391.234 217.295" fill="#313135"/>
<path d="M397.807 317.573C397.792 320.581 396.848 323.511 395.104 325.963C393.36 328.414 390.901 330.268 388.064 331.271C388.328 333.712 387.715 336.168 386.334 338.199C384.953 340.23 382.895 341.705 380.526 342.359C378.158 343.013 375.634 342.805 373.405 341.771C371.176 340.737 369.388 338.944 368.36 336.714C367.957 335.503 367.37 334.361 366.621 333.328C364.652 331.168 361.148 331.871 358.31 331.168C353.195 329.891 350.574 323.936 350.766 318.659C350.862 317.625 350.836 316.583 350.689 315.554C350.229 313.472 348.464 311.989 347.122 310.341C341.572 303.569 342.928 293.053 348.03 285.936C349.73 283.572 351.865 281.055 351.533 278.168C351.131 276.586 350.484 275.077 349.615 273.695C348.526 271.277 348.188 268.588 348.644 265.976C349.1 263.363 350.329 260.947 352.172 259.04C352.759 258.702 353.209 258.169 353.442 257.534C353.676 256.899 353.679 256.202 353.451 255.564C352.862 251.701 353.758 247.757 355.959 244.527C358.161 241.296 361.503 239.018 365.317 238.149C365.786 238.1 366.242 237.961 366.659 237.74C367.81 237.037 367.733 235.402 367.784 234.06C367.951 230.508 370.201 223.749 372.72 221.283C379.727 214.383 387.335 219.046 390.097 221.283C390.097 221.283 397.027 246.237 396.375 251.028C395.723 255.82 393.101 267.818 394.853 273.057C396.605 278.295 399.648 289.08 397.832 294.037C396.017 298.995 397.807 317.573 397.807 317.573Z" fill="#313135"/>
<path d="M442.776 525.41C442.776 525.41 496.913 540.385 499.036 541.152C502.296 542.289 501.747 554.236 496.67 554.044C494.279 553.955 455.089 555.501 450.141 555.194C445.193 554.888 430.258 549.01 430.258 549.01L442.776 525.41Z" fill="#FFBB33"/>
<path d="M465.332 546.045C465.6 546.045 465.971 543.221 467.723 540.244C469.475 537.267 471.712 535.478 471.559 535.261C471.405 535.044 468.771 536.539 466.943 539.797C465.115 543.055 465.102 546.071 465.332 546.045Z" fill="#313135"/>
<path d="M459.679 543.49C459.948 543.49 460.498 540.935 461.943 538.162C463.387 535.39 465.088 533.358 464.883 533.166C464.679 532.975 462.62 534.764 461.137 537.753C459.654 540.743 459.5 543.478 459.679 543.49Z" fill="#313135"/>
<path d="M454.386 542.072C454.667 542.072 454.45 539.363 455.665 536.36C456.88 533.358 458.81 531.505 458.618 531.249C458.427 530.994 456.061 532.719 454.783 535.977C453.504 539.235 454.169 542.149 454.386 542.072Z" fill="#313135"/>
<path d="M455.358 535.121C455.833 533.835 456.029 532.463 455.933 531.096C455.924 529.61 455.739 528.13 455.384 526.688C455.184 525.816 454.914 524.961 454.578 524.132C454.407 523.637 454.107 523.196 453.709 522.854C453.439 522.647 453.105 522.542 452.765 522.558C452.425 522.575 452.103 522.711 451.854 522.944C451.437 523.352 451.178 523.896 451.126 524.477C451.073 524.952 451.052 525.43 451.062 525.908C451.072 526.8 451.184 527.687 451.394 528.553C451.756 530.003 452.315 531.396 453.056 532.693C453.659 533.919 454.487 535.02 455.499 535.938C455.614 535.862 454.706 534.597 453.632 532.386C452.997 531.112 452.52 529.764 452.212 528.374C452.037 527.56 451.947 526.729 451.944 525.895C451.944 525.065 451.944 524.03 452.443 523.634C452.531 523.534 452.655 523.472 452.788 523.46C452.921 523.448 453.054 523.487 453.159 523.57C453.437 523.828 453.644 524.154 453.76 524.515C454.08 525.295 454.353 526.093 454.578 526.905C454.951 528.284 455.191 529.696 455.294 531.121C455.447 533.536 455.205 535.121 455.358 535.121Z" fill="#313135"/>
<path d="M455.282 534.534C454.178 534.077 452.983 533.885 451.791 533.971C450.498 533.971 449.209 534.13 447.955 534.444C447.183 534.611 446.438 534.886 445.743 535.262C445.287 535.474 444.915 535.831 444.683 536.277C444.452 536.723 444.375 537.234 444.464 537.728C444.589 538.196 444.836 538.622 445.18 538.963C445.524 539.305 445.952 539.548 446.421 539.67C447.218 539.869 448.053 539.869 448.85 539.67C450.129 539.345 451.327 538.758 452.366 537.945C453.37 537.29 454.238 536.449 454.924 535.466C453.921 536.052 452.96 536.705 452.047 537.421C451.04 538.105 449.912 538.591 448.722 538.852C448.063 539.012 447.374 539.012 446.715 538.852C446.41 538.767 446.132 538.605 445.908 538.381C445.684 538.157 445.521 537.88 445.436 537.575C445.386 537.27 445.438 536.957 445.583 536.684C445.729 536.412 445.96 536.195 446.242 536.067C446.863 535.729 447.525 535.471 448.211 535.3C449.402 534.968 450.622 534.754 451.855 534.661C453.939 534.47 455.256 534.687 455.282 534.534Z" fill="#313135"/>
<path d="M473.656 546.621C473.912 546.621 473.656 544.27 474.717 541.74C475.778 539.21 477.543 537.715 477.364 537.498C477.185 537.281 475.011 538.571 473.873 541.395C472.735 544.219 473.426 546.723 473.656 546.621Z" fill="#313135"/>
<path d="M435.872 549.176C436.532 549.582 437.235 549.912 437.969 550.16C439.931 550.918 441.944 551.542 443.991 552.025C450.764 553.488 457.689 554.132 464.616 553.942C472.722 553.852 480.036 553.482 485.342 553.265L491.608 552.932C492.381 552.928 493.152 552.846 493.909 552.69C493.144 552.571 492.368 552.532 491.595 552.575H485.317L464.616 553.009C457.756 553.173 450.898 552.608 444.158 551.323C438.954 550.288 435.936 548.959 435.872 549.176Z" fill="#313135"/>
<path d="M434.274 550.364C434.351 550.479 435.834 549.623 438.327 548.524C441.511 547.013 445.055 546.424 448.556 546.824C452.635 547.45 455.538 550.185 457.417 552.089C458.379 553.223 459.421 554.287 460.537 555.27C459.817 553.954 458.927 552.738 457.89 551.654C456.825 550.401 455.619 549.273 454.297 548.294C452.646 547.07 450.726 546.259 448.697 545.93C445.023 545.486 441.302 546.192 438.046 547.949C436.67 548.552 435.397 549.366 434.274 550.364Z" fill="#313135"/>
<path d="M382.63 463.273L370.943 487.269C370.943 487.269 308.456 468.282 292.717 469.151C276.977 470.02 264.075 476.345 261.006 489.122C257.938 501.9 257.529 519.532 275.903 531.773C294.276 544.014 385.558 550.773 385.558 550.773H421.679L480.727 472.971L471.214 465.305L382.63 463.273Z" fill="#313135"/>
<path d="M402.282 515.954C401.887 515.999 401.488 515.999 401.093 515.954C400.326 515.954 399.175 515.954 397.704 515.686C393.554 515.195 389.455 514.34 385.455 513.13C379.533 511.333 373.761 509.073 368.194 506.371C361.877 503.394 355.139 499.726 348.055 495.932C341.42 492.302 334.59 489.039 327.597 486.157C321.909 483.805 315.997 482.037 309.952 480.88C305.878 480.104 301.735 479.744 297.588 479.806C296.117 479.806 295.03 479.922 294.199 479.934C293.804 479.97 293.406 479.97 293.01 479.934C293.396 479.843 293.79 479.787 294.186 479.768C294.966 479.704 296.092 479.5 297.575 479.487C301.752 479.314 305.936 479.593 310.054 480.318C316.154 481.393 322.124 483.106 327.866 485.429C334.866 488.29 341.696 491.549 348.324 495.191C355.407 499.024 362.12 502.665 368.398 505.668C373.925 508.384 379.648 510.682 385.519 512.542C389.477 513.788 393.532 514.707 397.641 515.289C399.098 515.545 400.198 515.596 401.003 515.711C401.436 515.756 401.863 515.837 402.282 515.954Z" fill="#636369"/>
<path d="M444.976 544.409C456.586 539.848 520.415 519.557 543.008 493.466C545.665 490.593 547.609 487.135 548.682 483.373C549.754 479.611 549.927 475.649 549.184 471.808C546.039 454.405 530.005 442.803 513.382 449.371C511.017 450.316 505.596 452.425 503.32 453.639C497.131 456.961 396.72 520.605 396.72 520.605C396.72 520.605 414.212 554.695 413.777 555.999L444.976 544.409Z" fill="#313135"/>
<path d="M476.418 468.756C476.338 468.839 476.248 468.912 476.149 468.973L475.305 469.548L472.032 471.682L459.898 479.348L419.749 504.571L397.935 518.153L398.076 517.706C402.73 528.874 406.681 538.406 409.584 545.203C410.939 548.538 412.026 551.196 412.793 553.1C413.138 553.968 413.407 554.671 413.624 555.208C413.732 555.445 413.814 555.694 413.867 555.949C413.727 555.73 413.607 555.5 413.509 555.259C413.279 554.735 412.972 554.045 412.576 553.189L409.174 545.382C406.285 538.597 402.231 529.116 397.475 517.987L397.36 517.706L397.616 517.54L419.352 503.907L459.604 478.901L471.866 471.401L475.216 469.382L476.098 468.884C476.303 468.794 476.405 468.743 476.418 468.756Z" fill="#636369"/>
<path d="M388.23 498.845C387.19 498.629 386.19 498.254 385.264 497.734C382.961 496.631 380.765 495.318 378.704 493.811C376.642 492.286 374.725 490.576 372.976 488.7C372.201 487.974 371.541 487.134 371.02 486.209C371.199 486.043 374.395 489.659 379.165 493.121C383.934 496.584 388.332 498.628 388.23 498.845Z" fill="#636369"/>
<path d="M422.984 470.57C423.151 471.892 423.203 473.226 423.137 474.557C423.137 477.023 423.278 480.409 423.61 484.14C423.943 487.871 424.467 491.231 424.889 493.659C425.19 494.961 425.378 496.286 425.451 497.62C424.934 496.39 424.561 495.103 424.339 493.787C422.932 487.5 422.347 481.058 422.6 474.621C422.575 473.26 422.703 471.902 422.984 470.57Z" fill="#636369"/>
<path d="M430.451 469.739C430.451 469.739 430.758 469.662 431.243 469.841C431.923 470.125 432.499 470.612 432.893 471.234C433.205 471.702 433.411 472.233 433.495 472.79C433.579 473.346 433.539 473.914 433.379 474.454C433.132 475.125 432.683 475.703 432.095 476.11C431.507 476.517 430.808 476.733 430.093 476.728C429.386 476.799 428.675 476.644 428.062 476.286C427.448 475.928 426.964 475.385 426.679 474.735C426.491 474.202 426.432 473.632 426.508 473.073C426.583 472.513 426.791 471.979 427.113 471.515C427.53 470.897 428.15 470.445 428.865 470.237C429.121 470.146 429.402 470.146 429.658 470.237C428.801 470.511 428.068 471.076 427.587 471.834C427.349 472.231 427.204 472.676 427.162 473.136C427.12 473.596 427.182 474.059 427.344 474.492C427.592 474.985 427.984 475.39 428.468 475.655C428.952 475.919 429.505 476.031 430.054 475.974C430.604 475.968 431.14 475.799 431.595 475.49C432.049 475.181 432.403 474.745 432.612 474.237C432.758 473.796 432.809 473.329 432.763 472.866C432.717 472.404 432.574 471.957 432.343 471.553C431.898 470.781 431.242 470.151 430.451 469.739Z" fill="#636369"/>
<path d="M399.571 467.209C399.828 467.567 400.015 467.97 400.121 468.397C400.496 469.534 400.673 470.727 400.645 471.924C400.622 473.69 400.226 475.432 399.482 477.035C398.602 479.067 397.157 480.804 395.32 482.041C393.482 483.277 391.327 483.961 389.112 484.011C387.323 484.1 385.535 483.803 383.87 483.142C382.756 482.706 381.72 482.094 380.801 481.328C380.448 481.064 380.145 480.74 379.906 480.37C381.191 481.322 382.586 482.116 384.062 482.734C385.671 483.291 387.375 483.521 389.074 483.411C391.149 483.325 393.159 482.666 394.881 481.506C396.604 480.347 397.971 478.732 398.83 476.843C399.58 475.319 400.015 473.659 400.108 471.962C400.134 470.361 399.953 468.764 399.571 467.209Z" fill="#636369"/>
<path d="M459.13 479.092C458.326 479.218 457.503 479.103 456.765 478.76C454.891 478.113 453.285 476.861 452.2 475.203C451.115 473.545 450.611 471.574 450.768 469.599C450.754 468.785 450.981 467.985 451.42 467.299C451.548 467.299 451.305 468.206 451.33 469.612C451.328 471.443 451.86 473.236 452.861 474.77C453.863 476.304 455.291 477.513 456.969 478.249C458.222 478.901 459.143 478.965 459.13 479.092Z" fill="#636369"/>
<path d="M490.354 526.803C490.354 526.803 490.469 526.726 490.738 526.598L491.876 526.036L496.3 523.902C500.136 522.037 505.698 519.353 512.398 515.737C520.319 511.628 527.77 506.671 534.621 500.954C538.613 497.539 542.181 493.657 545.246 489.39C548.259 484.609 549.607 478.968 549.082 473.342C548.847 470.504 548.133 467.726 546.972 465.126C546.4 463.864 545.71 462.657 544.914 461.523C544.11 460.407 543.23 459.348 542.28 458.354C540.395 456.447 538.401 454.651 536.308 452.975C534.437 451.249 532.218 449.942 529.8 449.142C527.447 448.51 525.011 448.239 522.576 448.337C520.269 448.375 517.97 448.627 515.71 449.09C511.658 449.971 507.759 451.444 504.138 453.46L488.347 462.213L484.038 464.577L482.913 465.177L482.529 465.369C482.641 465.281 482.761 465.204 482.887 465.139L483.987 464.487L488.245 462.034C491.953 459.926 497.297 456.846 503.972 453.09C507.612 451.031 511.537 449.524 515.62 448.618C517.905 448.141 520.229 447.876 522.563 447.825C525.045 447.724 527.527 447.995 529.928 448.63C532.42 449.455 534.705 450.806 536.628 452.591C538.736 454.283 540.747 456.091 542.65 458.009C543.613 459.02 544.51 460.091 545.335 461.216C546.152 462.383 546.858 463.624 547.445 464.922C549.197 468.878 549.95 473.204 549.638 477.52C549.326 481.835 547.958 486.008 545.655 489.672C542.562 493.969 538.959 497.878 534.927 501.312C528.04 507.036 520.54 511.981 512.564 516.057C505.826 519.635 500.238 522.279 496.377 524.081L491.914 526.125L490.738 526.637L490.354 526.803Z" fill="#636369"/>
<path d="M400.965 525.742C400.965 525.742 346.649 540.053 344.463 540.781C341.189 541.893 341.586 553.84 346.662 553.712C349.066 553.712 388.23 555.692 393.178 555.437C398.127 555.181 411.527 550.096 411.527 550.096L400.965 525.742Z" fill="#FFBB33"/>
<path d="M378.154 546.11C377.886 546.11 377.554 543.273 375.84 540.271C374.127 537.268 371.902 535.453 372.081 535.249C372.26 535.045 374.843 536.527 376.633 539.836C378.423 543.145 378.385 546.135 378.154 546.11Z" fill="#313135"/>
<path d="M383.831 543.619C383.562 543.619 383.051 541.064 381.645 538.252C380.238 535.441 378.563 533.41 378.755 533.231C378.947 533.052 381.005 534.854 382.463 537.856C383.92 540.859 384.061 543.606 383.831 543.619Z" fill="#313135"/>
<path d="M389.176 542.264C388.908 542.264 389.176 539.555 387.987 536.54C386.798 533.524 384.905 531.633 385.097 531.429C385.289 531.224 387.655 532.924 388.831 536.207C390.007 539.491 389.368 542.353 389.176 542.264Z" fill="#313135"/>
<path d="M388.269 535.275C387.807 533.982 387.628 532.605 387.744 531.237C387.767 529.749 387.969 528.269 388.345 526.829C388.565 525.98 388.842 525.147 389.176 524.337C389.351 523.84 389.656 523.399 390.059 523.059C390.333 522.854 390.671 522.753 391.013 522.774C391.355 522.795 391.679 522.937 391.926 523.174C392.339 523.581 392.585 524.128 392.616 524.708C392.669 525.183 392.69 525.661 392.68 526.139C392.652 527.031 392.528 527.918 392.309 528.784C391.929 530.227 391.352 531.611 390.596 532.898C389.976 534.12 389.135 535.216 388.115 536.131C388 536.041 388.921 534.789 390.02 532.591C390.674 531.324 391.168 529.981 391.491 528.592C391.675 527.783 391.774 526.956 391.785 526.126C391.785 525.295 391.785 524.248 391.312 523.851C391.225 523.75 391.102 523.685 390.969 523.671C390.836 523.657 390.702 523.694 390.596 523.775C390.326 524.04 390.12 524.363 389.995 524.72C389.661 525.493 389.379 526.287 389.151 527.097C388.75 528.472 388.493 529.885 388.384 531.314C388.192 533.716 388.422 535.249 388.269 535.275Z" fill="#313135"/>
<path d="M388.345 534.724C389.454 534.272 390.656 534.093 391.849 534.2C393.144 534.211 394.433 534.387 395.685 534.724C396.457 534.896 397.202 535.175 397.897 535.555C398.349 535.79 398.711 536.168 398.926 536.631C399.141 537.093 399.197 537.613 399.086 538.11C398.96 538.576 398.711 538.998 398.364 539.334C398.017 539.669 397.586 539.904 397.117 540.014C396.32 540.22 395.484 540.22 394.687 540.014C393.408 539.68 392.214 539.079 391.184 538.251C390.207 537.559 389.366 536.692 388.703 535.695C389.703 536.282 390.656 536.944 391.555 537.676C392.558 538.37 393.68 538.872 394.866 539.158C395.526 539.318 396.214 539.318 396.874 539.158C397.181 539.076 397.46 538.915 397.685 538.691C397.909 538.466 398.071 538.187 398.152 537.88C398.21 537.576 398.164 537.262 398.023 536.986C397.882 536.711 397.653 536.491 397.372 536.36C396.753 536.021 396.097 535.755 395.416 535.567C394.227 535.219 393.006 534.992 391.772 534.89C389.701 534.66 388.371 534.865 388.345 534.724Z" fill="#313135"/>
<path d="M369.83 546.62C369.562 546.62 369.83 544.282 368.82 541.726C367.81 539.171 366.058 537.676 366.263 537.459C366.467 537.241 368.603 538.558 369.702 541.394C370.802 544.231 369.996 546.684 369.83 546.62Z" fill="#313135"/>
<path d="M407.576 549.546C406.909 549.94 406.202 550.261 405.466 550.504C403.495 551.244 401.474 551.842 399.418 552.293C392.616 553.694 385.67 554.269 378.73 554.005C370.61 553.813 363.309 553.353 358.016 553.072L351.738 552.663C350.968 552.652 350.201 552.562 349.449 552.395C350.216 552.288 350.991 552.262 351.763 552.318L358.041 552.433L378.742 553.098C385.621 553.374 392.509 552.916 399.29 551.731C404.52 550.67 407.512 549.38 407.576 549.546Z" fill="#313135"/>
<path d="M409.161 550.798C409.084 550.926 407.614 550.045 405.121 548.92C401.953 547.355 398.406 546.721 394.892 547.093C390.8 547.655 387.872 550.364 385.941 552.204C384.965 553.326 383.909 554.376 382.783 555.347C383.525 554.04 384.431 552.833 385.481 551.757C386.563 550.521 387.781 549.411 389.112 548.447C390.779 547.246 392.707 546.458 394.738 546.147C398.417 545.748 402.129 546.498 405.364 548.294C406.753 548.925 408.035 549.77 409.161 550.798Z" fill="#313135"/>
<path d="M354.819 552.472C354.73 552.408 355.203 551.692 355.638 550.44C356.233 548.814 356.392 547.061 356.098 545.355C355.804 543.649 355.068 542.049 353.963 540.716C353.132 539.681 352.454 539.17 352.518 539.081C352.582 538.992 353.375 539.375 354.359 540.359C355.645 541.689 356.501 543.376 356.815 545.198C357.13 547.021 356.889 548.896 356.124 550.581C355.523 551.909 354.883 552.523 354.819 552.472Z" fill="#313135"/>
<path d="M398.459 314.927L370.534 322.747L379.612 409.57C379.612 409.57 374.395 440.568 374.395 448.707C374.312 451.654 375.034 454.568 376.485 457.134C377.936 459.701 380.061 461.824 382.63 463.273L471.853 465.956L476.404 462.021C477.567 460.66 478.432 459.072 478.945 457.358C479.458 455.644 479.608 453.842 479.384 452.067L462.761 319.591L431.703 312.857L398.459 314.927Z" fill="#7157A8"/>
<path d="M379.714 409.468C379.639 409.252 379.584 409.029 379.548 408.804L379.177 406.9C378.858 405.187 378.423 402.811 377.899 399.898C376.85 393.918 375.431 385.766 373.845 376.758C372.26 367.75 370.956 359.559 369.946 353.579C369.485 350.653 369.102 348.264 368.82 346.539C368.705 345.747 368.616 345.108 368.539 344.623C368.51 344.398 368.51 344.17 368.539 343.945C368.606 344.164 368.662 344.385 368.705 344.61C368.795 345.095 368.923 345.721 369.076 346.501C369.383 348.213 369.83 350.602 370.355 353.516C371.403 359.483 372.835 367.647 374.408 376.668L378.321 399.834C378.781 402.76 379.165 405.149 379.433 406.874C379.548 407.666 379.65 408.292 379.714 408.791C379.746 409.015 379.746 409.243 379.714 409.468Z" fill="#313135"/>
<path d="M435.667 314.441C435.268 314.814 434.84 315.156 434.389 315.464C433.954 315.77 433.391 316.09 432.765 316.486C432.138 316.882 431.358 317.265 430.476 317.623C428.423 318.512 426.279 319.176 424.083 319.603C421.427 320.118 418.732 320.404 416.027 320.46C413.323 320.519 410.617 320.438 407.921 320.217C405.712 320.082 403.516 319.792 401.349 319.348C399.883 319.049 398.458 318.577 397.104 317.942C396.631 317.7 396.272 317.508 396.03 317.355L395.684 317.112C396.194 317.298 396.693 317.511 397.18 317.751C398.551 318.313 399.972 318.741 401.425 319.028C403.585 319.42 405.767 319.667 407.959 319.77C410.427 319.936 413.163 320.051 416.015 319.987C418.699 319.935 421.376 319.67 424.019 319.195C426.173 318.796 428.281 318.18 430.31 317.355C432.175 316.538 433.968 315.563 435.667 314.441Z" fill="#313135"/>
<path d="M464.513 448.336C464.321 448.41 464.118 448.453 463.912 448.464L462.161 448.72C461.393 448.822 460.46 448.95 459.373 449.039C458.286 449.128 457.033 449.282 455.665 449.346C452.916 449.55 449.63 449.627 445.986 449.576C442.342 449.525 438.314 449.256 434.159 448.771C430.003 448.285 426.026 447.493 422.472 446.765C418.917 446.036 415.746 445.104 413.112 444.209C411.834 443.826 410.555 443.391 409.583 443.034C408.611 442.676 407.665 442.356 407.026 442.063L405.377 441.411C405.177 441.348 404.988 441.258 404.814 441.143C405.019 441.178 405.22 441.234 405.415 441.309L407.09 441.884C407.819 442.139 408.701 442.446 409.749 442.765C410.798 443.085 411.961 443.494 413.291 443.864C415.912 444.656 419.084 445.474 422.638 446.254C426.193 447.033 430.118 447.697 434.286 448.196C438.455 448.694 442.431 448.937 446.063 449.052C449.694 449.167 452.967 449.052 455.704 448.937C457.084 448.937 458.261 448.771 459.412 448.694C460.562 448.617 461.432 448.541 462.199 448.464L463.963 448.311L464.513 448.336Z" fill="#313135"/>
<path d="M474.844 373.908C474.654 373.52 474.508 373.113 474.409 372.694C474.179 371.914 473.847 370.764 473.463 369.346C472.683 366.522 471.699 362.574 470.714 358.204C469.729 353.834 468.975 349.835 468.464 346.947C468.221 345.491 468.029 344.328 467.914 343.51C467.825 343.09 467.782 342.662 467.786 342.232C467.945 342.644 468.056 343.073 468.118 343.51C468.297 344.417 468.54 345.555 468.834 346.909C469.423 349.784 470.254 353.758 471.225 358.128C472.197 362.497 473.131 366.446 473.783 369.295C474.09 370.649 474.358 371.787 474.575 372.681C474.701 373.081 474.79 373.492 474.844 373.908Z" fill="#313135"/>
<g opacity="0.3">
<path d="M408.202 318.863C409.328 322.697 408.279 328.408 408.829 331.871C411.176 345.765 411.926 359.882 411.066 373.947C410.959 374.711 411.007 375.489 411.207 376.234C411.498 376.874 411.881 377.468 412.345 377.997C415.171 381.728 415.9 386.711 415.324 391.362C414.567 395.995 413.209 400.509 411.284 404.791C411.194 401.048 411.386 395.438 411.68 391.707C411.68 390.953 412.128 391.439 412.14 390.685C412.268 386.188 411.514 382.022 408.305 378.815C407.619 378.231 407.017 377.556 406.515 376.809C406.167 376.052 405.963 375.238 405.914 374.407C403.97 358.708 402.645 342.949 401.937 327.13C401.797 326.245 401.978 325.338 402.448 324.575C402.963 324.088 403.55 323.683 404.187 323.374C405.466 322.582 406.156 321.176 407.461 320.55" fill="#19191A"/>
</g>
<path d="M370.534 322.748C370.534 322.748 345.038 328.753 351.214 366.932C354.103 385.55 359.211 403.755 366.429 421.16C370.611 430.986 380.072 437.77 390.723 436.365C395.352 435.764 399.93 436.493 403.037 434.627C407.742 431.791 409.788 422.233 410.709 411.934C411.309 404.907 411.067 397.598 411.987 391.606C413.509 381.818 409.021 377.205 403.267 376.055L380.648 371.571L379.369 383.479L370.534 322.748Z" fill="#7157A8"/>
<path d="M388.486 398.748C388.55 398.748 388.921 399.208 389.765 399.86C391 400.769 392.449 401.346 393.972 401.534C396.24 401.768 398.532 401.443 400.646 400.588C403.297 399.685 405.747 398.275 407.858 396.436C409.857 394.506 411.169 391.975 411.591 389.229C411.945 386.984 411.671 384.684 410.798 382.585C409.923 380.658 408.706 378.905 407.206 377.41C407.738 377.659 408.216 378.01 408.612 378.445C409.775 379.529 410.714 380.832 411.374 382.278C412.385 384.474 412.745 386.913 412.41 389.306C412 392.251 410.613 394.973 408.471 397.036C406.276 398.964 403.709 400.42 400.927 401.317C398.685 402.178 396.26 402.45 393.882 402.109C392.273 401.857 390.77 401.152 389.548 400.077C389.088 399.73 388.723 399.273 388.486 398.748Z" fill="#313135"/>
<path d="M365.062 417.811C365.151 417.811 365.547 419.013 366.596 421.083C368.081 423.987 370.043 426.622 372.401 428.877C375.882 432.232 380.186 434.611 384.88 435.777C390.618 437.203 396.661 436.778 402.142 434.563C405.032 433.4 406.08 430.193 407.18 427.51C408.153 424.831 408.872 422.068 409.328 419.255C410.052 414.461 410.534 409.634 410.773 404.791C411.067 400.741 411.31 397.419 411.489 394.965C411.591 393.892 411.668 393.011 411.732 392.295C411.743 391.984 411.79 391.675 411.872 391.375C411.922 391.684 411.922 391.999 411.872 392.308C411.872 393.023 411.872 393.905 411.872 394.991C411.757 397.444 411.617 400.766 411.425 404.83C411.274 409.714 410.847 414.585 410.146 419.421C409.705 422.294 408.99 425.118 408.011 427.855C407.482 429.31 406.846 430.724 406.106 432.084C405.315 433.561 404.055 434.734 402.525 435.419C396.844 437.737 390.563 438.154 384.625 436.607C380.615 435.567 376.886 433.653 373.705 431.002C370.523 428.351 367.969 425.029 366.225 421.274C365.841 420.445 365.513 419.591 365.241 418.719C365.145 418.424 365.085 418.12 365.062 417.811Z" fill="#313135"/>
<path d="M373.564 401.252C373.406 399.727 373.406 398.19 373.564 396.665C373.718 393.841 373.986 389.944 374.332 385.638C374.523 383.479 374.664 381.447 374.894 379.569C375.022 377.842 375.624 376.184 376.633 374.777C377.348 373.831 378.369 373.163 379.523 372.886C379.936 372.736 380.389 372.736 380.801 372.886C380.801 372.976 380.341 372.886 379.625 373.193C378.616 373.56 377.748 374.235 377.145 375.122C375.482 377.32 375.674 381.409 375.239 385.676C374.805 389.944 374.523 393.867 374.216 396.678C374.142 398.219 373.923 399.751 373.564 401.252Z" fill="#313135"/>
<path d="M381.505 360.683C381.274 359.482 380.916 357.732 380.456 355.572C379.535 351.266 378.206 345.35 376.684 338.783C376.029 335.682 375.218 332.616 374.255 329.596C373.448 327.096 372.182 324.769 370.521 322.734L370.022 323.13C371.561 325.154 372.73 327.434 373.475 329.864C374.383 332.586 375.022 335.716 375.802 338.987C377.323 345.529 378.756 351.445 379.842 355.713C380.379 357.847 380.827 359.546 381.121 360.76C381.248 361.388 381.454 361.998 381.735 362.574C381.728 361.937 381.651 361.303 381.505 360.683Z" fill="#313135"/>
<g opacity="0.3">
<path d="M381.747 368.899C379.682 368.934 377.679 369.613 376.019 370.841C372.292 373.404 369.6 377.209 368.424 381.574C367.28 385.936 367.485 390.542 369.012 394.786C369.485 396.064 370.38 397.597 371.774 397.533C373.423 397.469 374.075 395.425 374.331 393.802C374.962 389.304 375.593 384.802 376.224 380.296C376.345 378.754 376.748 377.247 377.413 375.85C377.761 375.157 378.291 374.572 378.947 374.158C379.602 373.744 380.358 373.516 381.134 373.499L381.555 368.682" fill="#19191A"/>
</g>
<path d="M533.508 389.459C536.702 384.091 538.512 378.015 538.776 371.775C539.006 365.221 538.142 358.675 536.219 352.405L509.138 344.01L508.971 353.056L533.508 389.459Z" fill="#7157A8"/>
<path d="M509.022 352.992L462.812 319.592V321.905L467.799 373.896C467.799 373.896 506.005 390.992 516.119 393.509C519.135 394.213 522.273 394.212 525.288 393.508C528.304 392.803 531.117 391.413 533.508 389.446L509.022 352.992Z" fill="#7157A8"/>
<path d="M522.717 378.24C522.341 378.107 521.987 377.917 521.668 377.678C520.759 377.095 519.903 376.432 519.111 375.698C516.536 373.237 514.446 370.316 512.948 367.086C511.457 363.879 510.275 360.537 509.419 357.107C509.074 355.829 508.831 354.73 508.664 353.989C508.555 353.611 508.494 353.22 508.485 352.826C509.054 354.173 509.52 355.561 509.879 356.979C510.856 360.341 512.083 363.625 513.549 366.805C515.022 369.967 517.014 372.86 519.443 375.366C521.348 377.257 522.78 378.138 522.717 378.24Z" fill="#313135"/>
<path d="M536.143 358.882C535.745 358.945 535.339 358.945 534.941 358.882C533.857 358.826 532.777 358.711 531.706 358.537C524.576 357.366 517.901 354.274 512.399 349.593C511.565 348.892 510.775 348.141 510.033 347.344C509.509 346.782 509.24 346.45 509.279 346.424C509.317 346.399 510.557 347.536 512.693 349.235C515.479 351.427 518.508 353.292 521.72 354.793C524.935 356.278 528.312 357.384 531.783 358.09C534.455 358.627 536.143 358.793 536.143 358.882Z" fill="#313135"/>
<path d="M511.056 373.894C510.414 373.03 509.926 372.062 509.611 371.032C508.753 368.589 508.236 366.04 508.077 363.455C507.922 360.901 507.943 358.34 508.141 355.789C508.15 354.725 508.283 353.666 508.537 352.633C508.666 353.688 508.692 354.754 508.614 355.814C508.614 357.782 508.537 360.491 508.742 363.481C508.888 366.012 509.317 368.519 510.02 370.956C510.647 372.744 511.158 373.843 511.056 373.894Z" fill="#313135"/>
<path d="M462.122 339.627C462.328 340.078 462.487 340.549 462.595 341.032C462.864 341.952 463.222 343.294 463.656 344.955C464.5 348.277 465.587 352.89 466.661 358.001C467.735 363.112 468.592 367.788 469.142 371.174C469.423 372.861 469.628 374.228 469.743 375.187C469.848 375.673 469.891 376.171 469.871 376.669C469.692 376.202 469.563 375.718 469.487 375.225L468.681 371.251C467.965 367.75 467.032 363.189 466.009 358.141C464.986 353.094 463.951 348.558 463.196 345.07C462.864 343.499 462.57 342.17 462.339 341.096C462.209 340.617 462.136 340.124 462.122 339.627Z" fill="#313135"/>
<path d="M380.366 376.271L386.018 313.662L404.788 321.06L407.205 384.743C407.205 384.743 401.195 393.815 391.056 390.097C388.154 389.029 385.613 387.165 383.722 384.72C381.831 382.275 380.668 379.347 380.366 376.271Z" fill="#F4AF70"/>
<path d="M384.01 258.848L419.096 289.68L412.741 312.704L410.197 313.458L379.522 282.09L381.466 259.602L384.01 258.848Z" fill="#313135"/>
<path d="M381.466 259.602L416.551 290.433L410.197 313.458L376.978 282.844L381.466 259.602Z" fill="#636369"/>
<path d="M405.581 323.081C407.73 320.712 408.975 317.663 409.097 314.469C409.02 309.754 407.716 298.395 407.716 298.395C407.716 298.395 413.815 285.617 413.662 283.867C413.508 282.116 413.227 282.193 411.105 282.883C408.982 283.573 402.154 295.251 402.154 295.251L399.929 286.588C399.929 286.588 405.581 277.491 406.028 276.213C406.476 274.935 407.218 273.9 405.811 273.785C404.405 273.67 393.779 283.943 393.779 283.943L394.636 293.437C394.636 293.437 394.418 294.191 392.897 292.862C391.375 291.533 391.759 280.2 391.759 280.2C391.759 280.2 395.377 273.492 395.288 272.533C395.198 271.575 395.94 270.514 395.288 268.853C394.636 267.192 392.488 269.109 392.488 269.109L385.34 278.296L382.783 269.173C382.783 269.173 382.885 267.218 380.354 267.205L381.338 296.81L387.731 319.593L405.581 323.081Z" fill="#F4AF70"/>
<path d="M407.205 384.756C407.205 384.756 407.205 384.373 407.102 383.644C407 382.916 407 381.766 406.923 380.373C406.796 377.473 406.617 373.282 406.374 367.954C405.952 357.157 405.338 341.773 404.596 323.156V323.015L404.75 322.875C406.259 321.58 407.426 319.934 408.151 318.083C408.847 316.11 409.087 314.004 408.854 311.925C408.637 307.593 408.1 303.083 407.486 298.47V298.342V298.227C408.637 295.799 409.788 293.282 410.9 290.701C411.45 289.424 412.012 288.146 412.511 286.791C412.767 286.127 413.01 285.45 413.202 284.785L413.329 284.287C413.329 284.134 413.329 284.031 413.329 283.878C413.324 283.572 413.263 283.269 413.15 282.984C413.227 282.779 412.255 282.984 411.642 283.201C411.336 283.275 411.051 283.42 410.811 283.623C410.545 283.846 410.297 284.089 410.069 284.351C409.101 285.456 408.205 286.621 407.384 287.839C405.696 290.292 404.11 292.873 402.563 295.506L402.001 296.451L401.732 295.391C401.029 292.656 400.275 289.705 399.52 286.727V286.549L399.622 286.382L402.487 281.693C403.573 279.853 404.775 277.962 405.658 276.148C405.837 275.637 406.092 275.113 406.207 274.678C406.284 274.448 406.207 274.346 406.207 274.372C406.081 274.296 405.932 274.264 405.785 274.282C405.61 274.357 405.439 274.442 405.274 274.538C405.069 274.653 404.852 274.832 404.647 274.959C404.226 275.266 403.804 275.586 403.369 275.918C400.121 278.588 397.078 281.463 394.112 284.3L394.239 283.942C394.538 287.145 394.823 290.309 395.096 293.436V293.589C395.037 293.76 394.921 293.907 394.768 294.004C394.614 294.101 394.433 294.144 394.252 294.126C394.035 294.103 393.826 294.033 393.638 293.921C393.323 293.76 393.031 293.558 392.769 293.321C392.265 292.793 391.946 292.116 391.861 291.391C391.621 290.126 391.476 288.845 391.426 287.558C391.299 285.003 391.299 282.613 391.426 280.185V280.083V279.994C392.702 277.714 393.838 275.358 394.828 272.941C394.864 272.824 394.89 272.704 394.904 272.583C394.904 272.481 394.904 272.212 394.904 272.059C394.904 271.701 395.032 271.382 395.083 271.075C395.21 270.513 395.188 269.927 395.019 269.376C394.828 268.75 394.636 268.494 394.163 268.584C393.626 268.73 393.134 269.006 392.731 269.389L385.66 278.588L385.212 279.189L385.008 278.46C384.155 275.3 383.328 272.255 382.527 269.325V269.222C382.532 268.974 382.477 268.727 382.365 268.505C382.254 268.282 382.09 268.09 381.888 267.945C381.452 267.684 380.95 267.555 380.443 267.574L380.788 267.229C381.133 279.265 381.427 289.257 381.645 296.834C383.051 302.265 384.138 306.481 384.893 309.382L385.698 312.627C385.877 313.356 385.928 313.739 385.928 313.739C385.928 313.739 385.8 313.381 385.583 312.653C385.366 311.925 385.059 310.826 384.675 309.433C383.87 306.558 382.719 302.354 381.223 296.937L380.226 267.229V266.871H380.571C381.215 266.848 381.852 267.017 382.399 267.357C382.698 267.561 382.94 267.836 383.106 268.157C383.271 268.478 383.353 268.836 383.345 269.197V269.082C384.198 272.012 385.05 275.053 385.903 278.205L385.251 278.077L392.283 268.839C392.798 268.354 393.427 268.007 394.112 267.83C394.336 267.779 394.569 267.783 394.791 267.841C395.013 267.899 395.219 268.009 395.39 268.162C395.654 268.446 395.839 268.794 395.927 269.171C396.135 269.846 396.166 270.564 396.017 271.254C396.017 271.586 395.889 271.893 395.863 272.174C395.85 272.323 395.85 272.472 395.863 272.621C395.847 272.821 395.809 273.018 395.748 273.209C394.756 275.688 393.603 278.1 392.296 280.428V280.249C392.232 282.651 392.296 285.092 392.373 287.558C392.423 288.785 392.564 290.006 392.795 291.212C392.855 291.745 393.073 292.248 393.421 292.656C393.632 292.847 393.864 293.015 394.112 293.155C394.204 293.204 394.303 293.238 394.406 293.257C394.406 293.257 394.406 293.333 394.406 293.346C394.61 293.436 394.137 293.244 394.188 293.27V293.448C393.907 290.331 393.617 287.166 393.319 283.955V283.75L393.472 283.597C396.451 280.748 399.482 277.873 402.781 275.151C403.203 274.819 403.625 274.487 404.059 274.167C404.289 274.014 404.494 273.848 404.75 273.707C405.035 273.515 405.357 273.384 405.696 273.324C405.888 273.303 406.083 273.322 406.267 273.379C406.452 273.436 406.623 273.531 406.77 273.656C406.913 273.815 407.009 274.01 407.047 274.22C407.086 274.429 407.065 274.646 406.987 274.844C406.821 275.445 406.591 275.892 406.412 276.391C405.415 278.448 404.277 280.224 403.164 282.102L400.3 286.791V286.446L402.512 295.109L401.694 294.994C403.254 292.35 404.852 289.769 406.565 287.328C407.412 286.08 408.335 284.886 409.327 283.75C409.586 283.456 409.868 283.182 410.171 282.933C410.498 282.668 410.877 282.477 411.284 282.37C411.648 282.25 412.02 282.152 412.396 282.076C412.629 282.036 412.867 282.036 413.099 282.076C413.254 282.104 413.401 282.165 413.529 282.255C413.657 282.346 413.764 282.464 413.841 282.6C414.003 283.008 414.094 283.44 414.109 283.878C414.122 284.099 414.122 284.321 414.109 284.543L413.969 285.092C413.751 285.82 413.508 286.497 413.253 287.175C412.728 288.452 412.166 289.832 411.616 291.123C410.491 293.678 409.327 296.234 408.176 298.674V298.432C408.777 303.07 409.302 307.58 409.519 311.963C409.741 314.154 409.47 316.368 408.726 318.441C407.945 320.419 406.69 322.174 405.069 323.552L405.223 323.233C405.824 341.862 406.322 357.259 406.681 368.043C406.834 373.384 406.949 377.575 407.026 380.488C407.026 381.881 407.026 382.967 407.09 383.746C407.154 384.526 407.205 384.756 407.205 384.756Z" fill="#E0934D"/>
<path d="M386.772 294.382C386.529 294.382 386.043 290.791 385.685 286.294C385.327 281.796 385.25 278.129 385.493 278.129C385.736 278.129 386.235 281.732 386.58 286.217C386.925 290.702 387.028 294.356 386.772 294.382Z" fill="#E0934D"/>
<path d="M339.31 304.885L319.274 264.406C334.851 230.702 337.249 192.394 325.997 157.012C314.746 121.631 290.658 91.7338 258.468 73.1981C226.279 54.6624 188.316 48.8284 152.04 56.8428C115.765 64.8572 83.8014 86.1402 62.4315 116.509C41.0615 146.878 31.831 184.135 36.5542 220.96C41.2774 257.784 59.6126 291.511 87.9562 315.512C116.3 339.513 152.602 352.052 189.727 350.665C226.852 349.278 262.116 334.065 288.587 308.016V308.092L339.31 304.885Z" fill="#F8F8F8"/>
<path d="M339.31 304.886L288.599 308.233H288.331L288.471 307.99V307.914L288.701 308.093C284.991 311.74 281.099 315.198 277.04 318.455C274.918 320.244 272.565 321.879 270.225 323.643C267.885 325.406 265.328 327.042 262.681 328.639C251.118 335.872 238.604 341.463 225.499 345.249C210.175 349.647 194.249 351.584 178.317 350.986C160.325 350.292 142.611 346.321 126.047 339.27C107.811 331.517 91.2957 320.225 77.4585 306.048C62.0806 290.239 50.4133 271.211 43.3013 250.34C36.1893 229.47 33.8107 207.28 36.3376 185.378C36.5806 182.491 37.1432 179.628 37.6163 176.741C38.0894 173.853 38.767 171.029 39.368 168.154C42.1571 156.648 46.263 145.501 51.6045 134.933C57.1882 124.134 64.0202 114.026 71.9604 104.817L75.0419 101.431L76.5762 99.7313L78.2001 98.1213L81.4222 94.9014L84.7723 91.7454C93.6906 83.6978 103.568 76.7799 114.181 71.1482C116.738 69.6916 119.449 68.4905 122.108 67.2C124.768 65.9094 127.517 64.8873 130.202 63.7373C132.964 62.779 135.675 61.6929 138.449 60.8368C141.224 59.9807 143.986 59.0607 146.812 58.4219C157.854 55.5765 169.181 53.9779 180.58 53.6559C210.793 52.9008 240.521 61.3528 265.811 77.8886C291.102 94.4243 310.756 118.26 322.163 146.228C325.266 153.927 327.746 161.861 329.579 169.956C329.976 171.924 330.359 173.866 330.743 175.795C331.126 177.725 331.331 179.628 331.638 181.571L332.06 184.433C332.162 185.378 332.252 186.324 332.354 187.269C332.571 189.148 332.712 191.013 332.814 192.879C333.694 206.474 332.691 220.126 329.835 233.447C328.587 239.111 327.016 244.7 325.13 250.185C323.34 255.296 321.383 260.088 319.414 264.419V264.304C332.303 290.562 338.888 303.914 339.323 304.834C338.875 303.953 332.226 290.6 319.158 264.419C321.115 260.088 322.994 255.36 324.823 250.198C331.054 231.793 333.609 212.344 332.341 192.955C332.226 191.103 332.085 189.237 331.868 187.359L331.561 184.535L331.139 181.686C330.832 179.795 330.641 177.852 330.231 175.936C329.822 174.019 329.464 172.103 329.068 170.109C327.236 162.044 324.756 154.139 321.652 146.471C310.267 118.618 290.67 94.8868 265.465 78.4312C240.26 61.9756 210.64 53.575 180.542 54.3459C169.19 54.6713 157.911 56.2656 146.914 59.0991C144.114 59.7379 141.377 60.6835 138.603 61.5012C135.828 62.319 133.143 63.4434 130.394 64.4017C127.709 65.5517 124.972 66.5867 122.326 67.8516C119.679 69.1166 117.007 70.3177 114.437 71.7871C103.893 77.3753 94.0805 84.2417 85.2198 92.2309L81.8825 95.2847L78.6732 98.4919L77.0621 100.102L75.5277 101.788L72.459 105.162C64.5502 114.34 57.7521 124.419 52.2055 135.189C46.8807 145.724 42.7877 156.837 40.0073 168.308C39.4191 171.157 38.7287 173.994 38.2684 176.856C37.8081 179.718 37.2838 182.567 36.9897 185.455C34.4157 207.918 37.0001 230.672 44.5465 251.987C51.6447 272.076 63.0222 290.386 77.8932 305.652C91.6608 319.812 108.101 331.104 126.264 338.873C142.766 345.912 160.414 349.887 178.343 350.603C194.22 351.213 210.094 349.298 225.371 344.93C238.434 341.186 250.913 335.647 262.451 328.473C265.111 326.888 267.566 325.151 269.995 323.502C272.424 321.854 274.675 320.129 276.797 318.391C280.859 315.151 284.755 311.71 288.471 308.08L289.238 307.352L288.701 308.259V308.335L288.574 308.105L339.31 304.886Z" fill="#313135"/>
<path d="M107.877 330.094L261.007 329.852C261.007 329.852 224.399 354.129 180.453 351.228C142.234 348.749 107.877 330.094 107.877 330.094Z" fill="#636369"/>
<path d="M174.941 227.441L183.675 259.385L215.576 216.338L208.058 329.214H162.513L149.241 329.853C149.241 329.853 151.21 312.066 152.016 302.011C152.507 293.984 153.862 286.033 156.056 278.296C162.858 256.191 174.941 227.441 174.941 227.441Z" fill="#F8F8F8"/>
<path d="M185.222 277.401C185.337 277.541 180.184 281.681 173.714 286.652C167.244 291.622 161.938 295.519 161.823 295.379C161.708 295.238 166.848 291.085 173.33 286.128C179.813 281.17 185.107 277.248 185.222 277.401Z" fill="#313135"/>
<path d="M264.51 211.878L239.704 199.957L229.974 188.406L216.216 202.691L179.724 328.894H242.3L250.317 307.236L264.51 223.621V211.878Z" fill="#2DD2A9"/>
<path d="M152.885 330.683L151.21 303.85L226.79 291.073C226.79 291.073 239.704 228.745 247.657 218.536C255.009 209.106 264.574 212.377 264.574 212.377C264.574 212.377 273.204 218.28 271.146 240.883C270.059 252.728 265.724 293.769 264.164 308.604C263.781 312.156 262.601 315.575 260.712 318.608C258.584 322.023 255.621 324.84 252.102 326.794C248.584 328.748 244.625 329.774 240.599 329.776L152.885 330.683Z" fill="#2DD2A9"/>
<path d="M239.142 306.699C239.027 306.699 238.924 305.511 238.375 303.684C237.669 301.298 236.477 299.084 234.873 297.182C233.268 295.279 231.287 293.73 229.053 292.631C227.34 291.775 226.164 291.481 226.202 291.354C227.261 291.436 228.295 291.723 229.245 292.197C231.618 293.209 233.72 294.762 235.383 296.733C237.046 298.703 238.224 301.036 238.822 303.543C239.129 304.565 239.237 305.636 239.142 306.699Z" fill="#313135"/>
<g opacity="0.2">
<path d="M237.761 201.771C237.047 209.66 235.535 217.456 233.248 225.039L227.57 223.378C228.649 225.113 229.355 227.051 229.646 229.073C229.936 231.094 229.804 233.153 229.258 235.121C228.149 239.045 226.497 242.795 224.348 246.262C214.972 263.137 205.569 280.02 196.142 296.912L224.578 232.386L223.837 220.452L229.309 219.289L237.761 201.771Z" fill="#19191A"/>
</g>
<g opacity="0.2">
<path d="M226.548 290.396C230.018 290.197 233.452 291.2 236.268 293.237C239.085 295.274 241.111 298.219 242.006 301.576C242.27 302.364 242.27 303.216 242.006 304.004C241.864 304.391 241.581 304.71 241.213 304.897C240.846 305.084 240.421 305.126 240.024 305.013C239.489 304.676 239.097 304.153 238.925 303.544C237.666 300.729 235.853 298.197 233.595 296.096C231.337 293.995 228.68 292.37 225.781 291.316" fill="#19191A"/>
</g>
<path d="M196.346 296.298C196.451 295.945 196.579 295.599 196.73 295.263L198.008 292.337L202.599 281.668L218.019 246.543C220.218 241.56 222.341 236.755 224.335 232.258V232.398C224.093 228.156 223.85 224.17 223.632 220.477V220.221H223.862L229.348 219.084L229.169 219.225L235.984 205.438L237.889 201.669L238.413 200.697C238.468 200.582 238.532 200.471 238.605 200.365C238.584 200.491 238.541 200.612 238.477 200.723L238.03 201.732C237.595 202.665 237.007 203.956 236.252 205.566L229.642 219.455V219.57H229.514L224.041 220.758L224.272 220.464C224.502 224.157 224.757 228.131 225.039 232.385V232.462V232.539C223.044 237.049 220.934 241.854 218.735 246.837L203.149 281.885C201.141 286.306 199.517 289.909 198.354 292.478L197.075 295.34C196.857 295.677 196.613 295.998 196.346 296.298Z" fill="#313135"/>
<path d="M152.821 329.84C152.789 329.693 152.768 329.543 152.757 329.393C152.757 329.061 152.757 328.626 152.655 328.115C152.566 326.914 152.438 325.227 152.284 323.004C151.99 318.596 151.568 312.271 151.006 304.49V304.272H151.21L205.897 294.229L226.061 290.575L225.806 290.818C230.242 273.99 234.078 259.385 236.84 248.933C238.221 243.823 239.398 239.644 240.101 236.757C240.497 235.364 240.791 234.278 241.009 233.498L241.252 232.655L241.354 232.387C241.371 232.484 241.371 232.583 241.354 232.681L241.162 233.524C240.97 234.316 240.702 235.415 240.356 236.808L237.275 249.036C234.577 259.5 230.805 274.131 226.471 290.971V291.176H226.266L206.051 294.907L151.351 304.745L151.555 304.49C151.977 312.284 152.323 318.609 152.566 323.03C152.668 325.189 152.745 326.863 152.796 328.077C152.796 328.626 152.796 329.061 152.796 329.355C152.821 329.515 152.829 329.678 152.821 329.84Z" fill="#313135"/>
<path d="M260.7 209.795C260.7 209.91 259.421 210.102 257.503 210.817C254.99 211.759 252.688 213.187 250.728 215.02C248.769 216.853 247.191 219.055 246.085 221.499C245.241 223.378 244.973 224.655 244.807 224.617C244.64 224.579 244.807 224.298 244.896 223.71C245.054 222.893 245.29 222.093 245.599 221.32C246.623 218.747 248.202 216.431 250.224 214.538C252.247 212.646 254.662 211.222 257.299 210.37C258.091 210.116 258.904 209.932 259.728 209.821C260.367 209.757 260.687 209.744 260.7 209.795Z" fill="#313135"/>
<path d="M117.8 181.391C120.037 177.264 119.078 160.603 122.492 161.19C126.904 161.944 122.825 179.462 122.492 181.059C122.16 182.656 124.525 183.04 124.692 181.596C124.947 179.513 127.505 159.133 131.839 160.283C134.243 160.909 133.118 165.292 133.118 165.292C133.118 165.292 129.384 185.046 131.456 185.519C133.527 185.991 135.1 174.607 136.02 170.467C136.941 166.327 139.498 164.781 140.483 166.876C141.915 169.943 139.204 179.897 138.335 183.883C137.465 187.87 135.445 199.433 141.058 194.91C146.671 190.387 152.566 188.981 154.496 189.71C156.427 190.438 155.941 193.287 153.793 193.849C151.518 194.7 149.368 195.852 147.4 197.274C145.838 198.437 144.413 199.774 143.155 201.26C141.479 203.102 140.122 205.209 139.14 207.496C138.343 209.302 137.172 210.919 135.704 212.241C134.236 213.562 132.505 214.558 130.624 215.162L127.351 230.725L106.151 226.189L110.87 209.719C112.596 198.897 111.649 184.356 111.662 177.775C111.662 167.221 113.056 167.145 114.22 167.426C117.045 167.975 115.613 185.416 117.8 181.391Z" fill="#F4AF70"/>
<path d="M117.198 195.55C118.166 195.916 119.11 196.343 120.024 196.828C122.178 198.155 123.853 200.133 124.806 202.475C125.082 203.197 125.296 203.94 125.446 204.698L125.51 205.056L125.816 204.89C127.515 203.893 129.369 203.188 131.302 202.807C132.747 202.526 133.642 202.501 133.642 202.424C132.85 202.289 132.042 202.289 131.251 202.424C129.248 202.712 127.317 203.375 125.561 204.379L125.932 204.571C125.798 203.766 125.58 202.978 125.279 202.22C124.723 200.883 123.936 199.654 122.952 198.591C122.146 197.74 121.214 197.016 120.19 196.444C119.512 196.072 118.791 195.785 118.042 195.588C117.765 195.529 117.48 195.516 117.198 195.55Z" fill="#E0934D"/>
<path d="M114.386 210.371C117.445 212.454 121.055 213.579 124.756 213.604C124.756 213.451 122.339 213.17 119.475 212.262C116.611 211.355 114.45 210.231 114.386 210.371Z" fill="#E0934D"/>
<path d="M191.129 195.037L174.941 227.441L183.674 259.372L206.933 234.814L229.858 192.252L191.129 195.037Z" fill="#F4AF70"/>
<path d="M175.888 198.079C175.888 198.079 152.873 206.256 152.873 207.777C148.806 210.958 135.266 243.681 130.957 249.866L118.631 268.073L128.962 227.774L106.241 221.104C106.241 221.104 86.8312 267.895 84.4785 278.295C83.056 284.471 83.1878 290.902 84.8621 297.014L84.9899 296.912C86.4467 301.58 89.45 305.613 93.5056 308.348C103.134 314.519 112.135 315.682 121.341 308.885C126.558 305.051 132.517 300.388 137.964 296.043L139.396 329.878H151.939C151.939 327.974 151.556 304.796 151.556 304.796C153.202 299.311 154.484 293.724 155.391 288.07C156.529 280.097 175.223 227.735 175.223 227.735L189.71 199.804L190.055 189.467L175.888 198.079Z" fill="#2DD2A9"/>
<path d="M139.127 329.585C139.066 329.239 139.031 328.889 139.025 328.537C138.973 327.788 138.909 326.778 138.833 325.509C138.692 322.8 138.5 318.992 138.257 314.29C137.823 304.72 137.234 291.547 136.57 276.776V276.699C136.838 275.306 137.132 273.811 137.426 272.304C140.457 256.792 143.218 242.737 145.226 232.502L147.668 220.466C147.949 219.086 148.192 218 148.359 217.195L148.55 216.351C148.571 216.255 148.601 216.161 148.64 216.07C148.659 216.167 148.659 216.267 148.64 216.364L148.499 217.22L147.924 220.517L145.699 232.604C143.743 242.826 141.058 256.881 138.027 272.444C137.746 273.939 137.452 275.434 137.183 276.827V276.75C137.771 291.521 138.296 304.707 138.667 314.265C138.82 318.98 138.948 322.787 139.037 325.496C139.037 326.774 139.037 327.783 139.114 328.537C139.146 328.886 139.151 329.236 139.127 329.585Z" fill="#313135"/>
<path d="M152.003 299.558C152.007 299.201 152.045 298.846 152.118 298.497C152.233 297.756 152.373 296.747 152.565 295.482C153.013 292.799 153.627 289.093 154.381 284.391C155.979 274.987 158.217 262.107 160.595 247.86C162.219 238.546 163.741 229.806 165.045 222.305V222.229C168.241 214.997 170.914 208.953 172.806 204.647C173.739 202.577 174.494 200.929 175.031 199.728L175.632 198.45C175.694 198.296 175.776 198.15 175.875 198.016C175.841 198.174 175.79 198.329 175.721 198.476C175.581 198.833 175.414 199.268 175.197 199.753C174.686 200.954 173.995 202.628 173.126 204.724C171.272 209.055 168.676 215.137 165.582 222.408C164.303 229.857 162.82 238.609 161.222 247.963C158.664 262.197 156.465 275.063 154.828 284.468C153.985 289.08 153.307 292.837 152.808 295.507L152.233 298.51C152.18 298.864 152.103 299.214 152.003 299.558Z" fill="#313135"/>
<path d="M107.876 295.801C107.787 295.737 108.772 294.331 110.152 291.968C111.952 288.815 113.5 285.525 114.781 282.129C116.056 278.793 117.116 275.379 117.952 271.907C118.591 269.211 118.886 267.524 118.988 267.537C119.052 267.939 119.052 268.349 118.988 268.751C118.911 269.53 118.745 270.642 118.476 272.009C117.776 275.577 116.771 279.078 115.472 282.474C114.177 285.875 112.559 289.144 110.638 292.236C109.884 293.424 109.245 294.344 108.759 294.958C108.273 295.571 107.876 295.839 107.876 295.801Z" fill="#313135"/>
<g opacity="0.2">
<path d="M109.629 293.935C109.421 293.98 109.226 294.071 109.059 294.202C108.892 294.333 108.756 294.499 108.663 294.69C108.569 294.881 108.52 295.09 108.519 295.302C108.518 295.514 108.565 295.724 108.657 295.915C108.876 296.288 109.205 296.583 109.598 296.762C109.992 296.94 110.431 296.993 110.856 296.912C111.705 296.737 112.484 296.314 113.094 295.698C114.946 293.797 116.269 291.445 116.93 288.875C118.886 282.716 118.975 276.098 119.052 269.709C117.266 278.143 114.099 286.225 109.68 293.628" fill="#19191A"/>
</g>
<g opacity="0.2">
<path d="M137.58 296.937C133.861 290.709 132.234 283.456 132.938 276.238C133.629 266.399 138.411 257.404 141.978 248.217C139.932 257.877 138.756 267.472 136.864 276.762C136.864 276.762 137.848 290.574 137.874 296.694" fill="#19191A"/>
</g>
<g opacity="0.2">
<path d="M153.461 290.779C154.458 276.06 155.468 261.314 158.064 246.799C160.695 231.942 165.704 217.606 172.896 204.34C171.042 210.166 165.327 222.407 165.327 222.407C165.327 222.407 157.079 265.85 153.499 287.776" fill="#19191A"/>
</g>
<path d="M151.607 307.683L153.665 330.504H142.887L133.348 330.35C129.713 330.744 126.053 330.838 122.403 330.632C122.227 330.637 122.052 330.602 121.891 330.529C121.325 330.449 120.768 330.312 120.229 330.12C119.257 329.763 118.26 329.137 118.413 328.063C118.887 324.792 120.83 324.524 120.83 324.524H121.802L121.879 324.243C120.408 324.243 119.155 324.243 118.503 324.128C118.196 324.128 118.017 324.064 117.992 324.013C117.966 323.962 114.156 323.566 114.463 321.547C114.884 318.174 116.828 317.905 116.828 317.905L119.973 317.701C118.452 317.701 117.148 317.701 116.483 317.586C116.176 317.586 115.997 317.522 115.971 317.471C115.946 317.42 112.135 317.024 112.442 315.005C112.915 311.734 114.859 311.465 114.859 311.465L117.416 311.287C116.138 311.287 115.153 311.287 114.578 311.184C114.271 311.184 114.092 311.12 114.066 311.069C114.041 311.018 110.23 310.622 110.537 308.603C111.061 305.32 112.992 305.128 112.992 305.128C112.992 305.128 119.002 304.693 123.132 304.527C123.132 304.527 127.824 300.311 129.665 300.502C132.427 300.796 148.461 306.712 148.461 306.712L151.607 307.683Z" fill="#F4AF70"/>
<path d="M131.378 323.821C129.625 324.216 127.83 324.388 126.034 324.334C124.269 324.497 122.491 324.441 120.74 324.167C122.493 323.769 124.288 323.593 126.085 323.642C127.85 323.471 129.629 323.531 131.378 323.821Z" fill="#E0934D"/>
<path d="M131.405 317.343C128.898 317.784 126.355 317.994 123.81 317.971C121.255 318.175 118.688 318.149 116.138 317.894C118.645 317.454 121.188 317.248 123.733 317.279C126.287 317.067 128.855 317.089 131.405 317.343Z" fill="#E0934D"/>
<g opacity="0.78">
<path d="M130.892 310.776C128.359 311.21 125.791 311.416 123.221 311.391C120.666 311.601 118.098 311.576 115.549 311.314C118.057 310.883 120.599 310.678 123.144 310.699C125.724 310.484 128.318 310.509 130.892 310.776Z" fill="#E0934D"/>
</g>
<path d="M121.43 304.592C122.226 304.747 123.037 304.812 123.847 304.784L129.69 304.977L135.534 305.194C136.341 305.277 137.155 305.277 137.963 305.194C137.181 304.967 136.373 304.837 135.559 304.81C134.063 304.669 131.992 304.515 129.703 304.439C127.414 304.362 125.356 304.362 123.847 304.439C123.038 304.394 122.227 304.445 121.43 304.592Z" fill="#E0934D"/>
<path d="M240.446 118.718C243.157 112.138 251.724 109.135 258.424 111.588C265.124 114.042 269.573 120.89 270.379 127.969C270.933 131.462 270.206 135.037 268.333 138.038C267.212 139.503 265.804 140.726 264.195 141.631C262.586 142.536 260.809 143.104 258.974 143.302C255.694 143.759 252.353 143.337 249.291 142.078C246.229 140.82 243.557 138.77 241.549 136.139C239.541 133.509 238.27 130.392 237.865 127.108C237.46 123.825 237.936 120.492 239.244 117.453" fill="#19191A"/>
<path d="M267.707 119.586C267.707 119.586 267.579 119.931 267.221 120.468C266.711 121.215 266.138 121.916 265.508 122.564C263.412 124.734 260.831 126.376 257.977 127.355C255.123 128.335 252.078 128.624 249.09 128.198C248.193 128.07 247.308 127.869 246.443 127.598C246.115 127.524 245.803 127.389 245.523 127.202C245.523 127.087 246.904 127.521 249.141 127.726C252.052 128.008 254.989 127.664 257.754 126.716C260.52 125.768 263.051 124.239 265.175 122.231C266.774 120.685 267.579 119.523 267.707 119.586Z" fill="#636369"/>
<path d="M270.506 127.1C270.506 127.1 270.276 127.381 269.778 127.79C269.069 128.371 268.326 128.909 267.553 129.4C265.004 131.053 262.181 132.238 259.216 132.901C257.571 133.231 255.892 133.36 254.217 133.285C252.853 133.217 251.502 132.994 250.189 132.62C249.307 132.386 248.45 132.065 247.632 131.662C247.056 131.381 246.737 131.202 246.762 131.163C246.788 131.125 248.118 131.649 250.33 132.173C251.623 132.469 252.942 132.64 254.268 132.684C255.894 132.715 257.519 132.569 259.114 132.25C262.006 131.594 264.779 130.495 267.335 128.991C269.292 127.854 270.442 127.011 270.506 127.1Z" fill="#636369"/>
<path d="M171.297 138.382C155.468 103.589 193.124 86.1224 213.659 91.9106C232.966 97.3665 241.2 106.962 244.346 119.868C247.491 132.773 247.376 146.7 242.313 159.056C239.755 165.112 235.319 171.284 228.798 172.038" fill="#19191A"/>
<path d="M190.209 224.363C189.927 207.752 189.736 184.906 189.736 185.008C189.736 185.111 175.441 182.632 172.474 163.99C171.004 154.726 171.464 139.521 172.244 127.101C172.96 115.908 180.363 102.198 191.526 103.373L226.343 112.19C227.978 112.362 229.489 113.142 230.576 114.375C231.663 115.608 232.247 117.204 232.212 118.847L229.936 190.809" fill="#F4AF70"/>
<path d="M189.709 185.084C198.495 185.215 207.144 182.906 214.694 178.414C214.694 178.414 208.365 191.409 189.709 189.645V185.084Z" fill="#E0934D"/>
<path d="M228.644 142.331C228.925 142.203 238.63 137.91 238.745 149.065C238.86 160.22 227.621 158.009 227.595 157.728C227.57 157.447 228.644 142.331 228.644 142.331Z" fill="#F4AF70"/>
<path d="M230.971 153.461C230.971 153.461 231.163 153.588 231.495 153.742C231.963 153.932 232.486 153.932 232.953 153.742C234.129 153.295 235.101 151.416 235.14 149.41C235.156 148.451 234.959 147.499 234.564 146.625C234.455 146.278 234.263 145.963 234.005 145.707C233.746 145.45 233.429 145.261 233.081 145.155C232.858 145.098 232.623 145.12 232.415 145.218C232.207 145.316 232.04 145.484 231.943 145.692C231.79 146.011 231.866 146.229 231.802 146.254C231.738 146.28 231.559 146.063 231.649 145.603C231.712 145.327 231.865 145.08 232.084 144.9C232.39 144.666 232.775 144.561 233.158 144.606C233.617 144.693 234.046 144.896 234.404 145.196C234.762 145.496 235.037 145.882 235.204 146.318C235.696 147.277 235.938 148.345 235.907 149.423C235.907 151.672 234.73 153.78 233.119 154.266C232.821 154.358 232.506 154.381 232.198 154.332C231.89 154.284 231.597 154.165 231.342 153.985C230.997 153.729 230.933 153.486 230.971 153.461Z" fill="#E0934D"/>
<path d="M241.175 134.691C240.024 134.614 230.805 135.802 231.534 152.937C232.211 168.947 243.438 165.42 247.031 159.402C250.419 153.691 252.363 135.483 241.175 134.691Z" fill="#443465"/>
<path d="M246.877 136.721C246.864 136.573 246.864 136.423 246.877 136.274C246.877 135.929 246.877 135.508 246.877 134.997C246.877 133.821 246.8 132.173 246.736 130.116C246.66 125.912 246.545 120.073 246.404 113.313L246.609 113.518H241.75L241.967 113.3C241.967 114.578 242.044 115.92 242.069 117.287C242.236 123.676 242.389 129.694 242.504 134.715V134.856H242.351C240.405 135.308 238.675 136.419 237.454 137.999C236.535 139.237 235.87 140.644 235.497 142.139C235.252 143.099 235.085 144.078 234.999 145.065C234.999 145.41 234.999 145.666 234.999 145.845C234.999 146.023 234.999 146.113 234.999 146.113C234.982 146.024 234.982 145.933 234.999 145.845C234.999 145.666 234.999 145.41 234.999 145.052C235.047 144.054 235.184 143.062 235.408 142.088C235.753 140.553 236.41 139.104 237.338 137.833C238.599 136.157 240.41 134.976 242.453 134.498L242.312 134.677C242.172 129.668 241.993 123.689 241.814 117.261C241.814 115.894 241.737 114.54 241.711 113.262V113.045H246.89V113.249C246.967 119.996 247.031 125.848 247.082 130.052C247.082 132.109 247.082 133.757 247.082 134.933V136.21C247.029 136.386 246.96 136.557 246.877 136.721Z" fill="#443465"/>
<path d="M241.175 113.274C237.715 106.029 231.982 100.111 224.847 96.421C220.453 94.2287 215.836 92.5152 211.076 91.31C211.076 91.31 217.788 89.7256 228.644 94.5427C233.567 96.7404 238.541 99.6537 241.827 103.87C243.911 106.592 246.519 111.894 246.507 113.262L241.175 113.274Z" fill="#443465"/>
<path d="M239.947 164.181C239.832 164.173 239.719 164.142 239.615 164.092C239.317 163.967 239.03 163.818 238.758 163.645C237.763 162.994 236.935 162.119 236.342 161.089C235.5 159.538 234.995 157.827 234.858 156.068C234.667 153.942 234.667 151.804 234.858 149.679C235.039 147.549 235.394 145.438 235.92 143.367C236.288 141.649 236.908 139.996 237.761 138.46C238.358 137.429 239.191 136.554 240.19 135.905C240.459 135.73 240.747 135.584 241.047 135.47C241.151 135.42 241.264 135.39 241.379 135.381C241.379 135.381 240.957 135.573 240.28 136.045C239.35 136.725 238.578 137.596 238.017 138.601C237.226 140.129 236.649 141.758 236.303 143.443C235.804 145.502 235.462 147.595 235.28 149.704C235.108 151.809 235.108 153.924 235.28 156.029C235.393 157.744 235.854 159.418 236.636 160.948C237.187 161.956 237.956 162.829 238.886 163.504C239.576 163.99 239.96 164.143 239.947 164.181Z" fill="#313135"/>
<path d="M202.963 161.596L194.13 163.328C192.952 163.559 192.184 164.7 192.416 165.878L192.546 166.542C192.777 167.719 193.919 168.486 195.098 168.255L203.931 166.524C205.109 166.293 205.876 165.151 205.645 163.974L205.515 163.309C205.284 162.132 204.141 161.365 202.963 161.596Z" fill="#443465"/>
<path d="M204.414 162.891L243.604 150.599C243.839 150.521 244.086 150.491 244.332 150.509C244.578 150.528 244.818 150.595 245.038 150.706C245.258 150.818 245.453 150.972 245.613 151.16C245.773 151.348 245.895 151.565 245.97 151.8C246.046 152.038 246.073 152.289 246.049 152.538C246.026 152.787 245.952 153.028 245.833 153.248C245.713 153.468 245.551 153.661 245.354 153.816C245.158 153.971 244.933 154.085 244.691 154.151L204.606 164.973L204.414 162.891Z" fill="#443465"/>
<path d="M233.375 157.486C233.792 157.311 234.219 157.161 234.654 157.038L238.234 155.939C239.743 155.479 241.584 154.994 243.54 154.355C244.017 154.182 244.452 153.913 244.819 153.563C245.176 153.198 245.374 152.706 245.369 152.196C245.369 151.948 245.291 151.706 245.147 151.504C245.002 151.303 244.798 151.151 244.563 151.071C244.027 150.926 243.462 150.926 242.927 151.071L231.176 154.904L227.596 156.016C227.178 156.161 226.751 156.276 226.317 156.361C226.73 156.159 227.157 155.988 227.596 155.85L231.138 154.572C234.13 153.563 238.247 152.145 242.875 150.739C243.488 150.553 244.142 150.553 244.755 150.739C245.071 150.846 245.346 151.048 245.54 151.319C245.735 151.589 245.841 151.914 245.842 152.247C245.846 152.555 245.788 152.861 245.672 153.146C245.555 153.431 245.383 153.69 245.164 153.908C244.756 154.302 244.268 154.602 243.732 154.789C241.712 155.428 239.896 155.863 238.375 156.297L234.756 157.256C234.304 157.377 233.842 157.454 233.375 157.486Z" fill="#313135"/>
<path d="M217.622 102.478C215.45 105.414 213.726 108.657 212.508 112.1C211.91 113.826 211.697 115.661 211.885 117.478C212.073 119.295 212.656 121.048 213.595 122.616C215.564 125.49 218.926 127.011 221.995 128.685C225.064 130.359 228.197 132.659 228.964 136.057C229.194 137.118 228.746 140.849 229.539 141.59C230.639 142.599 232.569 141.973 233.375 140.734C234.181 139.494 234.756 135.393 234.781 133.898L234.973 119.971C234.973 116.035 234.973 111.959 233.273 108.471C230.882 103.513 225.946 101.929 218.735 102.287" fill="#19191A"/>
<path d="M171.809 130.436C172.356 125.696 174.187 121.195 177.102 117.416C180.049 113.642 184.298 111.1 189.019 110.286C193.724 109.571 198.481 110.874 203.237 111.142C207.994 111.411 213.39 110.248 215.87 106.197C216.65 104.92 217.008 103.156 216.024 102.058C215.624 101.662 215.151 101.35 214.63 101.138C208.321 98.0768 201.252 96.935 194.3 97.8538C187.322 98.8183 180.964 102.372 176.488 107.807C174.293 110.538 172.747 113.732 171.967 117.148C171.188 120.563 171.195 124.111 171.988 127.523" fill="#19191A"/>
<path d="M168.983 123.434C168.884 123.244 168.811 123.042 168.765 122.833C168.592 122.239 168.464 121.632 168.382 121.019C168.106 118.742 168.324 116.432 169.021 114.247C170.057 110.98 172.004 108.077 174.634 105.878C177.855 103.19 181.743 101.424 185.886 100.767C190 100.135 194.197 100.322 198.238 101.316C199.973 101.73 201.681 102.25 203.352 102.875C204.951 103.463 206.37 104.153 207.738 104.472C209.894 105.058 212.136 105.257 214.361 105.06C215.163 104.892 215.91 104.528 216.535 103.999C216.417 104.183 216.27 104.347 216.1 104.485C215.616 104.891 215.042 105.175 214.425 105.315C212.15 105.629 209.834 105.494 207.61 104.919C206.204 104.574 204.746 103.948 203.173 103.399C201.5 102.802 199.792 102.307 198.059 101.917C194.092 100.973 189.981 100.804 185.95 101.418C181.931 102.045 178.15 103.725 174.992 106.286C172.428 108.398 170.502 111.18 169.43 114.323C168.703 116.441 168.425 118.686 168.612 120.917C168.791 122.565 169.047 123.421 168.983 123.434Z" fill="#636369"/>
<path d="M189.62 94.1217C189.998 93.9839 190.395 93.9063 190.796 93.8917C191.88 93.7809 192.973 93.7809 194.057 93.8917C197.676 94.2357 201.119 95.6105 203.979 97.8527C205.629 99.1304 207.01 100.6 208.48 101.584C209.786 102.444 211.251 103.035 212.789 103.321C213.818 103.568 214.881 103.641 215.934 103.539C216.676 103.449 217.047 103.245 217.085 103.296C216.775 103.566 216.393 103.739 215.986 103.794C214.9 104.001 213.785 104.001 212.699 103.794C211.076 103.561 209.52 102.986 208.135 102.108C206.588 101.098 205.168 99.6671 203.57 98.3893C200.794 96.2269 197.494 94.8381 194.006 94.3645C191.321 93.9939 189.633 94.3006 189.62 94.1217Z" fill="#636369"/>
<path d="M246.085 128.339C246.085 128.339 245.829 127.905 245.292 127.189C244.5 126.202 243.483 125.418 242.326 124.902C240.612 124.146 238.752 123.775 236.879 123.816C234.56 123.945 232.255 124.261 229.987 124.762C227.667 125.273 225.287 125.454 222.916 125.298C220.983 125.132 219.087 124.675 217.29 123.944C216.081 123.454 214.928 122.838 213.851 122.104C213.424 121.845 213.044 121.517 212.725 121.133C214.236 122.019 215.809 122.796 217.431 123.458C219.205 124.102 221.059 124.497 222.942 124.634C225.254 124.754 227.573 124.561 229.833 124.059C232.137 123.546 234.482 123.242 236.84 123.152C238.802 123.133 240.741 123.57 242.505 124.429C243.701 125.012 244.726 125.892 245.484 126.985C245.673 127.285 245.836 127.602 245.97 127.93C246.072 128.212 246.11 128.339 246.085 128.339Z" fill="#636369"/>
<path d="M244.064 119.395C244.064 119.395 243.821 118.961 243.271 118.271C242.466 117.338 241.443 116.618 240.292 116.175C238.569 115.54 236.715 115.343 234.896 115.6C232.838 115.805 230.6 116.431 228.183 116.878C225.895 117.403 223.513 117.368 221.24 116.776C219.397 116.208 217.732 115.174 216.407 113.773C215.512 112.853 214.789 111.779 214.272 110.604C214.16 110.287 214.071 109.963 214.003 109.633C213.981 109.515 213.981 109.394 214.003 109.275C214.713 110.821 215.682 112.234 216.868 113.454C218.177 114.734 219.779 115.677 221.535 116.201C223.724 116.727 226.007 116.727 228.196 116.201C230.562 115.754 232.825 115.14 234.973 114.923C236.882 114.687 238.82 114.946 240.599 115.677C241.8 116.179 242.839 117.001 243.604 118.053C243.87 118.453 244.029 118.916 244.064 119.395Z" fill="#636369"/>
<path d="M196.103 247.182L196.346 246.977L197.049 246.415C197.945 245.679 198.798 244.894 199.606 244.064C200.92 242.721 202.146 241.296 203.276 239.796C204.555 238.059 206.051 235.963 207.624 233.638C210.769 228.987 214.451 223.313 218.364 216.784C220.32 213.513 222.341 210.025 224.374 206.345C224.885 205.425 225.384 204.492 225.908 203.56C226.4 202.576 226.987 201.643 227.66 200.774C228.361 199.877 229.3 199.195 230.37 198.806C230.918 198.589 231.514 198.523 232.097 198.615C232.404 198.689 232.686 198.843 232.915 199.062C233.123 199.308 233.275 199.595 233.362 199.905V199.969C233.239 200.361 233.034 200.722 232.761 201.03C232.468 201.344 232.066 201.536 231.636 201.566C230.834 201.565 230.055 201.295 229.424 200.8C228.766 200.328 228.278 199.657 228.033 198.885C227.789 198.113 227.801 197.283 228.069 196.519C228.348 195.714 228.931 195.049 229.693 194.666C230.436 194.28 231.288 194.159 232.109 194.321C232.541 194.388 232.949 194.563 233.294 194.832C233.639 195.1 233.909 195.452 234.078 195.855C234.167 196.084 234.187 196.333 234.137 196.573C234.087 196.813 233.969 197.034 233.797 197.209C233.478 197.519 233.08 197.735 232.646 197.835C231.92 198.001 231.16 197.923 230.483 197.613C229.806 197.304 229.249 196.78 228.9 196.123C228.551 195.445 228.469 194.661 228.67 193.925C228.866 193.209 229.266 192.566 229.821 192.073C230.364 191.582 231.07 191.309 231.802 191.306C232.173 191.309 232.538 191.4 232.867 191.571C233.196 191.742 233.479 191.988 233.695 192.29C233.918 192.624 234 193.032 233.925 193.427C233.891 193.621 233.818 193.806 233.71 193.97C233.602 194.135 233.462 194.276 233.298 194.385C232.999 194.591 232.655 194.721 232.294 194.766C231.933 194.81 231.568 194.768 231.227 194.641C230.898 194.498 230.603 194.288 230.361 194.024C230.118 193.76 229.934 193.447 229.821 193.108C229.599 192.454 229.496 191.766 229.514 191.076C229.475 189.728 229.826 188.397 230.524 187.243C230.894 186.663 231.462 186.236 232.122 186.042C232.451 185.969 232.791 185.963 233.122 186.022C233.453 186.081 233.77 186.205 234.053 186.387C234.358 186.556 234.611 186.807 234.783 187.112C234.954 187.416 235.038 187.762 235.025 188.112C234.982 188.457 234.837 188.782 234.61 189.046C234.382 189.31 234.082 189.501 233.746 189.594C233.432 189.7 233.097 189.728 232.77 189.677C232.443 189.626 232.133 189.496 231.866 189.3C231.36 188.884 231.024 188.298 230.92 187.652C230.819 187.03 230.876 186.393 231.086 185.799C231.232 185.215 231.442 184.65 231.713 184.112C231.991 183.581 232.411 183.139 232.928 182.835C233.427 182.523 233.991 182.331 234.577 182.272C234.88 182.229 235.19 182.269 235.472 182.387C235.74 182.535 235.971 182.74 236.15 182.988C236.329 183.231 236.456 183.51 236.521 183.806C236.606 184.118 236.57 184.452 236.418 184.738C236.249 184.991 236.006 185.185 235.722 185.295C235.439 185.404 235.128 185.424 234.833 185.352C234.281 185.256 233.772 184.993 233.375 184.598C232.607 183.831 232.151 182.807 232.097 181.723C232.024 180.684 232.298 179.65 232.877 178.784C233.163 178.371 233.533 178.023 233.963 177.762C234.39 177.524 234.868 177.393 235.357 177.379C235.847 177.347 236.333 177.492 236.725 177.787C236.915 177.94 237.066 178.135 237.166 178.357C237.266 178.58 237.312 178.822 237.301 179.065C237.233 179.524 237.017 179.948 236.684 180.272C236.351 180.595 235.92 180.8 235.459 180.854C235.033 180.878 234.608 180.779 234.236 180.568C233.864 180.358 233.561 180.044 233.362 179.666C232.958 178.984 232.775 178.194 232.838 177.404C233.111 176.065 233.581 174.773 234.232 173.571L235.626 170.402C236.457 168.511 237.122 167.042 237.569 166.032L238.081 164.895C238.138 164.764 238.202 164.636 238.272 164.512C238.23 164.647 238.179 164.78 238.119 164.908L237.646 166.058L235.779 170.466L234.462 173.52C233.854 174.73 233.424 176.021 233.183 177.353C233.125 178.091 233.299 178.828 233.682 179.461C233.86 179.793 234.129 180.068 234.457 180.253C234.786 180.439 235.16 180.527 235.536 180.509C235.926 180.457 236.29 180.281 236.573 180.008C236.856 179.734 237.044 179.377 237.109 178.989C237.117 178.789 237.079 178.59 236.997 178.409C236.915 178.227 236.791 178.066 236.636 177.941C236.295 177.706 235.886 177.589 235.472 177.609C235.024 177.627 234.586 177.75 234.193 177.966C233.806 178.208 233.471 178.526 233.209 178.899C232.677 179.703 232.43 180.661 232.506 181.621C232.549 182.617 232.964 183.56 233.669 184.266C234.016 184.612 234.464 184.84 234.948 184.917C235.18 184.987 235.428 184.982 235.657 184.904C235.886 184.827 236.085 184.679 236.227 184.483C236.297 184.267 236.311 184.036 236.269 183.813C236.226 183.59 236.128 183.381 235.984 183.205C235.839 183.004 235.651 182.838 235.434 182.72C235.207 182.629 234.96 182.598 234.718 182.63C234.181 182.674 233.664 182.854 233.216 183.154C232.769 183.453 232.405 183.863 232.16 184.342C231.903 184.852 231.702 185.387 231.56 185.939C231.374 186.477 231.326 187.052 231.419 187.613C231.504 188.162 231.791 188.659 232.224 189.006C232.439 189.167 232.69 189.274 232.955 189.316C233.22 189.358 233.492 189.335 233.746 189.249C234.007 189.18 234.241 189.035 234.418 188.832C234.596 188.63 234.709 188.379 234.743 188.112C234.746 187.837 234.674 187.567 234.534 187.331C234.394 187.094 234.192 186.9 233.951 186.77C233.468 186.465 232.886 186.36 232.327 186.476C231.768 186.659 231.289 187.029 230.971 187.524C230.33 188.614 230.006 189.862 230.038 191.127C230.024 191.761 230.124 192.393 230.332 192.993C230.427 193.273 230.578 193.53 230.776 193.75C230.973 193.97 231.214 194.147 231.483 194.27C231.761 194.369 232.059 194.401 232.353 194.364C232.646 194.326 232.926 194.219 233.171 194.053C233.288 193.974 233.388 193.872 233.465 193.754C233.543 193.635 233.596 193.503 233.622 193.364C233.648 193.225 233.647 193.082 233.617 192.944C233.588 192.806 233.532 192.675 233.452 192.558C233.274 192.314 233.041 192.116 232.773 191.978C232.504 191.841 232.207 191.768 231.905 191.766C231.275 191.771 230.67 192.007 230.204 192.43C229.681 192.829 229.313 193.396 229.162 194.035C229.011 194.675 229.087 195.347 229.377 195.937C229.667 196.526 230.152 196.997 230.751 197.269C231.35 197.541 232.024 197.596 232.659 197.426C233.015 197.353 233.343 197.18 233.605 196.928C233.717 196.811 233.792 196.665 233.824 196.507C233.856 196.348 233.842 196.184 233.784 196.034C233.641 195.698 233.414 195.405 233.125 195.181C232.837 194.958 232.496 194.811 232.135 194.756C231.411 194.6 230.655 194.707 230.003 195.058C229.352 195.41 228.847 195.982 228.58 196.672C228.338 197.363 228.332 198.114 228.563 198.808C228.795 199.502 229.25 200.099 229.859 200.506C230.412 200.946 231.096 201.189 231.802 201.196C232.132 201.146 232.438 200.997 232.68 200.768C232.922 200.54 233.089 200.243 233.158 199.918V200.033C233.107 199.799 232.991 199.583 232.824 199.412C232.657 199.24 232.445 199.119 232.212 199.062C231.702 198.989 231.182 199.051 230.703 199.241C229.694 199.595 228.807 200.229 228.146 201.068C227.498 201.92 226.924 202.826 226.432 203.777C225.921 204.722 225.409 205.655 224.898 206.575C222.852 210.255 220.819 213.73 218.85 217.001C214.924 223.531 211.178 229.178 208.033 233.829C206.434 236.142 204.99 238.225 203.621 239.962C202.468 241.45 201.221 242.863 199.888 244.192C198.735 245.318 197.466 246.32 196.103 247.182Z" fill="#313135"/>
</svg>
